SplineFontDB: 3.0
FontName: HM_FTXhoma
FullName: HM_FTXhoma
FamilyName: HM_FTXhoma
Weight: Book
Copyright: Copyright (c) Hossein, 2013. All rights reserved.
Version: 0.1
ItalicAngle: 0
UnderlinePosition: -540
UnderlineWidth: 60
Ascent: 1638
Descent: 410
sfntRevision: 0x00010000
LayerCount: 2
Layer: 0 1 "Back"  1
Layer: 1 1 "Fore"  0
XUID: [1021 102 1371595031 6992056]
FSType: 0
OS2Version: 2
OS2_WeightWidthSlopeOnly: 0
OS2_UseTypoMetrics: 1
CreationTime: 1194658560
ModificationTime: 1360912408
PfmFamily: 17
TTFWeight: 400
TTFWidth: 5
LineGap: 0
VLineGap: 0
Panose: 2 0 5 3 8 0 0 2 0 3
OS2TypoAscent: 2100
OS2TypoAOffset: 0
OS2TypoDescent: -1000
OS2TypoDOffset: 0
OS2TypoLinegap: 0
OS2WinAscent: 2100
OS2WinAOffset: 0
OS2WinDescent: 1000
OS2WinDOffset: 0
HheadAscent: 2100
HheadAOffset: 0
HheadDescent: -1000
HheadDOffset: 0
OS2SubXSize: 1434
OS2SubYSize: 1331
OS2SubXOff: 0
OS2SubYOff: 293
OS2SupXSize: 1434
OS2SupYSize: 1331
OS2SupXOff: 0
OS2SupYOff: 928
OS2StrikeYSize: 102
OS2StrikeYPos: 512
OS2Vendor: 'pars'
OS2CodePages: 20000051.41000000
OS2UnicodeRanges: 00002003.80000000.00000008.00000000
Lookup: 4 0 1 "gsub_ligature_dfl_liga_arab_FAR_Lookup_01"  {"gsub_ligature_dfl_liga_arab_FAR_Lookup_01_Subtable_01"  } ['liga' ('arab' <'FAR ' > ) ]
Lookup: 4 0 1 "gsub_ligature_dfl_liga_arab_FAR_Lookup_02"  {"gsub_ligature_dfl_liga_arab_FAR_Lookup_02_Subtable_01"  } ['liga' ('arab' <'FAR ' > ) ]
Lookup: 3 0 0 "gsub_alternate_dfl_aalt_arab_FAR_Lookup_01"  {"gsub_alternate_dfl_aalt_arab_FAR_Lookup_01_Subtable_01"  } ['aalt' ('arab' <'FAR ' > ) ]
Lookup: 1 1 0 "gsub_single_rtl_fina_arab_FAR_Lookup_01"  {"gsub_single_rtl_fina_arab_FAR_Lookup_01_Subtable_01"  } ['fina' ('arab' <'FAR ' > ) ]
Lookup: 1 1 0 "gsub_single_rtl_init_arab_FAR_Lookup_01"  {"gsub_single_rtl_init_arab_FAR_Lookup_01_Subtable_01"  } ['init' ('arab' <'FAR ' > ) ]
Lookup: 1 1 0 "gsub_single_rtl_medi_arab_FAR_Lookup_01"  {"gsub_single_rtl_medi_arab_FAR_Lookup_01_Subtable_01"  } ['medi' ('arab' <'FAR ' > ) ]

StartChar: .notdef
Encoding: 65536 -1 0
Width: 1122
GlyphClass: 2
Flags: W
LayerCount: 2
Fore
SplineSet
624 299 m 0,0,1
 624 269 624 269 602 246.5 c 128,-1,2
 580 224 580 224 548 224 c 0,3,4
 518 224 518 224 496.5 246.5 c 128,-1,5
 475 269 475 269 475 299 c 0,6,7
 475 331 475 331 496.5 352.5 c 128,-1,8
 518 374 518 374 551 374 c 0,9,10
 581 374 581 374 602.5 352.5 c 128,-1,11
 624 331 624 331 624 299 c 0,0,1
732 780 m 0,12,13
 732 737 732 737 708.5 710 c 128,-1,14
 685 683 685 683 648 683 c 0,15,16
 616 683 616 683 597 701.5 c 128,-1,17
 578 720 578 720 578 749 c 0,18,19
 578 770 578 770 588 785 c 128,-1,20
 598 800 598 800 610.5 810.5 c 128,-1,21
 623 821 623 821 633 829 c 128,-1,22
 643 837 643 837 643 843 c 0,23,24
 643 863 643 863 623.5 875 c 128,-1,25
 604 887 604 887 574 887 c 0,26,27
 536 887 536 887 512 866 c 128,-1,28
 488 845 488 845 488 813 c 0,29,30
 488 795 488 795 498.5 769 c 128,-1,31
 509 743 509 743 521.5 718 c 128,-1,32
 534 693 534 693 545.5 673 c 128,-1,33
 557 653 557 653 559 648 c 0,34,35
 570 619 570 619 576.5 583.5 c 128,-1,36
 583 548 583 548 583 513 c 0,37,38
 583 492 583 492 581.5 470.5 c 128,-1,39
 580 449 580 449 578 424 c 1,40,-1
 539 424 l 1,41,-1
 539 442 l 1,42,-1
 543 472 l 1,43,44
 543 505 543 505 498 544 c 0,45,46
 425 609 425 609 416 620 c 0,47,48
 371 673 371 673 371 740 c 0,49,50
 371 781 371 781 386 815.5 c 128,-1,51
 401 850 401 850 426.5 875.5 c 128,-1,52
 452 901 452 901 486.5 915 c 128,-1,53
 521 929 521 929 560 929 c 0,54,55
 595 929 595 929 626.5 918.5 c 128,-1,56
 658 908 658 908 681.5 888.5 c 128,-1,57
 705 869 705 869 718.5 841.5 c 128,-1,58
 732 814 732 814 732 780 c 0,12,13
132 31 m 1,59,-1
 992 31 l 1,60,-1
 992 1122 l 1,61,-1
 132 1122 l 1,62,-1
 132 31 l 1,59,-1
100 0 m 1,63,-1
 100 1154 l 1,64,-1
 1022 1154 l 1,65,-1
 1022 0 l 1,66,-1
 100 0 l 1,63,-1
EndSplineSet
EndChar

StartChar: exclam
Encoding: 33 33 4
Width: 618
VWidth: 1639
GlyphClass: 2
Flags: W
LayerCount: 2
Fore
SplineSet
290.240234375 1170.95996094 m 1,0,1
 295.16015625 1162.75976562 295.16015625 1162.75976562 298.440429688 1152.91992188 c 0,2,3
 301.719726562 1143.08007812 301.719726562 1143.08007812 305.8203125 1123.40039062 c 2,4,-1
 309.919921875 1103.71972656 l 1,2,3
 325.549804688 1051.65625 325.549804688 1051.65625 349.280273438 939.719726562 c 0,4,5
 418.006835938 626.510742188 418.006835938 626.510742188 418.16015625 259.120117188 c 1,6,-1
 232.83984375 247.639648438 l 1,7,8
 232.508789062 560.336914062 232.508789062 560.336914062 177.080078125 831.48046875 c 0,9,10
 158.520507812 923.6171875 158.520507812 923.6171875 129.520507812 1026.63964844 c 0,11,12
 126.240234375 1037.02636719 126.240234375 1037.02636719 118.951171875 1057.79980469 c 0,13,14
 104.40625 1099.89355469 104.40625 1099.89355469 100 1120.12011719 c 1,13,-1
 290.240234375 1170.95996094 l 1,0,1
229.560546875 186.959960938 m 1,14,-1
 418.16015625 190.240234375 l 1,15,-1
 409.959960938 -4.919921875 l 1,16,-1
 218.080078125 -4.919921875 l 1,17,-1
 229.560546875 186.959960938 l 1,14,-1
EndSplineSet
EndChar

StartChar: percent
Encoding: 37 37 8
Width: 1139
VWidth: 1639
GlyphClass: 2
Flags: W
LayerCount: 2
Fore
SplineSet
851.520507812 1157.83984375 m 1,0,1
 862.28125 1153.10546875 862.28125 1153.10546875 953.442382812 1099.08886719 c 0,2,3
 963.749023438 1093.06054688 963.749023438 1093.06054688 971.240234375 1088.95996094 c 0,2,3
 1005.62304688 1068.33007812 1005.62304688 1068.33007812 1005.96582031 1067.95996094 c 0,4,5
 1008.20800781 1064.44433594 1008.20800781 1064.44433594 1008.95996094 1062.71972656 c 0,4,5
 1009.46386719 1056.25878906 1009.46386719 1056.25878906 1000.76074219 1039.75976562 c 1,6,7
 990.78125 1012.7109375 990.78125 1012.7109375 977.80078125 984 c 0,8,9
 918.422851562 846.920898438 918.422851562 846.920898438 877.760742188 772.440429688 c 0,10,11
 649.899414062 350.216796875 649.899414062 350.216796875 469.400390625 98.400390625 c 0,12,13
 405.490234375 8.1689453125 405.490234375 8.1689453125 344.760742188 -63.9599609375 c 0,14,15
 339.020507812 -70.51953125 339.020507812 -70.51953125 327.540039062 -84.4599609375 c 0,16,17
 315.6015625 -98.8671875 315.6015625 -98.8671875 310.3203125 -104.959960938 c 0,16,17
 308.5546875 -106.725585938 308.5546875 -106.725585938 304.947265625 -111.627929688 c 0,18,19
 297.360351562 -120.588867188 297.360351562 -120.588867188 293.919921875 -123 c 1,18,19
 286.892578125 -124.372070312 286.892578125 -124.372070312 251.280273438 -101.6796875 c 0,20,21
 139.681640625 -32.9033203125 139.681640625 -32.9033203125 125 -22.9599609375 c 1,22,23
 132.537109375 -7.8857421875 132.537109375 -7.8857421875 181.422851562 51.26171875 c 0,24,25
 189.103515625 60.7490234375 189.103515625 60.7490234375 193.880859375 67.240234375 c 0,24,25
 272.114257812 169.038085938 272.114257812 169.038085938 339.840820312 262.400390625 c 0,26,27
 571.2578125 581.4453125 571.2578125 581.4453125 718.680664062 869.200195312 c 0,28,29
 769.638671875 966.30859375 769.638671875 966.30859375 808.880859375 1056.16015625 c 0,30,31
 846.188476562 1139.66015625 846.188476562 1139.66015625 851.520507812 1157.83984375 c 1,0,1
315.240234375 1066 m 1,32,33
 392.059570312 1076.14550781 392.059570312 1076.14550781 445.705078125 1006.52148438 c 0,34,35
 479.555664062 960.807617188 479.555664062 960.807617188 479.240234375 910.200195312 c 0,34,35
 477.421875 824.73046875 477.421875 824.73046875 405.80859375 778.85546875 c 0,36,37
 375.9296875 760.625976562 375.9296875 760.625976562 343.120117188 756.040039062 c 0,36,37
 250.736328125 745.420898438 250.736328125 745.420898438 198.67578125 824.322265625 c 0,38,39
 148.254882812 900.73828125 148.254882812 900.73828125 185.557617188 979.538085938 c 0,40,41
 196.041992188 1001.68554688 196.041992188 1001.68554688 213.560546875 1020.08007812 c 0,38,39
 247.668945312 1054.50292969 247.668945312 1054.50292969 315.240234375 1066 c 1,32,33
844.959960938 205 m 1,40,41
 872.020507812 207.459960938 872.020507812 207.459960938 899.080078125 200.080078125 c 0,42,43
 983.166992188 180.109375 983.166992188 180.109375 1007.44824219 97.0791015625 c 0,44,45
 1032.65332031 10.8876953125 1032.65332031 10.8876953125 974.411132812 -55.4091796875 c 0,46,47
 961.004882812 -69.892578125 961.004882812 -69.892578125 946.640625 -80.3603515625 c 1,44,45
 914.149414062 -99.53515625 914.149414062 -99.53515625 876.120117188 -104.959960938 c 1,46,47
 847.1484375 -107.0234375 847.1484375 -107.0234375 820.360351562 -100.040039062 c 0,48,49
 736.231445312 -77.3896484375 736.231445312 -77.3896484375 713.948242188 7.1318359375 c 0,50,51
 691.015625 94.1123046875 691.015625 94.1123046875 750.83984375 157.794921875 c 0,52,53
 760.838867188 168.4375 760.838867188 168.4375 772.80078125 177.120117188 c 0,50,51
 798.96875 196.212890625 798.96875 196.212890625 844.959960938 205 c 1,40,41
EndSplineSet
EndChar

StartChar: parenleft
Encoding: 40 40 11
Width: 611
VWidth: 1639
GlyphClass: 2
Flags: W
LayerCount: 2
Fore
SplineSet
363.094726562 1326.75976562 m 1,0,1
 375.866210938 1319.60058594 375.866210938 1319.60058594 412.294921875 1285.75976562 c 0,2,3
 421.263671875 1277.3515625 421.263671875 1277.3515625 441.66796875 1260.78320312 c 0,4,5
 481.958007812 1227.35839844 481.958007812 1227.35839844 495.935546875 1208.6796875 c 1,4,5
 407.2734375 1095.77929688 407.2734375 1095.77929688 346.6953125 911.83984375 c 0,6,7
 267.341796875 673.780273438 267.341796875 673.780273438 276.174804688 477.240234375 c 0,8,9
 283.385742188 323.833984375 283.385742188 323.833984375 340.134765625 147.599609375 c 1,10,11
 386.143554688 13.169921875 386.143554688 13.169921875 441.815429688 -91.83984375 c 1,12,13
 471.670898438 -141.490234375 471.670898438 -141.490234375 486.094726562 -164 c 0,14,15
 488.380859375 -167.428710938 488.380859375 -167.428710938 495.106445312 -175.2734375 c 0,16,17
 508.09375 -191.404296875 508.09375 -191.404296875 510.6953125 -198.440429688 c 0,16,17
 511.780273438 -204.950195312 511.780273438 -204.950195312 483.982421875 -224.78515625 c 0,18,19
 479.540039062 -228.201171875 479.540039062 -228.201171875 477.895507812 -229.599609375 c 0,18,19
 465.0625 -238.932617188 465.0625 -238.932617188 439.249023438 -260.626953125 c 0,20,21
 391.10546875 -300.51953125 391.10546875 -300.51953125 366.375 -313.240234375 c 1,20,21
 356.810546875 -298.209960938 356.810546875 -298.209960938 337.063476562 -268.646484375 c 0,22,23
 308.932617188 -226.383789062 308.932617188 -226.383789062 295.85546875 -205 c 0,22,23
 203.6953125 -40.0419921875 203.6953125 -40.0419921875 164.655273438 88.5595703125 c 0,24,25
 35.9951171875 503.856445312 35.9951171875 503.856445312 163.361328125 921.966796875 c 0,26,27
 231.276367188 1142.86621094 231.276367188 1142.86621094 363.094726562 1326.75976562 c 1,0,1
EndSplineSet
EndChar

StartChar: parenright
Encoding: 41 41 12
Width: 712
VWidth: 1639
GlyphClass: 2
Flags: W
LayerCount: 2
Fore
SplineSet
244.3203125 -313.240234375 m 1,0,1
 224.5234375 -303.341796875 224.5234375 -303.341796875 151.918945312 -244.40234375 c 0,2,3
 140.631835938 -235.369140625 140.631835938 -235.369140625 132.799804688 -229.599609375 c 0,2,3
 130.842773438 -227.642578125 130.842773438 -227.642578125 122.581054688 -221.883789062 c 0,4,5
 100.740234375 -205.155273438 100.740234375 -205.155273438 100 -198.440429688 c 1,4,5
 103.423828125 -187.748046875 103.423828125 -187.748046875 127.879882812 -159.080078125 c 1,6,7
 160.514648438 -108.271484375 160.514648438 -108.271484375 178.719726562 -72.16015625 c 0,8,9
 246.135742188 56.484375 246.135742188 56.484375 290.240234375 211.559570312 c 1,10,11
 330.109375 363.918945312 330.109375 363.918945312 334.520507812 478.879882812 c 0,12,13
 345.040039062 721.25 345.040039062 721.25 229.560546875 1003.6796875 c 0,14,15
 201.80859375 1072.31738281 201.80859375 1072.31738281 159.040039062 1144.71972656 c 0,16,17
 154.381835938 1152.70605469 154.381835938 1152.70605469 141.73828125 1168.78710938 c 0,18,19
 123.08203125 1193.34765625 123.08203125 1193.34765625 118.040039062 1205.40039062 c 0,18,19
 116.400390625 1210.3203125 116.400390625 1210.3203125 120.5 1216.87988281 c 0,20,21
 124.600585938 1223.44042969 124.600585938 1223.44042969 134.440429688 1230.8203125 c 2,22,-1
 144.280273438 1238.20019531 l 2,20,21
 155.759765625 1248.04003906 155.759765625 1248.04003906 178.719726562 1268.54003906 c 0,22,23
 202.2265625 1289.47265625 202.2265625 1289.47265625 213.16015625 1298.87988281 c 0,22,23
 237.899414062 1322.51367188 237.899414062 1322.51367188 247.600585938 1326.75976562 c 1,24,25
 370.609375 1142.7890625 370.609375 1142.7890625 429.639648438 977.440429688 c 0,26,27
 572.317382812 577.022460938 572.317382812 577.022460938 466.5390625 160.96484375 c 0,28,29
 456.95703125 123.645507812 456.95703125 123.645507812 446.040039062 88.5595703125 c 0,28,29
 399.5390625 -57.0341796875 399.5390625 -57.0341796875 321.400390625 -193.51953125 c 0,30,31
 309.100585938 -214.01953125 309.100585938 -214.01953125 282.860351562 -253.379882812 c 0,32,33
 256.326171875 -293.344726562 256.326171875 -293.344726562 244.3203125 -313.240234375 c 1,0,1
EndSplineSet
EndChar

StartChar: plus
Encoding: 43 43 14
Width: 844
VWidth: 1639
GlyphClass: 2
Flags: W
LayerCount: 2
Fore
SplineSet
483.600585938 769.16015625 m 1,0,1
 489.359375 755.173828125 489.359375 755.173828125 494.177734375 679.758789062 c 0,2,3
 494.6640625 673.206054688 494.6640625 673.206054688 495.080078125 669.120117188 c 0,2,3
 506.482421875 564.860351562 506.482421875 564.860351562 506.560546875 447.719726562 c 1,4,5
 562.653320312 447.719726562 562.653320312 447.719726562 823.087890625 427.401367188 c 0,6,7
 830.59375 426.821289062 830.59375 426.821289062 836.200195312 426.400390625 c 1,6,-1
 831.280273438 362.440429688 l 1,7,-1
 823.080078125 262.400390625 l 1,8,-1
 706.639648438 273.879882812 l 1,9,-1
 504.919921875 285.360351562 l 1,10,11
 504.756835938 216.07421875 504.756835938 216.07421875 486.879882812 37.7197265625 c 0,12,13
 485.581054688 25.3759765625 485.581054688 25.3759765625 480.913085938 0.1181640625 c 0,14,15
 473.759765625 -38.583984375 473.759765625 -38.583984375 473.759765625 -57.400390625 c 1,14,-1
 313.040039062 -41 l 1,15,16
 313.955078125 -24.5224609375 313.955078125 -24.5224609375 320.884765625 9.396484375 c 0,17,18
 326.311523438 36.6708984375 326.311523438 36.6708984375 327.799804688 49.2001953125 c 0,17,18
 344.080078125 181.068359375 344.080078125 181.068359375 344.200195312 285.360351562 c 1,19,20
 269.88671875 285.360351562 269.88671875 285.360351562 39.150390625 256.045898438 c 0,21,22
 30.724609375 254.981445312 30.724609375 254.981445312 24.400390625 254.200195312 c 1,21,-1
 16.2001953125 336.200195312 l 1,22,-1
 8 413.280273438 l 1,23,24
 177.813476562 445.913085938 177.813476562 445.913085938 344.200195312 446.080078125 c 1,25,26
 343.9921875 579.181640625 343.9921875 579.181640625 321.240234375 756.040039062 c 1,27,-1
 442.600585938 765.879882812 l 1,28,-1
 483.600585938 769.16015625 l 1,0,1
EndSplineSet
EndChar

StartChar: hyphen
Encoding: 45 45 16
AltUni2: 002212.ffffffff.0 0000ad.ffffffff.0
Width: 1068
VWidth: 1639
GlyphClass: 2
Flags: W
LayerCount: 2
Fore
SplineSet
120 413.280273438 m 1,0,1
 367.427734375 459.176757812 367.427734375 459.176757812 738.280273438 444.440429688 c 0,2,3
 773.540039062 442.799804688 773.540039062 442.799804688 843.240234375 435.419921875 c 0,4,5
 913.50390625 428.077148438 913.50390625 428.077148438 948.200195312 426.400390625 c 1,4,-1
 941.639648438 342.759765625 l 1,5,-1
 935.080078125 262.400390625 l 1,6,7
 924.018554688 262.400390625 924.018554688 262.400390625 794.040039062 276.4765625 c 0,8,9
 789.895507812 276.913085938 789.895507812 276.913085938 787.48046875 277.16015625 c 0,8,9
 643.466796875 289.407226562 643.466796875 289.407226562 498.83984375 287 c 0,10,11
 378.299804688 284.540039062 378.299804688 284.540039062 257.759765625 272.240234375 c 0,12,13
 242.915039062 270.384765625 242.915039062 270.384765625 212.177734375 264.317382812 c 0,14,15
 160.4375 254.413085938 160.4375 254.413085938 136.400390625 254.200195312 c 1,14,-1
 126.560546875 350.959960938 l 1,15,-1
 120 413.280273438 l 1,0,1
EndSplineSet
EndChar

StartChar: period
Encoding: 46 46 17
Width: 608
VWidth: 1639
GlyphClass: 2
Flags: W
LayerCount: 2
Fore
SplineSet
239.26953125 308.3203125 m 1,0,1
 266.853515625 310.471679688 266.853515625 310.471679688 291.75 303.400390625 c 0,2,3
 374.73828125 283.690429688 374.73828125 283.690429688 399.930664062 200.756835938 c 0,4,5
 426.170898438 114.375 426.170898438 114.375 369.056640625 49.787109375 c 0,6,7
 354.24609375 33.939453125 354.24609375 33.939453125 337.669921875 22.9599609375 c 0,4,5
 311.677734375 5.65625 311.677734375 5.65625 280.26953125 0 c 1,6,7
 215.95703125 -6.9267578125 215.95703125 -6.9267578125 168.75 22.9599609375 c 1,8,9
 95.220703125 72.8544921875 95.220703125 72.8544921875 100.33203125 163.056640625 c 1,10,11
 106.536132812 242.159179688 106.536132812 242.159179688 170.389648438 283.719726562 c 0,10,11
 199.216796875 302.703125 199.216796875 302.703125 239.26953125 308.3203125 c 1,0,1
EndSplineSet
EndChar

StartChar: slash
Encoding: 47 47 18
Width: 801
VWidth: 1639
GlyphClass: 2
Flags: W
LayerCount: 2
Fore
SplineSet
624.559570312 1023.36035156 m 1,0,-1
 791.83984375 943 l 1,1,2
 786.095703125 917.0859375 786.095703125 917.0859375 749.200195312 806.879882812 c 1,3,4
 706.950195312 689.827148438 706.950195312 689.827148438 652.440429688 562.51953125 c 0,5,6
 507.138671875 222.344726562 507.138671875 222.344726562 340.83984375 -57.400390625 c 0,7,8
 281.705078125 -156.661132812 281.705078125 -156.661132812 227.6796875 -237.799804688 c 0,9,10
 220.299804688 -249.280273438 220.299804688 -249.280273438 203.900390625 -271.419921875 c 0,11,12
 187.213867188 -294.157226562 187.213867188 -294.157226562 180.120117188 -305.040039062 c 1,11,-1
 3 -216.48046875 l 1,12,13
 16.984375 -191.508789062 16.984375 -191.508789062 49.6591796875 -143.01953125 c 0,14,15
 70.7529296875 -111.6015625 70.7529296875 -111.6015625 80.080078125 -96.759765625 c 0,14,15
 158.962890625 26.1025390625 158.962890625 26.1025390625 209.639648438 113.16015625 c 0,16,17
 510.506835938 625.234375 510.506835938 625.234375 624.559570312 1023.36035156 c 1,0,-1
EndSplineSet
EndChar

StartChar: colon
Encoding: 58 58 29
Width: 609
VWidth: 1639
GlyphClass: 2
Flags: W
LayerCount: 2
Fore
SplineSet
234.935546875 705.200195312 m 1,0,1
 261.92578125 707.235351562 261.92578125 707.235351562 292.3359375 701.919921875 c 1,2,3
 376.14453125 680.967773438 376.14453125 680.967773438 400.846679688 597.88671875 c 0,4,5
 426.565429688 511.3828125 426.565429688 511.3828125 368.1796875 445.860351562 c 0,6,7
 353.912109375 430.669921875 353.912109375 430.669921875 338.255859375 419.83984375 c 0,4,5
 308.567382812 401.791015625 308.567382812 401.791015625 279.215820312 396.879882812 c 0,6,7
 221.678710938 389.745117188 221.678710938 389.745117188 179.17578125 414.919921875 c 0,8,9
 106.77734375 455.64453125 106.77734375 455.64453125 100.286132812 540.958007812 c 0,10,11
 97.1552734375 597.602539062 97.1552734375 597.602539062 128.3359375 641.240234375 c 1,10,11
 148.428710938 665.989257812 148.428710938 665.989257812 170.975585938 682.240234375 c 1,12,13
 203.26953125 700.311523438 203.26953125 700.311523438 234.935546875 705.200195312 c 1,0,1
239.85546875 308.3203125 m 1,14,15
 267.439453125 310.471679688 267.439453125 310.471679688 292.3359375 303.400390625 c 0,16,17
 375.32421875 283.690429688 375.32421875 283.690429688 400.516601562 200.756835938 c 0,18,19
 426.756835938 114.375 426.756835938 114.375 369.642578125 49.787109375 c 0,20,21
 354.83203125 33.939453125 354.83203125 33.939453125 338.255859375 22.9599609375 c 0,18,19
 312.263671875 5.65625 312.263671875 5.65625 280.85546875 0 c 1,20,21
 216.54296875 -6.9267578125 216.54296875 -6.9267578125 169.3359375 22.9599609375 c 1,22,23
 95.806640625 72.8544921875 95.806640625 72.8544921875 100.91796875 163.056640625 c 1,24,25
 107.122070312 242.159179688 107.122070312 242.159179688 170.975585938 283.719726562 c 0,24,25
 199.802734375 302.703125 199.802734375 302.703125 239.85546875 308.3203125 c 1,14,15
EndSplineSet
EndChar

StartChar: equal
Encoding: 61 61 32
Width: 844
VWidth: 1639
GlyphClass: 2
Flags: W
LayerCount: 2
Fore
SplineSet
8 551.040039062 m 1,0,1
 255.651367188 596.98046875 255.651367188 596.98046875 624.639648438 582.200195312 c 0,2,3
 659.900390625 580.559570312 659.900390625 580.559570312 730.419921875 573.1796875 c 0,4,5
 801.486328125 565.836914062 801.486328125 565.836914062 836.200195312 564.16015625 c 1,4,-1
 829.639648438 480.51953125 l 1,5,-1
 823.080078125 400.16015625 l 1,6,7
 803.50390625 400.16015625 803.50390625 400.16015625 654.16015625 415.67578125 c 0,8,9
 638.458007812 417.26171875 638.458007812 417.26171875 626.280273438 418.200195312 c 0,8,9
 435.237304688 430.393554688 435.237304688 430.393554688 245.799804688 418.200195312 c 0,10,11
 94.33984375 407.579101562 94.33984375 407.579101562 26.0400390625 390.3203125 c 1,12,-1
 8 551.040039062 l 1,0,1
8 265.6796875 m 1,13,14
 123.090820312 287.368164062 123.090820312 287.368164062 324.520507812 296.83984375 c 0,15,16
 520.294921875 305.28515625 520.294921875 305.28515625 659.080078125 295.200195312 c 0,17,18
 688.600585938 292.740234375 688.600585938 292.740234375 747.639648438 287 c 0,19,20
 807.2265625 281.229492188 807.2265625 281.229492188 836.200195312 278.799804688 c 1,19,-1
 829.639648438 195.16015625 l 1,20,-1
 823.080078125 114.799804688 l 1,21,22
 813.837890625 115.23046875 813.837890625 115.23046875 677.120117188 129.559570312 c 0,23,24
 549.283203125 142.153320312 549.283203125 142.153320312 380.280273438 139.400390625 c 0,25,26
 248.501953125 136.328125 248.501953125 136.328125 157.240234375 126.280273438 c 0,27,28
 138.790039062 124.23046875 138.790039062 124.23046875 101.889648438 117.283203125 c 0,29,30
 49.68359375 107.696289062 49.68359375 107.696289062 24.400390625 106.599609375 c 1,29,-1
 14.560546875 203.360351562 l 1,30,-1
 8 265.6796875 l 1,13,14
EndSplineSet
EndChar

StartChar: bracketleft
Encoding: 91 91 62
Width: 520
VWidth: 1639
GlyphClass: 2
Flags: W
LayerCount: 2
Fore
SplineSet
100 1517 m 1,0,-1
 419.799804688 1517 l 1,1,-1
 419.799804688 1456.3203125 l 1,2,-1
 241.040039062 1456.3203125 l 1,3,-1
 241.040039062 -39.3603515625 l 1,4,-1
 419.799804688 -39.3603515625 l 1,5,-1
 419.799804688 -101.6796875 l 1,6,-1
 100 -101.6796875 l 1,7,-1
 100 1517 l 1,0,-1
EndSplineSet
EndChar

StartChar: bracketright
Encoding: 93 93 64
Width: 579
VWidth: 1639
GlyphClass: 2
Flags: W
LayerCount: 2
Fore
SplineSet
100 1515.36035156 m 1,0,-1
 378.799804688 1515.36035156 l 1,1,-1
 378.799804688 -101.6796875 l 1,2,-1
 100 -101.6796875 l 1,3,-1
 100 -39.3603515625 l 1,4,-1
 239.400390625 -39.3603515625 l 1,5,-1
 239.400390625 1454.6796875 l 1,6,-1
 100 1454.6796875 l 1,7,-1
 100 1515.36035156 l 1,0,-1
EndSplineSet
EndChar

StartChar: guillemotleft
Encoding: 171 171 175
Width: 930
VWidth: 1639
GlyphClass: 2
Flags: W
LayerCount: 2
Fore
SplineSet
574.326171875 911.83984375 m 1,0,-1
 718.646484375 782.280273438 l 1,1,2
 709.896484375 767.112304688 709.896484375 767.112304688 690.716796875 737.580078125 c 0,3,4
 655.818359375 683.258789062 655.818359375 683.258789062 643.206054688 654.360351562 c 0,3,4
 559.932617188 462.048828125 559.932617188 462.048828125 638.286132812 270.599609375 c 0,5,6
 649.51171875 243.33984375 649.51171875 243.33984375 711.443359375 145.802734375 c 0,7,8
 722.668945312 127.940429688 722.668945312 127.940429688 730.126953125 114.799804688 c 1,7,-1
 623.526367188 36.080078125 l 1,8,-1
 572.686523438 0 l 1,9,10
 448.841796875 171.9609375 448.841796875 171.9609375 416.88671875 342.759765625 c 0,11,12
 373.213867188 584.944335938 373.213867188 584.944335938 518.765625 829.599609375 c 0,13,14
 544.876953125 873.053710938 544.876953125 873.053710938 574.326171875 911.83984375 c 1,0,-1
264.366210938 910.200195312 m 1,13,14
 269.286132812 908.559570312 269.286132812 908.559570312 272.56640625 906.099609375 c 0,15,16
 275.846679688 903.639648438 275.846679688 903.639648438 280.766601562 899.540039062 c 0,17,18
 285.686523438 895.440429688 285.686523438 895.440429688 287.326171875 893.799804688 c 0,19,20
 288.966796875 892.16015625 288.966796875 892.16015625 295.526367188 885.599609375 c 2,21,-1
 302.086914062 879.040039062 l 1,15,16
 351.833007812 835.819335938 351.833007812 835.819335938 375.88671875 813.440429688 c 0,17,18
 406.545898438 787.48828125 406.545898438 787.48828125 408.686523438 780.639648438 c 1,19,20
 407.831054688 773.098632812 407.831054688 773.098632812 389.006835938 749.48046875 c 0,21,22
 367.161132812 719.208984375 367.161132812 719.208984375 341.446289062 670.759765625 c 1,23,24
 288.483398438 560.583984375 288.483398438 560.583984375 290.606445312 437.879882812 c 0,25,26
 293.787109375 329.6171875 293.787109375 329.6171875 356.206054688 218.120117188 c 1,27,28
 386.170898438 168.469726562 386.170898438 168.469726562 402.126953125 145.959960938 c 0,29,30
 420.166015625 121.90625 420.166015625 121.90625 420.166015625 116.440429688 c 1,31,32
 416.729492188 109.259765625 416.729492188 109.259765625 382.446289062 85.2802734375 c 0,33,34
 368.107421875 75.123046875 368.107421875 75.123046875 339.765625 52.9912109375 c 0,35,36
 289.173828125 13.8291015625 289.173828125 13.8291015625 262.7265625 -1.6396484375 c 1,35,36
 99.3994140625 210.295898438 99.3994140625 210.295898438 100.001953125 457.375976562 c 0,37,38
 100.717773438 550.842773438 100.717773438 550.842773438 126.606445312 636.3203125 c 0,37,38
 154.450195312 730.678710938 154.450195312 730.678710938 257.5625 899.080078125 c 0,39,40
 262.000976562 906.330078125 262.000976562 906.330078125 264.366210938 910.200195312 c 1,13,14
EndSplineSet
EndChar

StartChar: guillemotright
Encoding: 187 187 176
Width: 930
VWidth: 1639
GlyphClass: 2
Flags: W
LayerCount: 2
Fore
SplineSet
254.16015625 910.200195312 m 1,0,1
 261.83203125 902.809570312 261.83203125 902.809570312 286.959960938 864.280273438 c 0,2,3
 312.484375 824.6171875 312.484375 824.6171875 344.360351562 760.959960938 c 0,4,5
 417.783203125 615.0625 417.783203125 615.0625 423.080078125 460.83984375 c 1,6,7
 426.465820312 235.163085938 426.465820312 235.163085938 257.439453125 -1.6396484375 c 1,8,-1
 206.599609375 34.4404296875 l 1,9,-1
 100 113.16015625 l 1,10,-1
 100 114.799804688 l 1,11,12
 226.514648438 275.051757812 226.514648438 275.051757812 231.200195312 446.080078125 c 0,13,14
 232.813476562 512.252929688 232.813476562 512.252929688 206.599609375 600.240234375 c 0,15,16
 190.2734375 655.672851562 190.2734375 655.672851562 145.919921875 729.799804688 c 1,17,18
 121.3203125 764.240234375 l 1,19,20
 114.7578125 779.580078125 114.7578125 779.580078125 114.759765625 779 c 1,21,22
 114.759765625 785.559570312 114.759765625 785.559570312 121.3203125 791.299804688 c 0,23,24
 127.879882812 797.040039062 127.879882812 797.040039062 139.360351562 806.059570312 c 2,25,-1
 150.83984375 815.080078125 l 1,23,24
 237.651367188 893.768554688 237.651367188 893.768554688 254.16015625 910.200195312 c 1,0,1
565.759765625 908.559570312 m 1,25,26
 577.434570312 888.12890625 577.434570312 888.12890625 602.463867188 848.071289062 c 0,27,28
 647.970703125 774.790039062 647.970703125 774.790039062 665.799804688 736.360351562 c 0,27,28
 782.557617188 477.036132812 782.557617188 477.036132812 687.120117188 218.120117188 c 0,29,30
 658.416992188 137.676757812 658.416992188 137.676757812 600.200195312 45.919921875 c 0,31,32
 596.099609375 39.3603515625 596.099609375 39.3603515625 587.900390625 27.0595703125 c 0,33,34
 579.34375 14.126953125 579.34375 14.126953125 575.599609375 8.2001953125 c 0,33,34
 566.796875 -0.7451171875 566.796875 -0.7451171875 562.479492188 0 c 0,35,36
 557.44140625 2.4033203125 557.44140625 2.4033203125 523.120117188 27.8798828125 c 0,37,38
 510 37.7197265625 510 37.7197265625 484.580078125 56.580078125 c 0,39,40
 458.569335938 75.8916015625 458.569335938 75.8916015625 446.040039062 85.2802734375 c 0,39,40
 413.150390625 106.161132812 413.150390625 106.161132812 409.959960938 114.799804688 c 1,41,42
 410.8671875 121.370117188 410.8671875 121.370117188 429.639648438 144.3203125 c 1,43,44
 447.0078125 170.536132812 447.0078125 170.536132812 475.559570312 218.120117188 c 1,45,46
 536.490234375 327.702148438 536.490234375 327.702148438 539.51953125 439.51953125 c 0,47,48
 541.34765625 565.220703125 541.34765625 565.220703125 487.040039062 672.400390625 c 0,49,50
 467.0859375 711.581054688 467.0859375 711.581054688 439.479492188 749.48046875 c 0,51,52
 421.897460938 772.923828125 421.897460938 772.923828125 421.46484375 775.612304688 c 0,53,54
 421.444335938 778.140625 421.444335938 778.140625 421.439453125 779 c 0,53,54
 424 788.609375 424 788.609375 454.240234375 811.799804688 c 0,55,56
 466.540039062 822.459960938 466.540039062 822.459960938 490.3203125 843.780273438 c 0,57,58
 514.693359375 865.584960938 514.693359375 865.584960938 526.400390625 875.759765625 c 0,57,58
 554.72265625 903.107421875 554.72265625 903.107421875 565.759765625 908.559570312 c 1,25,26
EndSplineSet
EndChar

StartChar: guilsinglleft
Encoding: 8249 8249 195
Width: 566
GlyphClass: 2
Flags: W
LayerCount: 2
Fore
SplineSet
350 70 m 1,0,1
 363 48 363 48 363 35 c 0,2,3
 363 26 363 26 352 26 c 0,4,5
 343 26 343 26 326 33 c 1,6,7
 273 73 273 73 230 128 c 128,-1,8
 187 183 187 183 155 255 c 0,9,10
 126 321 126 321 113.5 385 c 128,-1,11
 101 449 101 449 100 513 c 1,12,13
 100 656 100 656 164 783 c 1,14,15
 231 904 231 904 327 958 c 1,16,17
 354 969 354 969 358 969 c 0,18,19
 366 969 366 969 366 963 c 0,20,21
 366 953 366 953 343 912 c 1,22,23
 224 746 224 746 224 513 c 0,24,25
 224 249 224 249 350 70 c 1,0,1
EndSplineSet
EndChar

StartChar: guilsinglright
Encoding: 8250 8250 196
Width: 569
GlyphClass: 2
Flags: W
LayerCount: 2
Fore
SplineSet
115 70 m 1,0,1
 244 249 244 249 244 513 c 0,2,3
 244 751 244 751 122 913 c 1,4,5
 100 954 100 954 100 963 c 0,6,7
 100 969 100 969 108 969 c 0,8,9
 110 969 110 969 118 966.5 c 128,-1,10
 126 964 126 964 137 958 c 0,11,12
 188 931 188 931 228.5 887 c 128,-1,13
 269 843 269 843 301 783 c 0,14,15
 336 718 336 718 352 650.5 c 128,-1,16
 368 583 368 583 369 513 c 0,17,18
 369 450 369 450 353.5 385 c 128,-1,19
 338 320 338 320 309 255 c 0,20,21
 279 188 279 188 235 130 c 128,-1,22
 191 72 191 72 138 33 c 1,23,24
 124 26 124 26 113 26 c 0,25,26
 101 26 101 26 101 35 c 0,27,28
 101 47 101 47 115 70 c 1,0,1
EndSplineSet
EndChar

StartChar: afii57451
Encoding: 1611 1611 311
AltUni2: 00fe70.ffffffff.0
Width: 79
VWidth: 1639
GlyphClass: 2
Flags: HW
AnchorPoint: "GposMark2BaseAnchorHamzaErabAbove_01_01" 217.26 1398.92 mark 0
AnchorPoint: "GposMark2BaseAnchorHamzaErabBelow_01_01" 217.26 1953.24 mark 0
AnchorPoint: "GposMark2BaseAnchorClassErabAbove_01_02" 217.26 1398.92 mark 0
AnchorPoint: "GposMark2MarkAnchorHamzaErabAbove_01_01" 217.26 1398.92 mark 0
AnchorPoint: "GposMark2MarkAnchorHamzaErabBelow_01_01" 217.26 1953.24 mark 0
AnchorPoint: "GposMark2MarkAnchorShaddaErabAbove_01_02" 217.26 1398.92 mark 0
AnchorPoint: "GposMark2MarkAnchorShaddaErabBelow_01_02" 217.26 1953.24 mark 0
LayerCount: 2
Fore
SplineSet
423.719726562 1953.24023438 m 1,0,1
 442.63671875 1927.74414062 442.63671875 1927.74414062 461.440429688 1867.95996094 c 1,2,3
 429.729492188 1859.63867188 429.729492188 1859.63867188 348.280273438 1818.75976562 c 0,4,5
 250.221679688 1770.35742188 250.221679688 1770.35742188 108.83984375 1671.16015625 c 1,6,7
 52.533203125 1628.0078125 52.533203125 1628.0078125 25.2001953125 1605.55957031 c 0,8,9
 -5.7529296875 1579.91015625 -5.7529296875 1579.91015625 -15.7998046875 1576.04003906 c 1,10,-1
 -65 1646.55957031 l 1,11,-1
 -65 1648.20019531 l 1,12,13
 84.2060546875 1778.18261719 84.2060546875 1778.18261719 281.040039062 1886 c 0,14,15
 302.310546875 1897.39453125 302.310546875 1897.39453125 347.040039062 1916.69921875 c 0,16,17
 399.5390625 1939.57324219 399.5390625 1939.57324219 423.719726562 1953.24023438 c 1,0,1
463.080078125 1776.12011719 m 1,18,19
 469.374023438 1766.78710938 469.374023438 1766.78710938 490.959960938 1713.79980469 c 1,20,21
 499.520507812 1698.83007812 499.520507812 1698.83007812 497.51953125 1692.48046875 c 1,22,23
 494.174804688 1688.40039062 494.174804688 1688.40039062 459.799804688 1676.08007812 c 1,24,25
 393.725585938 1646.22753906 393.725585938 1646.22753906 363.040039062 1630.16015625 c 0,26,27
 250.477539062 1571.26367188 250.477539062 1571.26367188 128.51953125 1479.28027344 c 0,28,29
 89.94921875 1450.79882812 89.94921875 1450.79882812 58 1423.51953125 c 0,30,31
 29.5947265625 1400.8671875 29.5947265625 1400.8671875 23.5595703125 1398.91992188 c 1,32,-1
 -25.6396484375 1469.44042969 l 1,33,-1
 -25.6396484375 1471.08007812 l 1,34,35
 105.763671875 1591.24902344 105.763671875 1591.24902344 317.120117188 1707.24023438 c 0,36,37
 340.900390625 1719.54003906 340.900390625 1719.54003906 390.099609375 1741.6796875 c 0,38,39
 439.798828125 1764.14941406 439.798828125 1764.14941406 463.080078125 1776.12011719 c 1,18,19
EndSplineSet
EndChar

StartChar: afii57452
Encoding: 1612 1612 312
AltUni2: 00fe72.ffffffff.0
Width: -86
VWidth: 1639
GlyphClass: 2
Flags: HW
AnchorPoint: "GposMark2BaseAnchorHamzaErabAbove_01_01" 101.897 1397.28 mark 0
AnchorPoint: "GposMark2BaseAnchorHamzaErabBelow_01_01" 101.897 1939.81 mark 0
AnchorPoint: "GposMark2BaseAnchorClassErabAbove_01_02" 101.897 1397.28 mark 0
AnchorPoint: "GposMark2MarkAnchorHamzaErabAbove_01_01" 101.897 1397.28 mark 0
AnchorPoint: "GposMark2MarkAnchorHamzaErabBelow_01_01" 101.897 1939.81 mark 0
AnchorPoint: "GposMark2MarkAnchorShaddaErabAbove_01_02" 101.897 1397.28 mark 0
AnchorPoint: "GposMark2MarkAnchorShaddaErabBelow_01_02" 101.897 1939.81 mark 0
LayerCount: 2
Fore
SplineSet
164.446289062 1561.28027344 m 1,0,1
 90.548828125 1582.76367188 90.548828125 1582.76367188 66.0458984375 1618.6796875 c 0,2,3
 49.77734375 1641.69335938 49.77734375 1641.69335938 52.92578125 1689.20019531 c 1,4,5
 60.88671875 1767.65332031 60.88671875 1767.65332031 108.686523438 1840.08007812 c 0,6,7
 161.956054688 1919.98535156 161.956054688 1919.98535156 199.745117188 1933.15625 c 0,8,9
 222.169921875 1939.81347656 222.169921875 1939.81347656 243.166015625 1933.55957031 c 0,10,11
 276.943359375 1921.16503906 276.943359375 1921.16503906 295.646484375 1876.16015625 c 0,12,13
 319.958984375 1818.21582031 319.958984375 1818.21582031 313.686523438 1715.44042969 c 0,14,15
 304.209960938 1571.94140625 304.209960938 1571.94140625 183.8515625 1475.25683594 c 0,16,17
 85.8193359375 1397.94824219 85.8193359375 1397.94824219 -30.7138671875 1397.28027344 c 1,18,-1
 -35.6337890625 1479.28027344 l 1,19,20
 -14.9189453125 1480.43457031 -14.9189453125 1480.43457031 -9.3935546875 1485.83984375 c 0,21,22
 -6.2900390625 1490.15917969 -6.2900390625 1490.15917969 -2.833984375 1507.16015625 c 1,23,24
 -1.408203125 1562.06933594 -1.408203125 1562.06933594 -15.9541015625 1572.75976562 c 1,25,26
 -32.0537109375 1581.34667969 -32.0537109375 1581.34667969 -77.0029296875 1553.22460938 c 0,27,28
 -90.0625 1545.48144531 -90.0625 1545.48144531 -96.3134765625 1543.24023438 c 1,29,30
 -98.3876953125 1552.57226562 -98.3876953125 1552.57226562 -105.225585938 1570.09863281 c 0,31,32
 -109.4140625 1581.05566406 -109.4140625 1581.05566406 -111.07421875 1585.87988281 c 0,33,34
 -116.165039062 1603.66308594 -116.165039062 1603.66308594 -115.994140625 1605.55957031 c 0,35,36
 -109.23046875 1618.53515625 -109.23046875 1618.53515625 -83.193359375 1631.79980469 c 0,37,38
 -15.2294921875 1670.63671875 -15.2294921875 1670.63671875 28.9990234375 1642.36425781 c 0,39,40
 35.544921875 1637.60449219 35.544921875 1637.60449219 39.806640625 1633.44042969 c 0,41,42
 78.763671875 1590.6953125 78.763671875 1590.6953125 51.2861328125 1490.75976562 c 1,43,44
 131.0703125 1524.51464844 131.0703125 1524.51464844 156.491210938 1551.94335938 c 0,45,46
 161.27734375 1557.3515625 161.27734375 1557.3515625 164.446289062 1561.28027344 c 1,0,1
208.7265625 1856.48046875 m 1,47,48
 187.40625 1853.20019531 187.40625 1853.20019531 163.751953125 1802.80664062 c 2,49,-1
 162.806640625 1800.71972656 l 1,50,51
 108.045898438 1696.17773438 108.045898438 1696.17773438 136.56640625 1661.3203125 c 1,52,53
 151.904296875 1647.15429688 151.904296875 1647.15429688 177.56640625 1638.36035156 c 0,54,55
 205.993164062 1628.88476562 205.993164062 1628.88476562 213.646484375 1630.16015625 c 0,56,57
 227.708984375 1635.01757812 227.708984375 1635.01757812 238.24609375 1671.16015625 c 0,58,59
 256.1640625 1731.70117188 256.1640625 1731.70117188 244.806640625 1810.55957031 c 1,60,61
 233.672851562 1857.41699219 233.672851562 1857.41699219 208.7265625 1856.48046875 c 1,47,48
EndSplineSet
EndChar

StartChar: afii57453
Encoding: 1613 1613 313
AltUni2: 00fe74.ffffffff.0
Width: 77
VWidth: 1639
GlyphClass: 2
Flags: HW
AnchorPoint: "GposMark2BaseAnchorClassErabBelow_01_02" -5.73975 -129.56 mark 0
LayerCount: 2
Fore
SplineSet
200.719726562 -129.559570312 m 1,0,1
 219.63671875 -155.056640625 219.63671875 -155.056640625 238.440429688 -214.83984375 c 1,2,3
 206.729492188 -223.162109375 206.729492188 -223.162109375 125.280273438 -264.040039062 c 0,4,5
 27.2216796875 -312.443359375 27.2216796875 -312.443359375 -114.16015625 -411.639648438 c 1,6,7
 -170.466796875 -454.79296875 -170.466796875 -454.79296875 -197.799804688 -477.240234375 c 0,8,9
 -228.752929688 -502.889648438 -228.752929688 -502.889648438 -238.799804688 -506.759765625 c 1,10,-1
 -288 -436.240234375 l 1,11,-1
 -288 -434.599609375 l 1,12,13
 -138.793945312 -304.618164062 -138.793945312 -304.618164062 58.0400390625 -196.799804688 c 0,14,15
 79.310546875 -185.405273438 79.310546875 -185.405273438 124.040039062 -166.100585938 c 0,16,17
 176.5390625 -143.2265625 176.5390625 -143.2265625 200.719726562 -129.559570312 c 1,0,1
240.080078125 -306.6796875 m 1,18,19
 246.374023438 -316.012695312 246.374023438 -316.012695312 267.959960938 -369 c 1,20,21
 276.520507812 -383.969726562 276.520507812 -383.969726562 274.51953125 -390.3203125 c 1,22,23
 271.174804688 -394.399414062 271.174804688 -394.399414062 236.799804688 -406.719726562 c 1,24,25
 170.725585938 -436.572265625 170.725585938 -436.572265625 140.040039062 -452.639648438 c 0,26,27
 27.4775390625 -511.536132812 27.4775390625 -511.536132812 -94.48046875 -603.51953125 c 0,28,29
 -133.05078125 -632.000976562 -133.05078125 -632.000976562 -165 -659.280273438 c 0,30,31
 -193.405273438 -681.932617188 -193.405273438 -681.932617188 -199.440429688 -683.879882812 c 1,32,-1
 -248.639648438 -613.360351562 l 1,33,-1
 -248.639648438 -611.719726562 l 1,34,35
 -117.236328125 -491.551757812 -117.236328125 -491.551757812 94.1201171875 -375.559570312 c 0,36,37
 117.900390625 -363.259765625 117.900390625 -363.259765625 167.099609375 -341.120117188 c 0,38,39
 216.798828125 -318.650390625 216.798828125 -318.650390625 240.080078125 -306.6796875 c 1,18,19
EndSplineSet
EndChar

StartChar: afii57454
Encoding: 1614 1614 314
AltUni2: 00fe76.ffffffff.0
Width: 51
VWidth: 1639
GlyphClass: 2
Flags: HW
AnchorPoint: "GposMark2BaseAnchorHamzaErabAbove_01_01" 169.581 1398.92 mark 0
AnchorPoint: "GposMark2BaseAnchorHamzaErabBelow_01_01" 169.581 1776.12 mark 0
AnchorPoint: "GposMark2BaseAnchorClassErabAbove_01_02" 169.581 1398.92 mark 0
AnchorPoint: "GposMark2MarkAnchorHamzaErabAbove_01_01" 169.581 1398.92 mark 0
AnchorPoint: "GposMark2MarkAnchorHamzaErabBelow_01_01" 169.581 1776.12 mark 0
AnchorPoint: "GposMark2MarkAnchorShaddaErabAbove_01_02" 169.581 1398.92 mark 0
AnchorPoint: "GposMark2MarkAnchorShaddaErabBelow_01_02" 169.581 1776.12 mark 0
LayerCount: 2
Fore
SplineSet
395.719726562 1776.12011719 m 1,0,1
 402.014648438 1766.78710938 402.014648438 1766.78710938 423.599609375 1713.79980469 c 1,2,3
 432.161132812 1698.83007812 432.161132812 1698.83007812 430.16015625 1692.48046875 c 1,4,5
 426.815429688 1688.40039062 426.815429688 1688.40039062 392.440429688 1676.08007812 c 1,6,7
 326.366210938 1646.22753906 326.366210938 1646.22753906 295.6796875 1630.16015625 c 0,8,9
 183.1171875 1571.26367188 183.1171875 1571.26367188 61.16015625 1479.28027344 c 0,10,11
 22.5888671875 1450.79882812 22.5888671875 1450.79882812 -9.3603515625 1423.51953125 c 0,12,13
 -37.765625 1400.8671875 -37.765625 1400.8671875 -43.7998046875 1398.91992188 c 1,14,-1
 -93 1469.44042969 l 1,15,-1
 -93 1471.08007812 l 1,16,17
 38.4033203125 1591.24902344 38.4033203125 1591.24902344 249.759765625 1707.24023438 c 0,18,19
 273.540039062 1719.54003906 273.540039062 1719.54003906 322.740234375 1741.6796875 c 0,20,21
 372.438476562 1764.14941406 372.438476562 1764.14941406 395.719726562 1776.12011719 c 1,0,1
EndSplineSet
EndChar

StartChar: afii57455
Encoding: 1615 1615 315
AltUni2: 00fe78.ffffffff.0
Width: -158
VWidth: 1639
GlyphClass: 2
Flags: HW
AnchorPoint: "GposMark2BaseAnchorHamzaErabAbove_01_01" 28.8418 1397.28 mark 0
AnchorPoint: "GposMark2BaseAnchorHamzaErabBelow_01_01" 28.8418 1939.51 mark 0
AnchorPoint: "GposMark2BaseAnchorClassErabAbove_01_02" 28.8418 1397.28 mark 0
AnchorPoint: "GposMark2MarkAnchorHamzaErabAbove_01_01" 28.8418 1397.28 mark 0
AnchorPoint: "GposMark2MarkAnchorHamzaErabBelow_01_01" 28.8418 1939.51 mark 0
AnchorPoint: "GposMark2MarkAnchorShaddaErabAbove_01_02" 28.8418 1397.28 mark 0
AnchorPoint: "GposMark2MarkAnchorShaddaErabBelow_01_02" 28.8418 1939.51 mark 0
LayerCount: 2
Fore
SplineSet
51.7197265625 1561.28027344 m 1,0,1
 27.5078125 1566.18164062 27.5078125 1566.18164062 0.8798828125 1579.3203125 c 0,2,3
 -35.171875 1598.546875 -35.171875 1598.546875 -51.599609375 1621.95996094 c 1,4,5
 -61.5849609375 1640.88867188 -61.5849609375 1640.88867188 -61.4404296875 1684.28027344 c 0,6,7
 -58.20703125 1765.33691406 -58.20703125 1765.33691406 2.51953125 1849.91992188 c 0,8,9
 52.470703125 1921.72363281 52.470703125 1921.72363281 86.7392578125 1933.75195312 c 0,10,11
 106.171875 1939.51367188 106.171875 1939.51367188 123.879882812 1935.20019531 c 1,12,13
 167.271484375 1920.13183594 167.271484375 1920.13183594 184.559570312 1867.95996094 c 0,14,15
 207.68359375 1800.74707031 207.68359375 1800.74707031 199.3203125 1708.87988281 c 0,16,17
 188.505859375 1568.29394531 188.505859375 1568.29394531 66.822265625 1473.39453125 c 0,18,19
 -30.28515625 1399.02539062 -30.28515625 1399.02539062 -143.440429688 1397.28027344 c 1,20,-1
 -150 1477.63964844 l 1,21,22
 -31.73828125 1478.91601562 -31.73828125 1478.91601562 51.7197265625 1561.28027344 c 1,0,1
102.559570312 1628.51953125 m 0,23,24
 145.426757812 1702.77246094 145.426757812 1702.77246094 132.080078125 1802.36035156 c 1,25,26
 122.545898438 1859.56445312 122.545898438 1859.56445312 96.369140625 1856.08886719 c 0,27,28
 93.802734375 1855.74804688 93.802734375 1855.74804688 91.080078125 1854.83984375 c 0,29,30
 73.0673828125 1847.32617188 73.0673828125 1847.32617188 58.2802734375 1818.75976562 c 0,31,32
 30.451171875 1765.17675781 30.451171875 1765.17675781 17.2802734375 1722 c 0,33,34
 8.8505859375 1689.78320312 8.8505859375 1689.78320312 17.2802734375 1671.16015625 c 0,35,36
 30.7998046875 1644.12011719 30.7998046875 1644.12011719 99.10546875 1629.27832031 c 0,37,38
 101.711914062 1628.70605469 101.711914062 1628.70605469 102.559570312 1628.51953125 c 0,23,24
EndSplineSet
EndChar

StartChar: afii57456
Encoding: 1616 1616 316
AltUni2: 00fe7a.ffffffff.0
Width: 51
VWidth: 1639
GlyphClass: 2
Flags: HW
AnchorPoint: "GposMark2BaseAnchorClassErabBelow_01_02" -18.7798 -129.56 mark 0
LayerCount: 2
Fore
SplineSet
-282 -432.959960938 m 1,0,1
 -259.833007812 -417.885742188 -259.833007812 -417.885742188 -217.337890625 -382.879882812 c 0,2,3
 -180.512695312 -352.71484375 -180.512695312 -352.71484375 -162.280273438 -339.48046875 c 0,4,5
 -22.3896484375 -239.149414062 -22.3896484375 -239.149414062 96.83984375 -180.400390625 c 0,6,7
 183.212890625 -137.212890625 183.212890625 -137.212890625 208.360351562 -129.559570312 c 1,8,-1
 244.440429688 -213.200195312 l 1,9,10
 27.630859375 -298.932617188 27.630859375 -298.932617188 -229.51953125 -506.759765625 c 1,11,-1
 -231.16015625 -506.759765625 l 1,12,13
 -269.376953125 -460.767578125 -269.376953125 -460.767578125 -282 -432.959960938 c 1,0,1
EndSplineSet
EndChar

StartChar: afii57457
Encoding: 1617 1617 317
AltUni2: 00fe7c.ffffffff.0
Width: 97
VWidth: 1639
GlyphClass: 2
Flags: HW
AnchorPoint: "GposMark2BaseAnchorHamzaErabAbove_01_01" 197.885 1394.39 mark 0
AnchorPoint: "GposMark2BaseAnchorHamzaErabBelow_01_01" 197.885 1756.44 mark 0
AnchorPoint: "GposMark2BaseAnchorClassErabAbove_01_02" 197.885 1394.39 mark 0
AnchorPoint: "GposMark2MarkAnchorHamzaErabAbove_01_01" 197.885 1394.39 mark 0
AnchorPoint: "GposMark2MarkAnchorHamzaErabBelow_01_01" 197.885 1756.44 mark 0
AnchorPoint: "GposMark2MarkAnchorShaddaErabAbove_01_02" 197.885 1906.44 basemark 0
AnchorPoint: "GposMark2MarkAnchorShaddaErabBelow_01_02" 197.885 1244.39 basemark 0
LayerCount: 2
Fore
SplineSet
308.901367188 1718.71972656 m 1,0,1
 362.869140625 1751.29394531 362.869140625 1751.29394531 385.981445312 1756.44042969 c 1,2,3
 441.263671875 1653.41308594 441.263671875 1653.41308594 450.36328125 1615.3828125 c 0,4,5
 458.767578125 1577.68164062 458.767578125 1577.68164062 454.861328125 1543.24023438 c 0,6,7
 444.107421875 1457.20703125 444.107421875 1457.20703125 381.689453125 1418.06933594 c 0,8,9
 341.401367188 1394.38769531 341.401367188 1394.38769531 295.78125 1403.83984375 c 1,10,11
 258.086914062 1414.6640625 258.086914062 1414.6640625 215.420898438 1451.40039062 c 1,12,13
 189.512695312 1401.203125 189.512695312 1401.203125 111.190429688 1397.82714844 c 0,14,15
 77.4658203125 1397.02539062 77.4658203125 1397.02539062 53.0615234375 1407.12011719 c 0,16,17
 14.2666015625 1425.546875 14.2666015625 1425.546875 -19.0986328125 1469.44042969 c 1,18,19
 -62.9970703125 1532.70605469 -62.9970703125 1532.70605469 -50.052734375 1653.83789062 c 0,20,21
 -42.4140625 1725.31835938 -42.4140625 1725.31835938 -42.05859375 1730.20019531 c 1,22,-1
 39.94140625 1712.16015625 l 1,23,24
 16.087890625 1587.92773438 16.087890625 1587.92773438 43.2216796875 1528.48046875 c 0,25,26
 61.3564453125 1490.56152344 61.3564453125 1490.56152344 102.583984375 1490.34082031 c 1,27,28
 129.874023438 1492.08105469 129.874023438 1492.08105469 144.901367188 1513.71972656 c 1,29,30
 160.373046875 1542.95800781 160.373046875 1542.95800781 151.4609375 1589.16015625 c 0,31,32
 132.448242188 1703.63085938 132.448242188 1703.63085938 131.78125 1708.87988281 c 1,33,34
 180.662109375 1709.234375 180.662109375 1709.234375 221.981445312 1718.71972656 c 1,35,36
 234.266601562 1647.68164062 234.266601562 1647.68164062 240.021484375 1603.91992188 c 0,37,38
 247.783203125 1547.87304688 247.783203125 1547.87304688 259.701171875 1528.48046875 c 0,39,40
 280.592773438 1495.05273438 280.592773438 1495.05273438 317.318359375 1495.18261719 c 0,41,42
 335.068359375 1496.60742188 335.068359375 1496.60742188 346.62109375 1507.16015625 c 0,43,44
 361.717773438 1524.07910156 361.717773438 1524.07910156 358.1015625 1569.48046875 c 0,45,46
 354.724609375 1597.3359375 354.724609375 1597.3359375 320.79296875 1684.36914062 c 0,47,48
 313.169921875 1704.3359375 313.169921875 1704.3359375 308.901367188 1718.71972656 c 1,0,1
EndSplineSet
EndChar

StartChar: afii57458
Encoding: 1618 1618 318
AltUni2: 00fe7e.ffffffff.0
Width: -2
VWidth: 1639
GlyphClass: 2
Flags: HW
AnchorPoint: "GposMark2BaseAnchorHamzaErabAbove_01_01" 137.159 1385.85 mark 0
AnchorPoint: "GposMark2BaseAnchorHamzaErabBelow_01_01" 137.159 1761.84 mark 0
AnchorPoint: "GposMark2BaseAnchorClassErabAbove_01_02" 137.159 1385.85 mark 0
AnchorPoint: "GposMark2MarkAnchorHamzaErabAbove_01_01" 137.159 1385.85 mark 0
AnchorPoint: "GposMark2MarkAnchorHamzaErabBelow_01_01" 137.159 1761.84 mark 0
AnchorPoint: "GposMark2MarkAnchorShaddaErabAbove_01_02" 137.159 1385.85 mark 0
AnchorPoint: "GposMark2MarkAnchorShaddaErabBelow_01_02" 137.159 1761.84 mark 0
LayerCount: 2
Fore
SplineSet
117.91015625 1759.71972656 m 1,0,1
 151.821289062 1761.84277344 151.821289062 1761.84277344 183.509765625 1754.79980469 c 0,2,3
 276.407226562 1731.82519531 276.407226562 1731.82519531 308.254882812 1639.37695312 c 0,4,5
 341.258789062 1543.57128906 341.258789062 1543.57128906 282.822265625 1466.93359375 c 0,6,7
 261.78515625 1440.72167969 261.78515625 1440.72167969 234.349609375 1423.51953125 c 0,8,9
 201.858398438 1404.34472656 201.858398438 1404.34472656 163.830078125 1398.91992188 c 0,10,11
 56.6171875 1385.84570312 56.6171875 1385.84570312 -6.943359375 1464.95703125 c 0,12,13
 -9.94921875 1468.82128906 -9.94921875 1468.82128906 -11.650390625 1471.08007812 c 0,14,15
 -66.9404296875 1546.3359375 -66.9404296875 1546.3359375 -33.2333984375 1640.84960938 c 0,16,17
 -11.1767578125 1698.8359375 -11.1767578125 1698.8359375 35.91015625 1730.20019531 c 0,18,19
 68.8974609375 1751.31152344 68.8974609375 1751.31152344 117.91015625 1759.71972656 c 1,0,1
131.030273438 1672.79980469 m 1,20,21
 65.7021484375 1662.16894531 65.7021484375 1662.16894531 47.3896484375 1607.20019531 c 1,22,23
 31.7314453125 1550.828125 31.7314453125 1550.828125 75.2705078125 1509.37597656 c 0,24,25
 105.166015625 1482.93261719 105.166015625 1482.93261719 142.509765625 1485.83984375 c 1,26,27
 206.696289062 1496.30664062 206.696289062 1496.30664062 226.149414062 1548.16015625 c 1,28,29
 244.151367188 1603.6640625 244.151367188 1603.6640625 201.252929688 1647.2734375 c 0,30,31
 170.094726562 1676.76757812 170.094726562 1676.76757812 131.030273438 1672.79980469 c 1,20,21
EndSplineSet
EndChar

StartChar: uni0654
Encoding: 1620 1620 320
Width: 11
VWidth: 1639
GlyphClass: 2
Flags: HW
AnchorPoint: "GposMark2BaseAnchorClassErabAbove_01_02" 153.6 1400.01 mark 0
AnchorPoint: "GposMark2MarkAnchorHamzaErabAbove_01_01" 153.6 1986.8 basemark 0
AnchorPoint: "GposMark2MarkAnchorHamzaErabBelow_01_01" 153.6 1250.01 basemark 0
LayerCount: 2
Fore
SplineSet
56.83984375 1510.44042969 m 1,0,1
 2.248046875 1554.79589844 2.248046875 1554.79589844 -8.8056640625 1569.6796875 c 0,2,3
 -12.76953125 1575.29199219 -12.76953125 1575.29199219 -15.3203125 1579.3203125 c 0,4,5
 -35 1615.86816406 -35 1615.86816406 -35 1648.20019531 c 0,6,7
 -34.478515625 1684.87792969 -34.478515625 1684.87792969 -26.7998046875 1708.87988281 c 0,8,9
 18.5546875 1835.10351562 18.5546875 1835.10351562 250.360351562 1836.79980469 c 1,10,-1
 255.280273438 1749.87988281 l 1,11,12
 133.493164062 1745.21386719 133.493164062 1745.21386719 81.4404296875 1703.95996094 c 0,13,14
 30.8505859375 1664.93457031 30.8505859375 1664.93457031 71.572265625 1612.28515625 c 0,15,16
 93.7685546875 1585.42773438 93.7685546875 1585.42773438 125.719726562 1574.40039062 c 0,17,18
 169.612304688 1560.48339844 169.612304688 1560.48339844 254.505859375 1590.41992188 c 0,19,20
 297.625976562 1605.30664062 297.625976562 1605.30664062 319.240234375 1608.83984375 c 1,21,-1
 342.200195312 1521.91992188 l 1,22,23
 261.310546875 1504.35253906 261.310546875 1504.35253906 119.16015625 1441.55957031 c 1,24,25
 79.2529296875 1421.47363281 79.2529296875 1421.47363281 60.1201171875 1410.40039062 c 0,26,27
 39.3466796875 1400.01367188 39.3466796875 1400.01367188 37.16015625 1400.55957031 c 0,28,29
 32.7880859375 1402.89453125 32.7880859375 1402.89453125 20.759765625 1416.95996094 c 0,30,31
 -16.4140625 1464.22363281 -16.4140625 1464.22363281 -20.240234375 1472.71972656 c 1,32,-1
 56.83984375 1510.44042969 l 1,0,1
EndSplineSet
EndChar

StartChar: uni0655
Encoding: 1621 1621 321
Width: 12
VWidth: 1639
GlyphClass: 2
Flags: HW
AnchorPoint: "GposMark2BaseAnchorClassErabBelow_01_02" -66.3999 -129.56 mark 0
LayerCount: 2
Fore
SplineSet
-163.16015625 -455.919921875 m 1,0,1
 -217.751953125 -411.564453125 -217.751953125 -411.564453125 -228.805664062 -396.680664062 c 0,2,3
 -232.76953125 -391.067382812 -232.76953125 -391.067382812 -235.3203125 -387.040039062 c 0,4,5
 -255 -350.491210938 -255 -350.491210938 -255 -318.16015625 c 0,6,7
 -254.478515625 -281.482421875 -254.478515625 -281.482421875 -246.799804688 -257.48046875 c 0,8,9
 -201.4453125 -131.255859375 -201.4453125 -131.255859375 30.3603515625 -129.559570312 c 1,10,-1
 35.2802734375 -216.48046875 l 1,11,12
 -86.5068359375 -221.145507812 -86.5068359375 -221.145507812 -138.559570312 -262.400390625 c 0,13,14
 -189.149414062 -301.42578125 -189.149414062 -301.42578125 -148.427734375 -354.07421875 c 0,15,16
 -126.231445312 -380.932617188 -126.231445312 -380.932617188 -94.2802734375 -391.959960938 c 0,17,18
 -50.3876953125 -405.876953125 -50.3876953125 -405.876953125 34.505859375 -375.940429688 c 0,19,20
 77.6259765625 -361.053710938 77.6259765625 -361.053710938 99.240234375 -357.51953125 c 1,21,-1
 122.200195312 -444.440429688 l 1,22,23
 41.310546875 -462.006835938 41.310546875 -462.006835938 -100.83984375 -524.799804688 c 1,24,25
 -140.747070312 -544.88671875 -140.747070312 -544.88671875 -159.879882812 -555.959960938 c 0,26,27
 -180.653320312 -566.346679688 -180.653320312 -566.346679688 -182.83984375 -565.799804688 c 0,28,29
 -187.211914062 -563.465820312 -187.211914062 -563.465820312 -199.240234375 -549.400390625 c 0,30,31
 -236.4140625 -502.13671875 -236.4140625 -502.13671875 -240.240234375 -493.639648438 c 1,32,-1
 -163.16015625 -455.919921875 l 1,0,1
EndSplineSet
EndChar

StartChar: uni0656
Encoding: 1622 1622 322
Width: 92
VWidth: 1639
GlyphClass: 2
Flags: HW
AnchorPoint: "GposMark2BaseAnchorClassErabBelow_01_02" -13.3438 -129.56 mark 0
LayerCount: 2
Fore
SplineSet
-112 -141.040039062 m 1,0,-1
 -0.48046875 -129.559570312 l 1,1,2
 60.6884765625 -289.8125 60.6884765625 -289.8125 79.8798828125 -455.919921875 c 0,3,4
 85.3125 -505.325195312 85.3125 -505.325195312 81.51953125 -539.559570312 c 0,5,6
 80.4453125 -563.20703125 80.4453125 -563.20703125 76.599609375 -567.440429688 c 0,7,8
 72.525390625 -570.157226562 72.525390625 -570.157226562 50.3603515625 -569.080078125 c 2,9,-1
 -23.4404296875 -569.080078125 l 1,10,11
 -15.6123046875 -376.982421875 -15.6123046875 -376.982421875 -112 -141.040039062 c 1,0,-1
EndSplineSet
EndChar

StartChar: uni0670
Encoding: 1648 1648 326
Width: 92
VWidth: 1639
GlyphClass: 2
Flags: HW
AnchorPoint: "GposMark2BaseAnchorHamzaErabAbove_01_01" 153.656 1396.2 mark 0
AnchorPoint: "GposMark2BaseAnchorHamzaErabBelow_01_01" 153.656 1836.8 mark 0
AnchorPoint: "GposMark2BaseAnchorClassErabAbove_01_02" 153.656 1396.2 mark 0
AnchorPoint: "GposMark2MarkAnchorHamzaErabAbove_01_01" 153.656 1396.2 mark 0
AnchorPoint: "GposMark2MarkAnchorHamzaErabBelow_01_01" 153.656 1836.8 mark 0
AnchorPoint: "GposMark2MarkAnchorShaddaErabAbove_01_02" 153.656 1396.2 mark 0
AnchorPoint: "GposMark2MarkAnchorShaddaErabBelow_01_02" 153.656 1836.8 mark 0
LayerCount: 2
Fore
SplineSet
55 1825.3203125 m 1,0,-1
 166.51953125 1836.79980469 l 1,1,2
 227.688476562 1676.54785156 227.688476562 1676.54785156 246.879882812 1510.44042969 c 0,3,4
 252.3125 1461.03417969 252.3125 1461.03417969 248.51953125 1426.79980469 c 0,5,6
 247.4453125 1403.15332031 247.4453125 1403.15332031 243.599609375 1398.91992188 c 0,7,8
 239.525390625 1396.203125 239.525390625 1396.203125 217.360351562 1397.28027344 c 2,9,-1
 143.559570312 1397.28027344 l 1,10,11
 151.387695312 1589.37792969 151.387695312 1589.37792969 55 1825.3203125 c 1,0,-1
EndSplineSet
EndChar

StartChar: uni0674
Encoding: 1652 1652 327
Width: 110
GlyphClass: 2
Flags: HW
AnchorPoint: "GposMark2BaseAnchorClassErabAbove_01_02" 359.5 1014 mark 0
AnchorPoint: "GposMark2MarkAnchorHamzaErabAbove_01_01" 359.5 1579 basemark 0
AnchorPoint: "GposMark2MarkAnchorHamzaErabBelow_01_01" 359.5 864 basemark 0
LayerCount: 2
Fore
SplineSet
533 1178 m 2,0,1
 528 1160 528 1160 521 1145 c 128,-1,2
 514 1130 514 1130 509 1129 c 0,3,4
 461 1118 461 1118 421 1109 c 128,-1,5
 381 1100 381 1100 363 1095 c 0,6,7
 317 1082 317 1082 274 1062 c 128,-1,8
 231 1042 231 1042 196 1018 c 1,9,10
 192 1014 192 1014 188 1014 c 0,11,12
 185 1014 185 1014 180 1018 c 128,-1,13
 175 1022 175 1022 175 1025 c 256,14,15
 175 1028 175 1028 180 1032 c 1,16,-1
 180 1031 l 1,17,18
 191 1051 191 1051 217 1076 c 128,-1,19
 243 1101 243 1101 283 1136 c 1,20,21
 195 1171 195 1171 195 1233 c 0,22,23
 195 1282 195 1282 269 1355 c 1,24,25
 346 1429 346 1429 410 1429 c 0,26,27
 421 1429 421 1429 433.5 1425.5 c 128,-1,28
 446 1422 446 1422 456 1415.5 c 128,-1,29
 466 1409 466 1409 472.5 1400.5 c 128,-1,30
 479 1392 479 1392 479 1382 c 0,31,32
 479 1368 479 1368 475.5 1353.5 c 128,-1,33
 472 1339 472 1339 466 1327 c 128,-1,34
 460 1315 460 1315 452.5 1307.5 c 128,-1,35
 445 1300 445 1300 437 1300 c 0,36,37
 433 1300 433 1300 425.5 1307.5 c 128,-1,38
 418 1315 418 1315 408 1323.5 c 128,-1,39
 398 1332 398 1332 385.5 1339.5 c 128,-1,40
 373 1347 373 1347 359 1347 c 256,41,42
 345 1347 345 1347 329 1339.5 c 128,-1,43
 313 1332 313 1332 299 1321.5 c 128,-1,44
 285 1311 285 1311 276 1299 c 128,-1,45
 267 1287 267 1287 267 1277 c 0,46,47
 267 1259 267 1259 279 1244 c 128,-1,48
 291 1229 291 1229 309.5 1218 c 128,-1,49
 328 1207 328 1207 352 1201 c 128,-1,50
 376 1195 376 1195 400 1195 c 0,51,52
 403 1195 403 1195 424 1200 c 128,-1,53
 445 1205 445 1205 470 1210.5 c 128,-1,54
 495 1216 495 1216 517 1221 c 128,-1,55
 539 1226 539 1226 544 1226 c 1,56,-1
 533 1178 l 2,0,1
EndSplineSet
EndChar

StartChar: afii57388
Encoding: 1548 1548 329
Width: 621
VWidth: 1639
GlyphClass: 2
Flags: W
LayerCount: 2
Fore
SplineSet
252.784179688 308.3203125 m 1,0,1
 337.78125 306.79296875 337.78125 306.79296875 383.984375 247.639648438 c 0,2,3
 431.485351562 184.815429688 431.485351562 184.815429688 402.03515625 100.39453125 c 0,4,5
 382.684570312 48.8330078125 382.684570312 48.8330078125 342.984375 22.9599609375 c 0,4,5
 298.561523438 -3.95703125 298.561523438 -3.95703125 238.024414062 -1.6396484375 c 0,6,7
 151.99609375 1.6689453125 151.99609375 1.6689453125 117.265625 105.778320312 c 0,8,9
 107.96875 134.806640625 107.96875 134.806640625 105.184570312 164 c 0,8,9
 92.6357421875 329.635742188 92.6357421875 329.635742188 212.977539062 441.385742188 c 0,10,11
 217.282226562 445.3125 217.282226562 445.3125 219.984375 447.719726562 c 0,10,11
 272.58203125 491.247070312 272.58203125 491.247070312 295.424804688 498.559570312 c 1,12,13
 303.20703125 487.875976562 303.20703125 487.875976562 334.784179688 436.240234375 c 0,14,15
 335.74609375 434.31640625 335.74609375 434.31640625 338.90625 429.749023438 c 0,16,17
 346.420898438 417.033203125 346.420898438 417.033203125 346.264648438 411.639648438 c 0,16,17
 345.321289062 405.981445312 345.321289062 405.981445312 310.8828125 383.298828125 c 0,18,19
 307.971679688 381.24609375 307.971679688 381.24609375 306.904296875 380.48046875 c 0,18,19
 278.580078125 354.178710938 278.580078125 354.178710938 252.784179688 308.3203125 c 1,0,1
EndSplineSet
EndChar

StartChar: afii57403
Encoding: 1563 1563 334
Width: 622
VWidth: 1639
GlyphClass: 2
Flags: W
LayerCount: 2
Fore
SplineSet
253.109375 703.559570312 m 1,0,1
 338.106445312 702.032226562 338.106445312 702.032226562 384.309570312 642.879882812 c 0,2,3
 431.810546875 580.055664062 431.810546875 580.055664062 402.360351562 495.634765625 c 0,4,5
 383.009765625 444.072265625 383.009765625 444.072265625 343.309570312 418.200195312 c 0,4,5
 298.88671875 391.283203125 298.88671875 391.283203125 238.349609375 393.599609375 c 0,6,7
 152.321289062 396.909179688 152.321289062 396.909179688 117.590820312 501.018554688 c 0,8,9
 108.293945312 530.046875 108.293945312 530.046875 105.509765625 559.240234375 c 0,8,9
 92.9609375 724.875 92.9609375 724.875 213.302734375 836.625976562 c 0,10,11
 217.607421875 840.552734375 217.607421875 840.552734375 220.309570312 842.959960938 c 0,10,11
 272.907226562 886.487304688 272.907226562 886.487304688 295.75 893.799804688 c 1,12,13
 303.532226562 883.116210938 303.532226562 883.116210938 335.109375 831.48046875 c 0,14,15
 336.071289062 829.556640625 336.071289062 829.556640625 339.231445312 824.98828125 c 0,16,17
 346.74609375 812.2734375 346.74609375 812.2734375 346.58984375 806.879882812 c 0,16,17
 345.646484375 801.220703125 345.646484375 801.220703125 311.208007812 778.5390625 c 0,18,19
 308.296875 776.486328125 308.296875 776.486328125 307.229492188 775.719726562 c 0,18,19
 278.905273438 749.418945312 278.905273438 749.418945312 253.109375 703.559570312 c 1,0,1
243.26953125 306.6796875 m 1,20,21
 270.853515625 308.83203125 270.853515625 308.83203125 295.75 301.759765625 c 0,22,23
 378.73828125 282.049804688 378.73828125 282.049804688 403.930664062 199.116210938 c 0,24,25
 430.170898438 112.734375 430.170898438 112.734375 373.056640625 48.1474609375 c 0,26,27
 358.24609375 32.298828125 358.24609375 32.298828125 341.669921875 21.3203125 c 0,24,25
 315.677734375 4.015625 315.677734375 4.015625 284.26953125 -1.6396484375 c 1,26,27
 219.95703125 -8.56640625 219.95703125 -8.56640625 172.75 21.3203125 c 1,28,29
 99.220703125 71.21484375 99.220703125 71.21484375 104.33203125 161.416015625 c 1,30,31
 110.536132812 240.518554688 110.536132812 240.518554688 174.389648438 282.080078125 c 0,30,31
 203.216796875 301.063476562 203.216796875 301.063476562 243.26953125 306.6796875 c 1,20,21
EndSplineSet
EndChar

StartChar: afii57407
Encoding: 1567 1567 335
Width: 1008
VWidth: 1639
GlyphClass: 2
Flags: W
LayerCount: 2
Fore
SplineSet
593.638671875 232.879882812 m 1,0,1
 579.999023438 277.004882812 579.999023438 277.004882812 524.758789062 342.759765625 c 0,2,3
 472.513671875 404.1484375 472.513671875 404.1484375 333.051757812 503.3515625 c 0,4,5
 306.776367188 522.079101562 306.776367188 522.079101562 291.87890625 533 c 0,4,5
 193.139648438 602.384765625 193.139648438 602.384765625 159.583984375 651.611328125 c 0,6,7
 147.689453125 669.607421875 147.689453125 669.607421875 139.358398438 687.16015625 c 0,6,7
 74.8642578125 829.4921875 74.8642578125 829.4921875 128.009765625 973.905273438 c 0,8,9
 138.106445312 1000.51171875 138.106445312 1000.51171875 150.838867188 1023.36035156 c 0,8,9
 195.670898438 1101.6328125 195.670898438 1101.6328125 278.758789062 1161.12011719 c 0,10,11
 347.6328125 1210.48535156 347.6328125 1210.48535156 423.079101562 1225.08007812 c 1,12,13
 569.056640625 1249.703125 569.056640625 1249.703125 773.115234375 1139.9296875 c 0,14,15
 786.7734375 1132.55175781 786.7734375 1132.55175781 800.278320312 1125.04003906 c 1,14,-1
 777.318359375 1079.12011719 l 1,15,-1
 719.918945312 975.799804688 l 1,16,17
 708.438476562 981.540039062 708.438476562 981.540039062 686.298828125 995.48046875 c 0,18,19
 663.561523438 1009.58886719 663.561523438 1009.58886719 652.678710938 1015.16015625 c 0,18,19
 562.31640625 1058.05273438 562.31640625 1058.05273438 473.918945312 1051.24023438 c 1,20,21
 384.5859375 1042.30664062 384.5859375 1042.30664062 319.615234375 968.60546875 c 0,22,23
 289.197265625 932.876953125 289.197265625 932.876953125 278.758789062 895.440429688 c 1,22,23
 264.84765625 835.36328125 264.84765625 835.36328125 293.518554688 774.080078125 c 0,24,25
 323.170898438 713.36328125 323.170898438 713.36328125 423.3359375 648.455078125 c 0,26,27
 428.42578125 645.157226562 428.42578125 645.157226562 438.579101562 638.639648438 c 0,28,29
 455.127929688 627.994140625 455.127929688 627.994140625 462.438476562 623.200195312 c 0,26,27
 480.754882812 610.989257812 480.754882812 610.989257812 519.377929688 587.25 c 0,28,29
 595.8515625 539.928710938 595.8515625 539.928710938 628.079101562 513.3203125 c 0,28,29
 726.391601562 426.487304688 726.391601562 426.487304688 759.278320312 305.040039062 c 0,30,31
 773.741210938 252.788085938 773.741210938 252.788085938 774.0390625 232.879882812 c 1,32,-1
 593.638671875 232.879882812 l 1,0,1
595.278320312 186.959960938 m 1,33,-1
 783.87890625 190.240234375 l 1,34,-1
 775.678710938 -4.919921875 l 1,35,-1
 583.798828125 -4.919921875 l 1,36,-1
 595.278320312 186.959960938 l 1,33,-1
EndSplineSet
EndChar

StartChar: afii57409
Encoding: 1569 1569 336
AltUni2: 00fe80.ffffffff.0
Width: 663
VWidth: 1639
GlyphClass: 2
Flags: HW
AnchorPoint: "GposMark2BaseAnchorHamzaErabAbove_01_01" 243.806 676.44 basechar 0
AnchorPoint: "GposMark2BaseAnchorHamzaErabBelow_01_01" 243.806 -209.04 basechar 0
LayerCount: 2
Fore
SplineSet
113.759765625 98.400390625 m 1,0,1
 106.64453125 104.625976562 106.64453125 104.625976562 92.2158203125 116.319335938 c 0,2,3
 53.5888671875 148.4140625 53.5888671875 148.4140625 38.3203125 168.919921875 c 0,4,5
 -19.7490234375 249.801757812 -19.7490234375 249.801757812 10.177734375 350.588867188 c 0,6,7
 17.580078125 374.112304688 17.580078125 374.112304688 28.48046875 393.599609375 c 0,8,9
 94.59765625 500.97265625 94.59765625 500.97265625 292.520507812 521.51953125 c 0,10,11
 326.959960938 526.440429688 326.959960938 526.440429688 361.400390625 526.440429688 c 2,12,-1
 382.719726562 526.440429688 l 1,13,14
 387.045898438 521.978515625 387.045898438 521.978515625 386 496.919921875 c 1,15,16
 388.807617188 479.137695312 388.807617188 479.137695312 390.147460938 442.579101562 c 0,17,18
 391.15234375 415.177734375 391.15234375 415.177734375 392.560546875 401.799804688 c 1,19,20
 228.126953125 400.84375 228.126953125 400.84375 166.240234375 354.240234375 c 0,21,22
 152.873046875 344.317382812 152.873046875 344.317382812 141.639648438 328 c 0,23,24
 103.913085938 268.506835938 103.913085938 268.506835938 167.103515625 213.9921875 c 0,25,26
 198.043945312 188.393554688 198.043945312 188.393554688 233.48046875 180.400390625 c 0,27,28
 292.010742188 168.923828125 292.010742188 168.923828125 397.557617188 210.4765625 c 0,29,30
 447.178710938 229.82421875 447.178710938 229.82421875 469.639648438 236.16015625 c 1,31,-1
 507.360351562 108.240234375 l 1,32,33
 380.798828125 77.869140625 380.798828125 77.869140625 223.639648438 6.5595703125 c 0,34,35
 209.951171875 0.3369140625 209.951171875 0.3369140625 138.360351562 -37.7197265625 c 0,36,37
 133.549804688 -40.125 133.549804688 -40.125 124.34765625 -46.2734375 c 0,38,39
 107.588867188 -56.7119140625 107.588867188 -56.7119140625 99 -59.0400390625 c 1,40,41
 89.4189453125 -43.2998046875 89.4189453125 -43.2998046875 63.931640625 -14.0556640625 c 0,42,43
 28.1962890625 26.9482421875 28.1962890625 26.9482421875 18.6396484375 50.83984375 c 1,44,-1
 113.759765625 98.400390625 l 1,0,1
EndSplineSet
EndChar

StartChar: afii57410
Encoding: 1570 1570 337
AltUni2: 00fe81.ffffffff.0
Width: 582
VWidth: 1639
GlyphClass: 2
Flags: W
LayerCount: 2
Fore
SplineSet
-58.119140625 1331.6796875 m 1,0,1
 -74.4345703125 1351.87792969 -74.4345703125 1351.87792969 -140.119140625 1425.16015625 c 0,2,3
 -142.1015625 1427.63671875 -142.1015625 1427.63671875 -149.110351562 1434.42871094 c 0,4,5
 -168 1452.73242188 -168 1452.73242188 -168 1459.59960938 c 0,4,5
 -168 1461.24023438 -168 1461.24023438 -166.359375 1463.70019531 c 0,6,7
 -164.719726562 1466.16015625 -164.719726562 1466.16015625 -163.080078125 1468.62011719 c 0,8,9
 -161.439453125 1471.08007812 -161.439453125 1471.08007812 -157.33984375 1474.36035156 c 0,10,11
 -153.239257812 1477.63964844 -153.239257812 1477.63964844 -151.599609375 1479.28027344 c 0,12,13
 -149.959960938 1480.91992188 -149.959960938 1480.91992188 -145.859375 1483.37988281 c 2,14,-1
 -141.759765625 1485.83984375 l 1,6,7
 -88.9404296875 1525.82519531 -88.9404296875 1525.82519531 -53.19921875 1544.87988281 c 0,8,9
 27.2177734375 1585.84765625 27.2177734375 1585.84765625 100.959960938 1597.36035156 c 0,10,11
 121.747070312 1600.22753906 121.747070312 1600.22753906 289.788085938 1607.39550781 c 0,12,13
 348.686523438 1610.11621094 348.686523438 1610.11621094 389.600585938 1617.04003906 c 0,12,13
 466.395507812 1633.02050781 466.395507812 1633.02050781 529 1671.16015625 c 0,14,15
 545.2890625 1680.515625 545.2890625 1680.515625 570 1699.04003906 c 0,16,17
 571.486328125 1700.03027344 571.486328125 1700.03027344 574.861328125 1703.30957031 c 0,18,19
 584.0390625 1710.38671875 584.0390625 1710.38671875 588.040039062 1710.51953125 c 1,18,19
 596.50390625 1706.88183594 596.50390625 1706.88183594 617.560546875 1682.63964844 c 0,20,21
 687.677734375 1607.77441406 687.677734375 1607.77441406 697.919921875 1594.08007812 c 1,22,23
 576.319335938 1472.47949219 576.319335938 1472.47949219 430.958007812 1447.09570312 c 0,24,25
 429.13671875 1446.77734375 429.13671875 1446.77734375 427.3203125 1446.48046875 c 0,24,25
 412.584960938 1444.515625 412.584960938 1444.515625 380.993164062 1444.11914062 c 0,26,27
 359.630859375 1443.77050781 359.630859375 1443.77050781 350.240234375 1443.20019531 c 2,26,27
 153.440429688 1428.44042969 l 1,28,29
 34.6005859375 1409.37792969 34.6005859375 1409.37792969 -56.4794921875 1331.6796875 c 1,30,-1
 -58.119140625 1331.6796875 l 1,0,1
179.680664062 1239.83984375 m 1,31,32
 262.314453125 1254.65527344 262.314453125 1254.65527344 315.80078125 1266.08007812 c 0,33,34
 318.389648438 1266.51171875 318.389648438 1266.51171875 326.909179688 1268.91015625 c 0,35,36
 356.626953125 1276.43652344 356.626953125 1276.43652344 363.360351562 1272.63964844 c 0,35,36
 369.223632812 1267.47851562 369.223632812 1267.47851562 369.919921875 1251.3203125 c 1,37,38
 372.380859375 1241.48046875 372.380859375 1241.48046875 377.30078125 1220.98046875 c 0,39,40
 382.353515625 1199.98925781 382.353515625 1199.98925781 384.680664062 1190.63964844 c 0,39,40
 421.666992188 993.016601562 421.666992188 993.016601562 427.3203125 954.48046875 c 0,41,42
 486.918945312 536.412109375 486.918945312 536.412109375 502.760742188 301.759765625 c 0,43,44
 510.723632812 187.616210938 510.723632812 187.616210938 506.040039062 86.919921875 c 0,45,46
 501.120117188 -1.6396484375 501.120117188 -1.6396484375 501.120117188 -1.6396484375 c 1,47,-1
 327.280273438 -1.6396484375 l 1,48,49
 331.3203125 163.184570312 331.3203125 163.184570312 330.560546875 195.16015625 c 0,50,51
 323.474609375 498.853515625 323.474609375 498.853515625 264.959960938 847.879882812 c 0,52,53
 240.846679688 989.298828125 240.846679688 989.298828125 214.120117188 1105.36035156 c 0,54,55
 210.494140625 1121.07421875 210.494140625 1121.07421875 200.041015625 1154.09765625 c 0,56,57
 181.979492188 1212.36523438 181.979492188 1212.36523438 179.680664062 1239.83984375 c 1,31,32
EndSplineSet
AlternateSubs2: "gsub_alternate_dfl_aalt_arab_FAR_Lookup_01_Subtable_01" uniFE82 afii57410
Substitution2: "gsub_single_rtl_fina_arab_FAR_Lookup_01_Subtable_01" uniFE82
PairPos2: "gpos_pair_dfl_kern_arab_FAR_Lookup_01_Subtable_01" gafarabic dx=0 dy=0 dh=0 dv=0 dx=0 dy=0 dh=0 dv=0
EndChar

StartChar: uniFE83
Encoding: 1571 1571 339
AltUni2: 00fe83.ffffffff.0
Width: 455
VWidth: 1639
GlyphClass: 2
Flags: W
LayerCount: 2
Fore
SplineSet
27.7802734375 1239.83984375 m 1,0,1
 110.4140625 1254.65527344 110.4140625 1254.65527344 163.900390625 1266.08007812 c 0,2,3
 166.489257812 1266.51171875 166.489257812 1266.51171875 175.008789062 1268.91015625 c 0,4,5
 204.7265625 1276.43652344 204.7265625 1276.43652344 211.459960938 1272.63964844 c 0,4,5
 217.323242188 1267.47851562 217.323242188 1267.47851562 218.020507812 1251.3203125 c 1,6,7
 228.719726562 1207.97851562 228.719726562 1207.97851562 231.139648438 1193.91992188 c 0,8,9
 258.473632812 1065.453125 258.473632812 1065.453125 273.780273438 962.6796875 c 1,10,11
 337.372070312 582.484375 337.372070312 582.484375 354.139648438 223.040039062 c 0,12,13
 354.622070312 211.946289062 354.622070312 211.946289062 349.727539062 32.947265625 c 0,14,15
 349.244140625 13.6845703125 349.244140625 13.6845703125 349.219726562 -1.6396484375 c 1,14,-1
 175.379882812 -1.6396484375 l 1,15,16
 192.416992188 400.505859375 192.416992188 400.505859375 103.219726562 908.559570312 c 0,17,18
 81.7861328125 1028.46679688 81.7861328125 1028.46679688 57.2998046875 1126.6796875 c 0,19,20
 53.8837890625 1142.39648438 53.8837890625 1142.39648438 44.203125 1173.83007812 c 0,21,22
 30.650390625 1217.83691406 30.650390625 1217.83691406 27.7802734375 1239.83984375 c 1,0,1
95.83984375 1472.71972656 m 1,0,1
 41.2490234375 1517.07519531 41.2490234375 1517.07519531 30.1943359375 1531.95898438 c 0,2,3
 26.23046875 1537.57226562 26.23046875 1537.57226562 23.6796875 1541.59960938 c 0,2,3
 4.4990234375 1578.95117188 4.4990234375 1578.95117188 4 1610.48046875 c 0,4,5
 4.521484375 1647.15820312 4.521484375 1647.15820312 12.2001953125 1671.16015625 c 0,6,7
 57.5546875 1797.38378906 57.5546875 1797.38378906 289.360351562 1799.08007812 c 1,8,-1
 294.280273438 1712.16015625 l 1,9,10
 172.493164062 1707.49414062 172.493164062 1707.49414062 120.440429688 1666.24023438 c 0,11,12
 69.8505859375 1627.21386719 69.8505859375 1627.21386719 110.572265625 1574.56542969 c 0,13,14
 132.768554688 1547.70703125 132.768554688 1547.70703125 164.719726562 1536.6796875 c 0,13,14
 208.612304688 1522.76269531 208.612304688 1522.76269531 293.505859375 1552.70019531 c 0,15,16
 336.625976562 1567.58691406 336.625976562 1567.58691406 358.240234375 1571.12011719 c 1,15,-1
 381.200195312 1484.20019531 l 1,16,17
 300.310546875 1466.6328125 300.310546875 1466.6328125 158.16015625 1403.83984375 c 1,18,19
 118.25390625 1383.75390625 118.25390625 1383.75390625 99.1201171875 1372.6796875 c 0,20,21
 78.3466796875 1362.29296875 78.3466796875 1362.29296875 76.16015625 1362.83984375 c 0,22,23
 71.7880859375 1365.17382812 71.7880859375 1365.17382812 59.759765625 1379.24023438 c 0,24,25
 22.5859375 1426.50292969 22.5859375 1426.50292969 18.759765625 1435 c 1,26,-1
 95.83984375 1472.71972656 l 1,0,1
EndSplineSet
AlternateSubs2: "gsub_alternate_dfl_aalt_arab_FAR_Lookup_01_Subtable_01" uniFE84 uniFE83
Substitution2: "gsub_single_rtl_fina_arab_FAR_Lookup_01_Subtable_01" uniFE84
EndChar

StartChar: uniFE84
Encoding: 65156 65156 340
Width: 476
VWidth: 1639
GlyphClass: 2
Flags: W
LayerCount: 2
Fore
SplineSet
172.080078125 1269.36035156 m 1,0,-1
 229.48046875 1252.95996094 l 1,1,-1
 349.200195312 1215.24023438 l 1,2,3
 345.354492188 1200.81933594 345.354492188 1200.81933594 334.243164062 1173.00683594 c 0,4,5
 326.223632812 1152.67285156 326.223632812 1152.67285156 322.9609375 1143.08007812 c 0,4,5
 300.9140625 1076.44921875 300.9140625 1076.44921875 281.9609375 995.48046875 c 0,6,7
 236.692382812 805.8828125 236.692382812 805.8828125 206.520507812 498.559570312 c 0,8,9
 194.672851562 381.639648438 194.672851562 381.639648438 208.16015625 306.6796875 c 0,10,11
 218.607421875 244.494140625 218.607421875 244.494140625 249.16015625 214.83984375 c 1,12,13
 296.977539062 171.969726562 296.977539062 171.969726562 416.302734375 178.3046875 c 0,14,15
 420.78125 178.546875 420.78125 178.546875 424.640625 178.759765625 c 0,14,15
 424.640625 180.400390625 424.640625 180.400390625 466.4609375 179.580078125 c 2,16,-1
 508.280273438 178.759765625 l 1,16,-1
 508.280273438 0 l 1,17,18
 481.567382812 -1.7275390625 481.567382812 -1.7275390625 362.3203125 -1.6396484375 c 0,19,20
 237.943359375 -0.2880859375 237.943359375 -0.2880859375 186.840820312 21.3203125 c 0,21,22
 33.0654296875 89.0546875 33.0654296875 89.0546875 14.95703125 334.875976562 c 0,23,24
 13 361.436523438 13 361.436523438 13 388.6796875 c 0,23,24
 13.3955078125 677.552734375 13.3955078125 677.552734375 108.120117188 1062.71972656 c 0,25,26
 116.76953125 1096.53125 116.76953125 1096.53125 139.274414062 1162.43359375 c 0,27,28
 163.567382812 1234.06835938 163.567382812 1234.06835938 172.080078125 1269.36035156 c 1,0,-1
104.840820312 1462.87988281 m 1,0,1
 50.2490234375 1507.23535156 50.2490234375 1507.23535156 39.1943359375 1522.11914062 c 0,2,3
 35.2314453125 1527.73242188 35.2314453125 1527.73242188 32.6806640625 1531.75976562 c 0,2,3
 13 1568.30859375 13 1568.30859375 13 1600.63964844 c 0,4,5
 13.521484375 1637.31738281 13.521484375 1637.31738281 21.2001953125 1661.3203125 c 0,6,7
 66.5546875 1787.54394531 66.5546875 1787.54394531 298.360351562 1789.24023438 c 1,8,-1
 303.280273438 1702.3203125 l 1,9,10
 181.493164062 1697.65429688 181.493164062 1697.65429688 129.440429688 1656.40039062 c 0,11,12
 78.8515625 1617.37402344 78.8515625 1617.37402344 119.572265625 1564.72558594 c 0,13,14
 141.76953125 1537.8671875 141.76953125 1537.8671875 173.720703125 1526.83984375 c 0,13,14
 217.612304688 1512.92285156 217.612304688 1512.92285156 302.505859375 1542.86035156 c 0,15,16
 345.626953125 1557.74609375 345.626953125 1557.74609375 367.240234375 1561.28027344 c 1,15,-1
 390.200195312 1474.36035156 l 1,16,17
 309.310546875 1456.79296875 309.310546875 1456.79296875 167.16015625 1394 c 1,18,19
 127.25390625 1373.9140625 127.25390625 1373.9140625 108.120117188 1362.83984375 c 0,20,21
 87.3466796875 1352.453125 87.3466796875 1352.453125 85.16015625 1353 c 0,22,23
 80.7880859375 1355.33398438 80.7880859375 1355.33398438 68.7607421875 1369.40039062 c 0,24,25
 31.5859375 1416.66308594 31.5859375 1416.66308594 27.7607421875 1425.16015625 c 1,26,-1
 104.840820312 1462.87988281 l 1,0,1
EndSplineSet
EndChar

StartChar: uniFE85
Encoding: 1572 1572 341
AltUni2: 00fe85.ffffffff.0
Width: 735
VWidth: 1639
GlyphClass: 2
Flags: W
LayerCount: 2
Fore
SplineSet
314.75390625 -1.6396484375 m 1,0,-1
 191.75390625 -1.6396484375 l 2,1,2
 85.2685546875 -1.6396484375 85.2685546875 -1.6396484375 38.4697265625 29.7568359375 c 0,3,4
 21.69140625 41.619140625 21.69140625 41.619140625 8.07421875 55.759765625 c 0,3,4
 -65.431640625 135.059570312 -65.431640625 135.059570312 -88.685546875 272.240234375 c 1,5,6
 -126.0390625 472.9453125 -126.0390625 472.9453125 -72.2861328125 662.559570312 c 1,7,8
 -18.7705078125 842.90234375 -18.7705078125 842.90234375 85.154296875 869.200195312 c 0,9,10
 164.338867188 888.163085938 164.338867188 888.163085938 247.513671875 826.559570312 c 0,11,12
 331.924804688 762.662109375 331.924804688 762.662109375 422.994140625 600.240234375 c 0,13,14
 575.525390625 325.68359375 575.525390625 325.68359375 521.486328125 38.337890625 c 0,15,16
 496.317382812 -92.1337890625 496.317382812 -92.1337890625 429.553710938 -205 c 0,15,16
 393.407226562 -264.5703125 393.407226562 -264.5703125 345.9140625 -319.799804688 c 0,17,18
 312.294921875 -360.05859375 312.294921875 -360.05859375 298.354492188 -370.639648438 c 1,19,-1
 203.234375 -282.080078125 l 1,20,-1
 163.874023438 -242.719726562 l 1,21,22
 242.350585938 -182.03515625 242.350585938 -182.03515625 286.874023438 -80.3603515625 c 0,23,24
 293.76171875 -64.6162109375 293.76171875 -64.6162109375 303.99609375 -33.1279296875 c 0,25,26
 311.073242188 -11.5888671875 311.073242188 -11.5888671875 314.75390625 -1.6396484375 c 1,0,-1
352.473632812 177.120117188 m 1,25,26
 352.473632812 278.799804688 l 1,27,28
 338.999023438 414.466796875 338.999023438 414.466796875 242.59375 575.639648438 c 0,29,30
 207.953125 631.3046875 207.953125 631.3046875 180.274414062 657.639648438 c 0,31,32
 153.115234375 681.78125 153.115234375 681.78125 127.793945312 669.120117188 c 1,33,34
 94.4755859375 649.431640625 94.4755859375 649.431640625 82.482421875 554.162109375 c 0,35,36
 82.0537109375 550.80078125 82.0537109375 550.80078125 81.8740234375 549.400390625 c 0,35,36
 61.62890625 393.578125 61.62890625 393.578125 96.6337890625 287 c 0,37,38
 118.202148438 221.927734375 118.202148438 221.927734375 145.833984375 196.799804688 c 1,39,40
 170.493164062 177.015625 170.493164062 177.015625 229.473632812 177.120117188 c 2,41,-1
 352.473632812 177.120117188 l 1,25,26
293.434570312 1077.48046875 m 1,0,1
 238.842773438 1121.8359375 238.842773438 1121.8359375 227.788085938 1136.71972656 c 0,2,3
 223.825195312 1142.33203125 223.825195312 1142.33203125 221.274414062 1146.36035156 c 0,2,3
 202.092773438 1183.71191406 202.092773438 1183.71191406 201.59375 1215.24023438 c 0,4,5
 202.115234375 1251.91796875 202.115234375 1251.91796875 209.793945312 1275.91992188 c 0,6,7
 255.1484375 1402.14355469 255.1484375 1402.14355469 486.954101562 1403.83984375 c 1,8,-1
 491.874023438 1316.91992188 l 1,9,10
 370.086914062 1312.25390625 370.086914062 1312.25390625 318.034179688 1271 c 0,11,12
 267.4453125 1231.97460938 267.4453125 1231.97460938 308.166015625 1179.32519531 c 0,13,14
 330.36328125 1152.46777344 330.36328125 1152.46777344 362.314453125 1141.44042969 c 0,13,14
 406.206054688 1127.5234375 406.206054688 1127.5234375 491.099609375 1157.45996094 c 0,15,16
 534.220703125 1172.34667969 534.220703125 1172.34667969 555.833984375 1175.87988281 c 1,15,-1
 578.793945312 1088.95996094 l 1,16,17
 497.904296875 1071.39257812 497.904296875 1071.39257812 355.75390625 1008.59960938 c 1,18,19
 315.84765625 988.513671875 315.84765625 988.513671875 296.713867188 977.440429688 c 0,20,21
 275.940429688 967.053710938 275.940429688 967.053710938 273.75390625 967.599609375 c 0,22,23
 269.381835938 969.93359375 269.381835938 969.93359375 257.354492188 984 c 0,24,25
 220.1796875 1031.26269531 220.1796875 1031.26269531 216.354492188 1039.75976562 c 1,26,-1
 293.434570312 1077.48046875 l 1,0,1
EndSplineSet
AlternateSubs2: "gsub_alternate_dfl_aalt_arab_FAR_Lookup_01_Subtable_01" uniFE86 uniFE85
Substitution2: "gsub_single_rtl_fina_arab_FAR_Lookup_01_Subtable_01" uniFE86
EndChar

StartChar: uniFE86
Encoding: 65158 65158 342
Width: 592
VWidth: 1639
GlyphClass: 2
Flags: W
LayerCount: 2
Fore
SplineSet
265.786132812 -1.6396484375 m 1,0,-1
 134.5859375 -1.6396484375 l 2,1,2
 39.3154296875 -1.6396484375 39.3154296875 -1.6396484375 -2.7197265625 24.853515625 c 0,3,4
 -10.439453125 29.9560546875 -10.439453125 29.9560546875 -16.2939453125 34.4404296875 c 0,3,4
 -101.984375 102.372070312 -101.984375 102.372070312 -132.733398438 247.639648438 c 1,5,6
 -187.353515625 492.2421875 -187.353515625 492.2421875 -113.748046875 693.709960938 c 0,7,8
 -96.37890625 740.30078125 -96.37890625 740.30078125 -73.693359375 779 c 0,7,8
 -52.9521484375 811.612304688 -52.9521484375 811.612304688 -26.1337890625 836.400390625 c 0,9,10
 -8.9140625 851.16015625 -8.9140625 851.16015625 13.2265625 861 c 0,11,12
 134.357421875 917.6328125 134.357421875 917.6328125 263.454101562 769.086914062 c 0,13,14
 294.297851562 733.120117188 294.297851562 733.120117188 318.266601562 693.719726562 c 0,13,14
 374.694335938 602.815429688 374.694335938 602.815429688 419.946289062 488.719726562 c 0,15,16
 486.793945312 319.923828125 486.793945312 319.923828125 487.186523438 177.120117188 c 1,17,-1
 623.306640625 178.759765625 l 1,18,-1
 623.306640625 0 l 1,19,-1
 465.866210938 -1.6396484375 l 1,20,21
 460.032226562 -40.935546875 460.032226562 -40.935546875 429.786132812 -108.240234375 c 1,22,23
 369 -252.15234375 369 -252.15234375 251.026367188 -370.639648438 c 1,24,-1
 249.38671875 -370.639648438 l 1,25,-1
 154.266601562 -282.080078125 l 1,26,-1
 114.90625 -242.719726562 l 1,27,28
 193.3828125 -182.03515625 193.3828125 -182.03515625 237.90625 -80.3603515625 c 0,29,30
 244.793945312 -64.6162109375 244.793945312 -64.6162109375 255.028320312 -33.1279296875 c 0,31,32
 262.10546875 -11.5888671875 262.10546875 -11.5888671875 265.786132812 -1.6396484375 c 1,0,-1
303.505859375 177.120117188 m 1,31,32
 303.505859375 278.799804688 l 1,33,34
 290.03125 414.466796875 290.03125 414.466796875 193.625976562 575.639648438 c 0,35,36
 158.985351562 631.3046875 158.985351562 631.3046875 131.306640625 657.639648438 c 0,37,38
 104.147460938 681.78125 104.147460938 681.78125 78.826171875 669.120117188 c 1,39,40
 45.5078125 649.431640625 45.5078125 649.431640625 33.5146484375 554.162109375 c 0,41,42
 33.0859375 550.80078125 33.0859375 550.80078125 32.90625 549.400390625 c 0,41,42
 12.6611328125 393.578125 12.6611328125 393.578125 47.666015625 287 c 0,43,44
 69.234375 221.927734375 69.234375 221.927734375 96.8662109375 196.799804688 c 1,45,46
 121.525390625 177.015625 121.525390625 177.015625 180.505859375 177.120117188 c 2,47,-1
 303.505859375 177.120117188 l 1,31,32
337.946289062 1113.55957031 m 1,0,1
 283.354492188 1157.91601562 283.354492188 1157.91601562 272.30078125 1172.79980469 c 0,2,3
 268.336914062 1178.41210938 268.336914062 1178.41210938 265.786132812 1182.44042969 c 0,2,3
 246.604492188 1219.79101562 246.604492188 1219.79101562 246.106445312 1251.3203125 c 0,4,5
 246.627929688 1287.99804688 246.627929688 1287.99804688 254.306640625 1312 c 0,6,7
 299.661132812 1438.22363281 299.661132812 1438.22363281 531.466796875 1439.91992188 c 1,8,-1
 536.38671875 1353 l 1,9,10
 414.599609375 1348.33398438 414.599609375 1348.33398438 362.545898438 1307.08007812 c 0,11,12
 311.95703125 1268.05371094 311.95703125 1268.05371094 352.678710938 1215.40527344 c 0,13,14
 374.875 1188.54785156 374.875 1188.54785156 406.826171875 1177.51953125 c 0,13,14
 450.717773438 1163.60351562 450.717773438 1163.60351562 535.612304688 1193.54003906 c 0,15,16
 578.732421875 1208.42675781 578.732421875 1208.42675781 600.346679688 1211.95996094 c 1,15,-1
 623.306640625 1125.04003906 l 1,16,17
 542.416992188 1107.47265625 542.416992188 1107.47265625 400.266601562 1044.6796875 c 1,18,19
 360.359375 1024.59375 360.359375 1024.59375 341.2265625 1013.51953125 c 0,20,21
 320.453125 1003.13378906 320.453125 1003.13378906 318.266601562 1003.6796875 c 0,22,23
 313.89453125 1006.01367188 313.89453125 1006.01367188 301.866210938 1020.08007812 c 0,24,25
 264.692382812 1067.34277344 264.692382812 1067.34277344 260.866210938 1075.83984375 c 1,26,-1
 337.946289062 1113.55957031 l 1,0,1
EndSplineSet
EndChar

StartChar: uniFE87
Encoding: 1573 1573 343
AltUni2: 00fe87.ffffffff.0
Width: 459
VWidth: 1639
GlyphClass: 2
Flags: W
LayerCount: 2
Fore
SplineSet
85.7802734375 1239.83984375 m 1,0,1
 168.4140625 1254.65527344 168.4140625 1254.65527344 221.900390625 1266.08007812 c 0,2,3
 224.489257812 1266.51171875 224.489257812 1266.51171875 233.008789062 1268.91015625 c 0,4,5
 262.7265625 1276.43652344 262.7265625 1276.43652344 269.459960938 1272.63964844 c 0,4,5
 275.323242188 1267.47851562 275.323242188 1267.47851562 276.020507812 1251.3203125 c 1,6,7
 286.719726562 1207.97851562 286.719726562 1207.97851562 289.139648438 1193.91992188 c 0,8,9
 316.473632812 1065.453125 316.473632812 1065.453125 331.780273438 962.6796875 c 1,10,11
 395.372070312 582.484375 395.372070312 582.484375 412.139648438 223.040039062 c 0,12,13
 412.622070312 211.946289062 412.622070312 211.946289062 407.727539062 32.947265625 c 0,14,15
 407.244140625 13.6845703125 407.244140625 13.6845703125 407.219726562 -1.6396484375 c 1,14,-1
 233.379882812 -1.6396484375 l 1,15,16
 250.416992188 400.505859375 250.416992188 400.505859375 161.219726562 908.559570312 c 0,17,18
 139.786132812 1028.46679688 139.786132812 1028.46679688 115.299804688 1126.6796875 c 0,19,20
 111.883789062 1142.39648438 111.883789062 1142.39648438 102.203125 1173.83007812 c 0,21,22
 88.650390625 1217.83691406 88.650390625 1217.83691406 85.7802734375 1239.83984375 c 1,0,1
153.83984375 -492 m 1,0,1
 99.2490234375 -447.64453125 99.2490234375 -447.64453125 88.1943359375 -432.760742188 c 0,2,3
 84.23046875 -427.147460938 84.23046875 -427.147460938 81.6796875 -423.120117188 c 0,2,3
 62 -386.571289062 62 -386.571289062 62 -354.240234375 c 0,4,5
 62.521484375 -317.5625 62.521484375 -317.5625 70.2001953125 -293.559570312 c 0,6,7
 115.5546875 -167.3359375 115.5546875 -167.3359375 347.360351562 -165.639648438 c 1,8,-1
 352.280273438 -252.559570312 l 1,9,10
 230.493164062 -257.225585938 230.493164062 -257.225585938 178.440429688 -298.48046875 c 0,11,12
 127.850585938 -337.505859375 127.850585938 -337.505859375 168.572265625 -390.154296875 c 0,13,14
 190.768554688 -417.012695312 190.768554688 -417.012695312 222.719726562 -428.040039062 c 0,13,14
 266.612304688 -441.95703125 266.612304688 -441.95703125 351.505859375 -412.020507812 c 0,15,16
 394.625976562 -397.133789062 394.625976562 -397.133789062 416.240234375 -393.599609375 c 1,15,-1
 439.200195312 -480.51953125 l 1,16,17
 358.310546875 -498.086914062 358.310546875 -498.086914062 216.16015625 -560.879882812 c 1,18,19
 176.25390625 -580.965820312 176.25390625 -580.965820312 157.120117188 -592.040039062 c 0,20,21
 136.346679688 -602.426757812 136.346679688 -602.426757812 134.16015625 -601.879882812 c 0,22,23
 129.788085938 -599.545898438 129.788085938 -599.545898438 117.759765625 -585.48046875 c 0,24,25
 80.5859375 -538.216796875 80.5859375 -538.216796875 76.759765625 -529.719726562 c 1,26,-1
 153.83984375 -492 l 1,0,1
EndSplineSet
AlternateSubs2: "gsub_alternate_dfl_aalt_arab_FAR_Lookup_01_Subtable_01" uniFE88 uniFE87
Substitution2: "gsub_single_rtl_fina_arab_FAR_Lookup_01_Subtable_01" uniFE88
EndChar

StartChar: uniFE88
Encoding: 65160 65160 344
Width: 677
VWidth: 1639
GlyphClass: 2
Flags: W
LayerCount: 2
Fore
SplineSet
372.599609375 1269.36035156 m 1,0,-1
 430 1252.95996094 l 1,1,-1
 549.719726562 1215.24023438 l 1,2,3
 545.874023438 1200.81933594 545.874023438 1200.81933594 534.762695312 1173.00683594 c 0,4,5
 526.743164062 1152.67285156 526.743164062 1152.67285156 523.48046875 1143.08007812 c 0,4,5
 501.43359375 1076.44921875 501.43359375 1076.44921875 482.48046875 995.48046875 c 0,6,7
 437.211914062 805.8828125 437.211914062 805.8828125 407.040039062 498.559570312 c 0,8,9
 395.192382812 381.639648438 395.192382812 381.639648438 408.6796875 306.6796875 c 0,10,11
 419.126953125 244.494140625 419.126953125 244.494140625 449.6796875 214.83984375 c 1,12,13
 497.497070312 171.969726562 497.497070312 171.969726562 616.822265625 178.3046875 c 0,14,15
 621.30078125 178.546875 621.30078125 178.546875 625.16015625 178.759765625 c 0,14,15
 625.16015625 180.400390625 625.16015625 180.400390625 666.98046875 179.580078125 c 2,16,-1
 708.799804688 178.759765625 l 1,16,-1
 708.799804688 0 l 1,17,18
 682.086914062 -1.7275390625 682.086914062 -1.7275390625 562.83984375 -1.6396484375 c 0,19,20
 438.462890625 -0.2880859375 438.462890625 -0.2880859375 387.360351562 21.3203125 c 0,21,22
 233.584960938 89.0546875 233.584960938 89.0546875 215.4765625 334.875976562 c 0,23,24
 213.51953125 361.436523438 213.51953125 361.436523438 213.51953125 388.6796875 c 0,23,24
 213.915039062 677.552734375 213.915039062 677.552734375 308.639648438 1062.71972656 c 0,25,26
 317.2890625 1096.53125 317.2890625 1096.53125 339.793945312 1162.43359375 c 0,27,28
 364.086914062 1234.06835938 364.086914062 1234.06835938 372.599609375 1269.36035156 c 1,0,-1
152.83984375 -455.919921875 m 1,0,1
 98.248046875 -411.564453125 98.248046875 -411.564453125 87.1943359375 -396.680664062 c 0,2,3
 83.23046875 -391.067382812 83.23046875 -391.067382812 80.6796875 -387.040039062 c 0,2,3
 61 -350.491210938 61 -350.491210938 61 -318.16015625 c 0,4,5
 61.521484375 -281.482421875 61.521484375 -281.482421875 69.2001953125 -257.48046875 c 0,6,7
 114.5546875 -131.255859375 114.5546875 -131.255859375 346.360351562 -129.559570312 c 1,8,-1
 351.280273438 -216.48046875 l 1,9,10
 229.493164062 -221.145507812 229.493164062 -221.145507812 177.440429688 -262.400390625 c 0,11,12
 126.850585938 -301.42578125 126.850585938 -301.42578125 167.572265625 -354.07421875 c 0,13,14
 189.768554688 -380.932617188 189.768554688 -380.932617188 221.719726562 -391.959960938 c 0,13,14
 265.612304688 -405.876953125 265.612304688 -405.876953125 350.505859375 -375.940429688 c 0,15,16
 393.625976562 -361.053710938 393.625976562 -361.053710938 415.240234375 -357.51953125 c 1,15,-1
 438.200195312 -444.440429688 l 1,16,17
 357.310546875 -462.006835938 357.310546875 -462.006835938 215.16015625 -524.799804688 c 1,18,19
 175.252929688 -544.88671875 175.252929688 -544.88671875 156.120117188 -555.959960938 c 0,20,21
 135.346679688 -566.346679688 135.346679688 -566.346679688 133.16015625 -565.799804688 c 0,22,23
 128.788085938 -563.465820312 128.788085938 -563.465820312 116.759765625 -549.400390625 c 0,24,25
 79.5859375 -502.13671875 79.5859375 -502.13671875 75.759765625 -493.639648438 c 1,26,-1
 152.83984375 -455.919921875 l 1,0,1
EndSplineSet
EndChar

StartChar: uniFE89
Encoding: 1574 1574 345
AltUni2: 00fe89.ffffffff.0
Width: 1188
VWidth: 1639
GlyphClass: 2
Flags: W
LayerCount: 2
Fore
SplineSet
343.240234375 544.48046875 m 1,0,1
 328.715820312 525.892578125 328.715820312 525.892578125 276 436.240234375 c 0,2,3
 179.02734375 271.4765625 179.02734375 271.4765625 153 149.240234375 c 0,4,5
 133.403320312 58.7744140625 133.403320312 58.7744140625 151.360351562 -4.919921875 c 1,6,7
 181.28125 -100.380859375 181.28125 -100.380859375 320.280273438 -116.440429688 c 0,8,9
 456.880859375 -130.845703125 456.880859375 -130.845703125 595.799804688 -103.3203125 c 0,10,11
 693.234375 -84.75 693.234375 -84.75 748.3203125 -41 c 0,12,13
 820.34375 16.619140625 820.34375 16.619140625 821.434570312 103.594726562 c 0,14,15
 821.193359375 132.583984375 821.193359375 132.583984375 812.280273438 157.440429688 c 0,14,15
 794.370117188 204.844726562 794.370117188 204.844726562 738.48046875 264.040039062 c 0,16,17
 722.743164062 280.28515625 722.743164062 280.28515625 689.315429688 311.895507812 c 0,18,19
 614.124023438 383.649414062 614.124023438 383.649414062 585.959960938 424.759765625 c 0,18,19
 502.755859375 544.4921875 502.755859375 544.4921875 542.276367188 677.501953125 c 0,20,21
 554.088867188 715.479492188 554.088867188 715.479492188 574.48046875 747.83984375 c 0,20,21
 605.838867188 793.609375 605.838867188 793.609375 648.280273438 826.559570312 c 0,22,23
 713.07421875 874.735351562 713.07421875 874.735351562 787.680664062 887.240234375 c 0,24,25
 834.598632812 894.08203125 834.598632812 894.08203125 1002.72167969 890.830078125 c 0,26,27
 1019.421875 890.537109375 1019.421875 890.537109375 1032.04003906 890.51953125 c 1,26,-1
 1032.04003906 705.200195312 l 1,27,-1
 876.240234375 705.200195312 l 2,28,29
 807.731445312 704.73046875 807.731445312 704.73046875 792.600585938 700.280273438 c 0,30,31
 736.75 682.328125 736.75 682.328125 718.479492188 628.802734375 c 0,32,33
 712.3984375 608.846679688 712.3984375 608.846679688 713.879882812 590.400390625 c 0,32,33
 721.669921875 530.34375 721.669921875 530.34375 797.520507812 454.280273438 c 0,34,35
 870.2265625 381.646484375 870.2265625 381.646484375 905.759765625 347.6796875 c 0,36,37
 1030.29296875 227.846679688 1030.29296875 227.846679688 1010.63769531 64.58203125 c 0,38,39
 1008.14453125 45.369140625 1008.14453125 45.369140625 1004.16015625 27.8798828125 c 0,38,39
 971.705078125 -106.220703125 971.705078125 -106.220703125 818.83984375 -193.51953125 c 0,40,41
 609.118164062 -312.919921875 609.118164062 -312.919921875 303.879882812 -290.280273438 c 0,42,43
 110.571289062 -276.666015625 110.571289062 -276.666015625 20.16015625 -170.559570312 c 1,44,45
 -65.994140625 -64.5244140625 -65.994140625 -64.5244140625 -35.599609375 114.799804688 c 0,46,47
 6.267578125 372.905273438 6.267578125 372.905273438 187.440429688 639.599609375 c 1,48,-1
 261.240234375 595.3203125 l 1,49,-1
 343.240234375 546.120117188 l 1,50,-1
 343.240234375 544.48046875 l 1,0,1
39.83984375 846.240234375 m 1,0,1
 -14.7509765625 890.595703125 -14.7509765625 890.595703125 -25.8056640625 905.479492188 c 0,2,3
 -29.76953125 911.091796875 -29.76953125 911.091796875 -32.3193359375 915.120117188 c 0,2,3
 -51.5009765625 952.471679688 -51.5009765625 952.471679688 -52 984 c 0,4,5
 -51.478515625 1020.67773438 -51.478515625 1020.67773438 -43.7998046875 1044.6796875 c 0,6,7
 1.5546875 1170.90429688 1.5546875 1170.90429688 233.360351562 1172.59960938 c 1,8,-1
 238.280273438 1085.6796875 l 1,9,10
 116.493164062 1081.01367188 116.493164062 1081.01367188 64.4404296875 1039.75976562 c 0,11,12
 13.8515625 1000.734375 13.8515625 1000.734375 54.572265625 948.084960938 c 0,13,14
 76.76953125 921.227539062 76.76953125 921.227539062 108.720703125 910.200195312 c 0,13,14
 152.612304688 896.283203125 152.612304688 896.283203125 237.505859375 926.219726562 c 0,15,16
 280.626953125 941.106445312 280.626953125 941.106445312 302.240234375 944.639648438 c 1,15,-1
 325.200195312 857.719726562 l 1,16,17
 244.310546875 840.153320312 244.310546875 840.153320312 102.16015625 777.360351562 c 1,18,19
 62.25390625 757.2734375 62.25390625 757.2734375 43.1201171875 746.200195312 c 0,20,21
 22.3466796875 735.813476562 22.3466796875 735.813476562 20.16015625 736.360351562 c 0,22,23
 15.7880859375 738.694335938 15.7880859375 738.694335938 3.759765625 752.759765625 c 0,24,25
 -33.4140625 800.0234375 -33.4140625 800.0234375 -37.240234375 808.51953125 c 1,26,-1
 39.83984375 846.240234375 l 1,0,1
EndSplineSet
AlternateSubs2: "gsub_alternate_dfl_aalt_arab_FAR_Lookup_01_Subtable_01" uniFE8A uniFE8B uniFE89 uniFE8C
Substitution2: "gsub_single_rtl_fina_arab_FAR_Lookup_01_Subtable_01" uniFE8A
Substitution2: "gsub_single_rtl_init_arab_FAR_Lookup_01_Subtable_01" uniFE8B
Substitution2: "gsub_single_rtl_medi_arab_FAR_Lookup_01_Subtable_01" uniFE8C
EndChar

StartChar: uniFE8A
Encoding: 65162 65162 346
Width: 1052
VWidth: 1639
GlyphClass: 2
Flags: W
LayerCount: 2
Fore
SplineSet
315.359375 767.51953125 m 1,0,1
 391.255859375 725.595703125 391.255859375 725.595703125 464.599609375 670.759765625 c 1,2,-1
 464.599609375 669.120117188 l 1,3,4
 437.298828125 636.546875 437.298828125 636.546875 367.83984375 516.599609375 c 0,5,6
 276.026367188 359.231445312 276.026367188 359.231445312 226.799804688 249.280273438 c 1,7,8
 168.532226562 125.328125 168.532226562 125.328125 153 54.1201171875 c 0,9,10
 131.9609375 -53.412109375 131.9609375 -53.412109375 190.899414062 -129.075195312 c 0,11,12
 206.34375 -147.874023438 206.34375 -147.874023438 223.51953125 -160.719726562 c 0,11,12
 266.264648438 -188.9765625 266.264648438 -188.9765625 348.16015625 -201.719726562 c 1,13,14
 429.065429688 -210.412109375 429.065429688 -210.412109375 482.639648438 -206.639648438 c 0,15,16
 640.7734375 -194.326171875 640.7734375 -194.326171875 700.759765625 -139.400390625 c 0,17,18
 715.458984375 -124.046875 715.458984375 -124.046875 720.439453125 -116.440429688 c 0,19,20
 750.733398438 -59.984375 750.733398438 -59.984375 681.23046875 -21.267578125 c 0,21,22
 645.455078125 -2.166015625 645.455078125 -2.166015625 610.559570312 -1.6396484375 c 1,21,-1
 610.559570312 177.120117188 l 1,22,-1
 1082.87988281 178.759765625 l 1,23,-1
 1082.87988281 0 l 1,24,-1
 891 -1.6396484375 l 1,25,26
 894.46484375 -9.4365234375 894.46484375 -9.4365234375 902.596679688 -25.3720703125 c 0,27,28
 925.41796875 -71.5908203125 925.41796875 -71.5908203125 927.080078125 -95.1201171875 c 0,27,28
 936.485351562 -239.97265625 936.485351562 -239.97265625 725.149414062 -322.39453125 c 0,29,30
 714.734375 -326.401367188 714.734375 -326.401367188 705.6796875 -329.639648438 c 0,29,30
 640.044921875 -352.928710938 640.044921875 -352.928710938 579.399414062 -362.440429688 c 0,31,32
 550.52734375 -368.489257812 550.52734375 -368.489257812 464.599609375 -375.559570312 c 0,33,34
 155.000976562 -395.814453125 155.000976562 -395.814453125 26.50390625 -253.4375 c 0,35,36
 -5.8662109375 -216.532226562 -5.8662109375 -216.532226562 -24.1201171875 -172.200195312 c 0,35,36
 -41.4638671875 -129.743164062 -41.4638671875 -129.743164062 -47.080078125 -75.4404296875 c 0,37,38
 -53.337890625 -16.802734375 -53.337890625 -16.802734375 -40.5205078125 50.83984375 c 1,39,40
 -11.1923828125 178.341796875 -11.1923828125 178.341796875 100.51953125 401.799804688 c 0,41,42
 180.064453125 560.473632812 180.064453125 560.473632812 238.279296875 652.719726562 c 1,43,44
 284.274414062 730.884765625 284.274414062 730.884765625 315.359375 767.51953125 c 1,0,1
39.83984375 961.040039062 m 1,0,1
 -14.751953125 1005.39550781 -14.751953125 1005.39550781 -25.8056640625 1020.27929688 c 0,2,3
 -29.76953125 1025.89257812 -29.76953125 1025.89257812 -32.3203125 1029.91992188 c 0,2,3
 -51.501953125 1067.27148438 -51.501953125 1067.27148438 -52 1098.79980469 c 0,4,5
 -51.4794921875 1135.47753906 -51.4794921875 1135.47753906 -43.80078125 1159.48046875 c 0,6,7
 1.5546875 1285.70410156 1.5546875 1285.70410156 233.359375 1287.40039062 c 1,8,-1
 238.279296875 1200.48046875 l 1,9,10
 116.493164062 1195.81445312 116.493164062 1195.81445312 64.439453125 1154.55957031 c 0,11,12
 13.8505859375 1115.53417969 13.8505859375 1115.53417969 54.572265625 1062.88574219 c 0,13,14
 76.7685546875 1036.02734375 76.7685546875 1036.02734375 108.719726562 1025 c 0,13,14
 152.611328125 1011.08300781 152.611328125 1011.08300781 237.505859375 1041.01953125 c 0,15,16
 280.625976562 1055.90625 280.625976562 1055.90625 302.239257812 1059.44042969 c 1,15,-1
 325.19921875 972.51953125 l 1,16,17
 244.309570312 954.953125 244.309570312 954.953125 102.16015625 892.16015625 c 1,18,19
 62.2529296875 872.07421875 62.2529296875 872.07421875 43.1201171875 861 c 0,20,21
 22.3466796875 850.61328125 22.3466796875 850.61328125 20.16015625 851.16015625 c 0,22,23
 15.7880859375 853.494140625 15.7880859375 853.494140625 3.759765625 867.559570312 c 0,24,25
 -33.4150390625 914.823242188 -33.4150390625 914.823242188 -37.240234375 923.3203125 c 1,26,-1
 39.83984375 961.040039062 l 1,0,1
EndSplineSet
EndChar

StartChar: uniFE8B
Encoding: 65163 65163 347
Width: 618
VWidth: 1639
GlyphClass: 2
Flags: W
LayerCount: 2
Fore
SplineSet
136.919921875 1052.87988281 m 1,0,1
 118.732421875 1059.86328125 118.732421875 1059.86328125 95.919921875 1082.40039062 c 0,2,3
 32.84765625 1138.83300781 32.84765625 1138.83300781 46.2744140625 1223.95800781 c 0,4,5
 54.6044921875 1269.81738281 54.6044921875 1269.81738281 84.4404296875 1302.16015625 c 0,4,5
 155.685546875 1375.63085938 155.685546875 1375.63085938 330.440429688 1375.95996094 c 1,6,-1
 333.719726562 1289.04003906 l 1,7,8
 218.671875 1288.0625 218.671875 1288.0625 161.520507812 1244.75976562 c 0,9,10
 113.659179688 1208.50195312 113.659179688 1208.50195312 146.8828125 1156.45507812 c 0,11,12
 166.014648438 1128.859375 166.014648438 1128.859375 195.959960938 1116.83984375 c 0,11,12
 241.1171875 1099.359375 241.1171875 1099.359375 334.260742188 1128.36425781 c 0,13,14
 345.180664062 1131.74707031 345.180664062 1131.74707031 350.120117188 1133.24023438 c 0,13,14
 399.3203125 1148 399.3203125 1148 399.3203125 1148 c 1,15,-1
 422.280273438 1062.71972656 l 1,16,-1
 200.879882812 982.360351562 l 1,17,-1
 140.200195312 951.200195312 l 1,18,-1
 117.240234375 939.719726562 l 1,19,-1
 99.2001953125 957.759765625 l 1,20,-1
 58.2001953125 1011.87988281 l 1,21,-1
 136.919921875 1051.24023438 l 1,22,-1
 136.919921875 1052.87988281 l 1,0,1
145.120117188 805.240234375 m 1,23,-1
 261.560546875 857.719726562 l 1,24,-1
 314.040039062 880.6796875 l 1,25,26
 316.000976562 873.573242188 316.000976562 873.573242188 361.109375 755.868164062 c 0,27,28
 364.298828125 747.442382812 364.298828125 747.442382812 366.520507812 741.280273438 c 0,27,28
 419.155273438 589.853515625 419.155273438 589.853515625 443.599609375 514.959960938 c 0,29,30
 448.326171875 500.309570312 448.326171875 500.309570312 458.90234375 470.638671875 c 0,31,32
 485.193359375 395.966796875 485.193359375 395.966796875 491.16015625 359.16015625 c 0,31,32
 512.762695312 215.143554688 512.762695312 215.143554688 422.30859375 98.1689453125 c 0,33,34
 414.444335938 88.2314453125 414.444335938 88.2314453125 407.520507812 80.3603515625 c 0,33,34
 364.114257812 32.9228515625 364.114257812 32.9228515625 310.759765625 11.48046875 c 1,35,36
 273.233398438 -1.802734375 273.233398438 -1.802734375 174.639648438 -1.6396484375 c 0,37,38
 154.126953125 -1.6396484375 154.126953125 -1.6396484375 112.006835938 -2.8662109375 c 0,39,40
 14.248046875 -5.4736328125 14.248046875 -5.4736328125 -32 0 c 1,39,-1
 -32 178.759765625 l 1,40,41
 -4.939453125 178.759765625 -4.939453125 178.759765625 48.3603515625 177.940429688 c 0,42,43
 102.228515625 177.135742188 102.228515625 177.135742188 128.719726562 177.120117188 c 0,42,43
 195.717773438 177.765625 195.717773438 177.765625 214 185.3203125 c 0,44,45
 285.323242188 217.227539062 285.323242188 217.227539062 298.870117188 299.940429688 c 0,46,47
 302.57421875 325.6328125 302.57421875 325.6328125 299.280273438 349.3203125 c 0,46,47
 295.860351562 374.114257812 295.860351562 374.114257812 259.524414062 471.37109375 c 0,48,49
 255.791992188 481.526367188 255.791992188 481.526367188 253.360351562 488.719726562 c 0,48,49
 237.08984375 538.305664062 237.08984375 538.305664062 202.29296875 637.6484375 c 0,50,51
 163.138671875 749.559570312 163.138671875 749.559570312 145.120117188 805.240234375 c 1,23,-1
EndSplineSet
EndChar

StartChar: uniFE8C
Encoding: 65164 65164 348
Width: 580
VWidth: 1639
GlyphClass: 2
Flags: W
LayerCount: 2
Fore
SplineSet
97.560546875 1051.24023438 m 1,0,1
 40.4052734375 1088.71972656 40.4052734375 1088.71972656 18.83984375 1129.95996094 c 0,2,3
 -15.578125 1200.70800781 -15.578125 1200.70800781 25.564453125 1274.32519531 c 0,4,5
 40.9501953125 1300.1875 40.9501953125 1300.1875 61.48046875 1316.91992188 c 0,4,5
 137.55859375 1375.67773438 137.55859375 1375.67773438 291.080078125 1375.95996094 c 1,6,-1
 294.360351562 1289.04003906 l 1,7,8
 173.359375 1287.99902344 173.359375 1287.99902344 117.240234375 1241.48046875 c 1,9,10
 70.482421875 1200.22363281 70.482421875 1200.22363281 113.703125 1149.00195312 c 0,11,12
 139.772460938 1119.87207031 139.772460938 1119.87207031 174.639648438 1111.91992188 c 0,11,12
 222.541015625 1101.27539062 222.541015625 1101.27539062 333.880859375 1140.70214844 c 0,13,14
 350.747070312 1146.62890625 350.747070312 1146.62890625 359.959960938 1149.63964844 c 1,13,-1
 382.919921875 1062.71972656 l 1,14,-1
 161.520507812 982.360351562 l 1,15,-1
 100.83984375 951.200195312 l 1,16,-1
 77.8798828125 939.719726562 l 1,17,-1
 59.83984375 957.759765625 l 1,18,-1
 18.83984375 1011.87988281 l 1,19,-1
 97.560546875 1051.24023438 l 1,0,1
81.16015625 805.240234375 m 1,20,-1
 189.400390625 854.440429688 l 1,21,-1
 248.440429688 880.6796875 l 1,22,23
 272.725585938 825.979492188 272.725585938 825.979492188 318.959960938 687.16015625 c 2,24,25
 417.360351562 401.799804688 l 1,26,-1
 461.639648438 270.599609375 l 2,27,28
 479.53125 213.348632812 479.53125 213.348632812 497.719726562 195.16015625 c 0,29,30
 519.631835938 174.537109375 519.631835938 174.537109375 592.763671875 178.196289062 c 0,31,32
 604.537109375 178.711914062 604.537109375 178.711914062 610.879882812 178.759765625 c 1,31,-1
 610.879882812 0 l 1,32,33
 412.77734375 -15.119140625 412.77734375 -15.119140625 355.040039062 104.959960938 c 1,34,35
 288.299804688 35.0419921875 288.299804688 35.0419921875 245.974609375 15.0068359375 c 0,36,37
 243.106445312 13.681640625 243.106445312 13.681640625 241.879882812 13.1201171875 c 0,36,37
 194.860351562 -2.7001953125 194.860351562 -2.7001953125 95.919921875 -1.6396484375 c 0,38,39
 -19.314453125 -1.455078125 -19.314453125 -1.455078125 -32 0 c 1,40,-1
 -32 178.759765625 l 1,41,42
 50 178.759765625 l 1,43,44
 121.405273438 175.829101562 121.405273438 175.829101562 148.400390625 185.3203125 c 0,45,46
 212.666992188 210.688476562 212.666992188 210.688476562 231.7421875 288.21875 c 0,47,48
 239.4609375 322.454101562 239.4609375 322.454101562 233.6796875 352.599609375 c 0,47,48
 230.123046875 371.80859375 230.123046875 371.80859375 192.7421875 477.301757812 c 0,49,50
 191.861328125 479.788085938 191.861328125 479.788085938 191.040039062 482.16015625 c 0,49,50
 179.560546875 512.5 179.560546875 512.5 159.060546875 574.8203125 c 0,51,52
 138.314453125 637.6484375 138.314453125 637.6484375 127.080078125 667.48046875 c 0,51,52
 122.219726562 682.0625 122.219726562 682.0625 111.366210938 712.118164062 c 0,53,54
 88.8505859375 774.959960938 88.8505859375 774.959960938 81.16015625 805.240234375 c 1,20,-1
EndSplineSet
EndChar

StartChar: alefarabic
Encoding: 1575 1575 349
AltUni2: 00fe8d.ffffffff.0
Width: 586
VWidth: 1639
GlyphClass: 2
Flags: HW
AnchorPoint: "GposMark2BaseAnchorClassErabAbove_01_02" 267.421 1426.44 basechar 0
AnchorPoint: "GposMark2BaseAnchorClassErabBelow_01_02" 267.421 -151.64 basechar 0
LayerCount: 2
Fore
SplineSet
104 1239.83984375 m 1,0,1
 186.633789062 1254.65527344 186.633789062 1254.65527344 240.120117188 1266.08007812 c 0,2,3
 242.708984375 1266.51171875 242.708984375 1266.51171875 251.228515625 1268.91015625 c 0,4,5
 280.946289062 1276.43652344 280.946289062 1276.43652344 287.6796875 1272.63964844 c 0,6,7
 293.54296875 1267.47851562 293.54296875 1267.47851562 294.240234375 1251.3203125 c 1,8,9
 304.939453125 1207.97851562 304.939453125 1207.97851562 307.359375 1193.91992188 c 0,10,11
 334.693359375 1065.453125 334.693359375 1065.453125 350 962.6796875 c 1,12,13
 413.591796875 582.484375 413.591796875 582.484375 430.359375 223.040039062 c 0,14,15
 430.841796875 211.946289062 430.841796875 211.946289062 425.947265625 32.947265625 c 0,16,17
 425.463867188 13.6845703125 425.463867188 13.6845703125 425.439453125 -1.6396484375 c 1,18,-1
 251.599609375 -1.6396484375 l 1,19,20
 268.63671875 400.505859375 268.63671875 400.505859375 179.439453125 908.559570312 c 0,21,22
 158.005859375 1028.46679688 158.005859375 1028.46679688 133.51953125 1126.6796875 c 0,23,24
 130.103515625 1142.39648438 130.103515625 1142.39648438 120.422851562 1173.83007812 c 0,25,26
 106.870117188 1217.83691406 106.870117188 1217.83691406 104 1239.83984375 c 1,0,1
EndSplineSet
AlternateSubs2: "gsub_alternate_dfl_aalt_arab_FAR_Lookup_01_Subtable_01" uniFE8E alefarabic
Substitution2: "gsub_single_rtl_fina_arab_FAR_Lookup_01_Subtable_01" uniFE8E
PairPos2: "gpos_pair_dfl_kern_arab_FAR_Lookup_01_Subtable_01" gafarabic dx=0 dy=0 dh=0 dv=0 dx=0 dy=0 dh=0 dv=0
EndChar

StartChar: uniFE8E
Encoding: 65166 65166 350
Width: 567
VWidth: 1639
GlyphClass: 2
Flags: HW
AnchorPoint: "GposMark2BaseAnchorClassErabAbove_01_02" 351.64 1419.36 basechar 0
AnchorPoint: "GposMark2BaseAnchorClassErabBelow_01_02" 351.64 -151.728 basechar 0
LayerCount: 2
Fore
SplineSet
263.080078125 1269.36035156 m 1,0,-1
 320.48046875 1252.95996094 l 1,1,-1
 440.200195312 1215.24023438 l 1,2,3
 436.354492188 1200.81933594 436.354492188 1200.81933594 425.243164062 1173.00683594 c 0,4,5
 417.223632812 1152.67285156 417.223632812 1152.67285156 413.9609375 1143.08007812 c 0,6,7
 391.9140625 1076.44921875 391.9140625 1076.44921875 372.9609375 995.48046875 c 0,8,9
 327.692382812 805.8828125 327.692382812 805.8828125 297.520507812 498.559570312 c 0,10,11
 285.672851562 381.639648438 285.672851562 381.639648438 299.16015625 306.6796875 c 0,12,13
 309.607421875 244.494140625 309.607421875 244.494140625 340.16015625 214.83984375 c 1,14,15
 387.977539062 171.969726562 387.977539062 171.969726562 507.302734375 178.3046875 c 0,16,17
 511.78125 178.546875 511.78125 178.546875 515.640625 178.759765625 c 0,18,19
 515.640625 180.400390625 515.640625 180.400390625 557.4609375 179.580078125 c 2,20,-1
 599.280273438 178.759765625 l 1,21,-1
 599.280273438 0 l 1,22,23
 572.567382812 -1.7275390625 572.567382812 -1.7275390625 453.3203125 -1.6396484375 c 0,24,25
 328.943359375 -0.2880859375 328.943359375 -0.2880859375 277.840820312 21.3203125 c 0,26,27
 124.065429688 89.0546875 124.065429688 89.0546875 105.95703125 334.875976562 c 0,28,29
 104 361.436523438 104 361.436523438 104 388.6796875 c 0,30,31
 104.395507812 677.552734375 104.395507812 677.552734375 199.120117188 1062.71972656 c 0,32,33
 207.76953125 1096.53125 207.76953125 1096.53125 230.274414062 1162.43359375 c 0,34,35
 254.567382812 1234.06835938 254.567382812 1234.06835938 263.080078125 1269.36035156 c 1,0,-1
EndSplineSet
PairPos2: "gpos_pair_dfl_kern_arab_FAR_Lookup_01_Subtable_01" gafarabic dx=0 dy=0 dh=0 dv=0 dx=0 dy=0 dh=0 dv=0
EndChar

StartChar: afii57416
Encoding: 1576 1576 351
AltUni2: 00fe8f.ffffffff.0
Width: 1680
VWidth: 1639
GlyphClass: 2
Flags: HW
AnchorPoint: "GposMark2BaseAnchorClassErabAbove_01_02" 762.032 1032.32 basechar 0
AnchorPoint: "GposMark2BaseAnchorClassErabBelow_01_02" 762.032 -500.96 basechar 0
LayerCount: 2
Fore
SplineSet
1342.05957031 882.3203125 m 1,0,1
 1348.58007812 871.055664062 1348.58007812 871.055664062 1369.93945312 810.16015625 c 1,2,3
 1396.47460938 743.551757812 1396.47460938 743.551757812 1424.05957031 660.919921875 c 0,4,5
 1459.96484375 558.602539062 1459.96484375 558.602539062 1486.37988281 477.240234375 c 0,6,7
 1520.95605469 372.13671875 1520.95605469 372.13671875 1524.09960938 326.360351562 c 0,8,9
 1527.95605469 248.321289062 1527.95605469 248.321289062 1492.93945312 164 c 0,10,11
 1475.859375 126.305664062 1475.859375 126.305664062 1447.01953125 91.83984375 c 0,12,13
 1405.80859375 43.158203125 1405.80859375 43.158203125 1363.37988281 21.3203125 c 0,14,15
 1308.67382812 -5.3662109375 1308.67382812 -5.3662109375 1183.19140625 -2.2509765625 c 0,16,17
 1158.55664062 -1.6396484375 1158.55664062 -1.6396484375 1145.25976562 -1.6396484375 c 2,18,-1
 738.5390625 -1.6396484375 l 1,19,-1
 420.379882812 -1.6396484375 l 2,20,21
 275.711914062 -1.6396484375 275.711914062 -1.6396484375 213.739257812 23.267578125 c 0,22,23
 179.456054688 37.6298828125 179.456054688 37.6298828125 151.419921875 59.0400390625 c 0,24,25
 22.953125 159.73046875 22.953125 159.73046875 2.775390625 344.278320312 c 0,26,27
 -3.892578125 409.126953125 -3.892578125 409.126953125 5.458984375 470.6796875 c 0,28,29
 18.55859375 548.326171875 18.55859375 548.326171875 74.33984375 672.400390625 c 0,30,31
 105.477539062 745.500976562 105.477539062 745.500976562 157.979492188 816.719726562 c 0,32,33
 160.442382812 819.674804688 160.442382812 819.674804688 166.920898438 830.021484375 c 0,34,35
 185.29296875 857.502929688 185.29296875 857.502929688 194.059570312 861 c 1,36,37
 201.295898438 859.872070312 201.295898438 859.872070312 223.579101562 839.6796875 c 0,38,39
 236.69921875 829.01953125 236.69921875 829.01953125 263.759765625 806.879882812 c 128,-1,40
 290.819335938 784.740234375 290.819335938 784.740234375 303.939453125 774.080078125 c 0,41,42
 331.204101562 751.831054688 331.204101562 751.831054688 331.819335938 746.200195312 c 0,43,44
 331.215820312 742.580078125 331.215820312 742.580078125 311.9453125 719.259765625 c 0,45,46
 309.708007812 716.235351562 309.708007812 716.235351562 308.859375 715.040039062 c 0,47,48
 284.515625 683.57421875 284.515625 683.57421875 259.659179688 639.599609375 c 0,49,50
 136.599609375 406.434570312 136.599609375 406.434570312 211.713867188 267.920898438 c 0,51,52
 224.859375 244.751953125 224.859375 244.751953125 241.619140625 226.3203125 c 0,53,54
 292.509765625 172.750976562 292.509765625 172.750976562 419.092773438 175.532226562 c 0,55,56
 427.336914062 175.713867188 427.336914062 175.713867188 443.643554688 176.236328125 c 0,57,58
 471.704101562 177.086914062 471.704101562 177.086914062 484.33984375 177.120117188 c 2,59,-1
 1009.13964844 177.120117188 l 1,60,-1
 1153.45898438 177.120117188 l 2,61,62
 1225.30078125 177.795898438 1225.30078125 177.795898438 1246.93945312 186.959960938 c 0,63,64
 1317.43554688 216.333007812 1317.43554688 216.333007812 1329.25488281 305.846679688 c 0,65,66
 1331.29394531 323.52734375 1331.29394531 323.52734375 1330.57910156 339.48046875 c 0,67,68
 1328.88769531 358.93359375 1328.88769531 358.93359375 1299.86132812 441.563476562 c 0,69,70
 1297.57128906 448.219726562 1297.57128906 448.219726562 1296.13964844 452.639648438 c 0,71,72
 1283.01953125 491.1796875 1283.01953125 491.1796875 1255.95898438 569.080078125 c 0,73,74
 1228.72558594 647.51171875 1228.72558594 647.51171875 1215.77929688 685.51953125 c 0,75,76
 1210.859375 699.459960938 1210.859375 699.459960938 1201.01953125 728.16015625 c 0,77,78
 1190.99023438 757.366210938 1190.99023438 757.366210938 1186.25976562 770.799804688 c 0,79,80
 1185.71289062 773.533203125 1185.71289062 773.533203125 1182.67578125 781.125976562 c 0,81,82
 1175.87304688 798.133789062 1175.87304688 798.133789062 1178.05957031 803.599609375 c 0,83,84
 1179.60058594 808.223632812 1179.60058594 808.223632812 1217.02246094 824.728515625 c 0,85,86
 1219.74316406 826.078125 1219.74316406 826.078125 1220.69921875 826.559570312 c 0,87,88
 1298.76855469 858.037109375 1298.76855469 858.037109375 1342.05957031 882.3203125 c 1,0,1
643.419921875 -155.799804688 m 1,89,90
 683.245117188 -147.455078125 683.245117188 -147.455078125 802.499023438 -147.599609375 c 0,91,92
 851.396484375 -148.458984375 851.396484375 -148.458984375 856.619140625 -154.16015625 c 0,93,94
 859.352539062 -158.765625 859.352539062 -158.765625 858.259765625 -205 c 2,95,-1
 858.259765625 -349.3203125 l 1,96,97
 844.599609375 -349.3203125 844.599609375 -349.3203125 818.330078125 -345.822265625 c 0,98,99
 799.731445312 -343.443359375 799.731445312 -343.443359375 791.01953125 -342.759765625 c 0,100,101
 708.776367188 -337.708007812 708.776367188 -337.708007812 643.419921875 -350.959960938 c 1,102,-1
 643.419921875 -155.799804688 l 1,89,90
EndSplineSet
AlternateSubs2: "gsub_alternate_dfl_aalt_arab_FAR_Lookup_01_Subtable_01" uniFE90 uniFE91 afii57416 uniFE92
Substitution2: "gsub_single_rtl_fina_arab_FAR_Lookup_01_Subtable_01" uniFE90
Substitution2: "gsub_single_rtl_init_arab_FAR_Lookup_01_Subtable_01" uniFE91
Substitution2: "gsub_single_rtl_medi_arab_FAR_Lookup_01_Subtable_01" uniFE92
EndChar

StartChar: uniFE90
Encoding: 65168 65168 352
Width: 1675
VWidth: 1639
GlyphClass: 2
Flags: HW
AnchorPoint: "GposMark2BaseAnchorClassErabAbove_01_02" 851.114 1032.32 basechar 0
AnchorPoint: "GposMark2BaseAnchorClassErabBelow_01_02" 851.114 -500.96 basechar 0
LayerCount: 2
Fore
SplineSet
1341.74804688 882.3203125 m 1,0,1
 1350.50488281 868.301757812 1350.50488281 868.301757812 1361.42773438 831.48046875 c 0,2,3
 1367.98828125 814.259765625 1367.98828125 814.259765625 1381.10839844 779 c 0,4,5
 1394.43261719 743.2265625 1394.43261719 743.2265625 1400.78808594 726.51953125 c 0,6,7
 1440.6953125 613.357421875 1440.6953125 613.357421875 1515.58789062 388.6796875 c 2,8,-1
 1561.5078125 252.559570312 l 2,9,10
 1580.29882812 197.6328125 1580.29882812 197.6328125 1610.70800781 182.040039062 c 1,11,12
 1636.61621094 175.243164062 1636.61621094 175.243164062 1705.828125 178.759765625 c 1,13,-1
 1705.828125 0 l 1,14,15
 1544.27636719 -11.107421875 1544.27636719 -11.107421875 1476.22753906 68.8798828125 c 0,16,17
 1453.6328125 95.2412109375 1453.6328125 95.2412109375 1449.98828125 104.959960938 c 1,18,19
 1383.36523438 35.1650390625 1383.36523438 35.1650390625 1342.48144531 16.5341796875 c 0,20,21
 1340.48339844 15.6240234375 1340.48339844 15.6240234375 1338.46777344 14.759765625 c 0,22,23
 1299.35058594 -1.7197265625 1299.35058594 -1.7197265625 1212.1875 -1.6396484375 c 2,24,-1
 1046.54785156 -1.6396484375 l 1,25,-1
 495.5078125 -1.6396484375 l 2,26,27
 333.290039062 -1.6396484375 333.290039062 -1.6396484375 319.314453125 -0.396484375 c 0,28,29
 225.73046875 8.8017578125 225.73046875 8.8017578125 164.227539062 49.2001953125 c 0,30,31
 37.517578125 135.36328125 37.517578125 135.36328125 6.935546875 316.2109375 c 0,32,33
 -3.599609375 380.958984375 -3.599609375 380.958984375 1.8681640625 442.799804688 c 0,34,35
 11.7255859375 534.069335938 11.7255859375 534.069335938 72.3876953125 670.759765625 c 1,36,37
 109.247070312 748.973632812 109.247070312 748.973632812 154.387695312 813.440429688 c 0,38,39
 158.04296875 818.139648438 158.04296875 818.139648438 165.40625 828.611328125 c 0,40,41
 181.525390625 851.53515625 181.525390625 851.53515625 190.467773438 859.360351562 c 1,42,43
 193.748046875 859.360351562 193.748046875 859.360351562 195.387695312 860.1796875 c 128,-1,44
 197.028320312 861 197.028320312 861 200.307617188 859.360351562 c 128,-1,45
 203.587890625 857.719726562 203.587890625 857.719726562 206.047851562 856.080078125 c 128,-1,46
 208.5078125 854.440429688 208.5078125 854.440429688 211.788085938 851.16015625 c 128,-1,47
 215.068359375 847.879882812 215.068359375 847.879882812 216.708007812 846.240234375 c 128,-1,48
 218.34765625 844.599609375 218.34765625 844.599609375 221.627929688 841.3203125 c 2,49,-1
 224.908203125 838.040039062 l 2,50,51
 234.201171875 830.38671875 234.201171875 830.38671875 252.788085938 815.444335938 c 0,52,53
 290.5078125 784.99609375 290.5078125 784.99609375 308.547851562 769.16015625 c 1,54,55
 330.77734375 752.48828125 330.77734375 752.48828125 331.680664062 748.484375 c 0,56,57
 331.602539062 745.677734375 331.602539062 745.677734375 331.5078125 744.559570312 c 0,58,59
 329.551757812 740.895507812 329.551757812 740.895507812 308.547851562 716.6796875 c 1,60,61
 284.567382812 684.2265625 284.567382812 684.2265625 269.1875 656 c 0,62,63
 142.944335938 431.4453125 142.944335938 431.4453125 203.587890625 283.719726562 c 0,64,65
 212.818359375 263.984375 212.818359375 263.984375 229.828125 241.080078125 c 0,66,67
 276.083007812 179.903320312 276.083007812 179.903320312 383.920898438 177.341796875 c 0,68,69
 395.7734375 177.099609375 395.7734375 177.099609375 429.908203125 177.120117188 c 2,70,-1
 976.028320312 177.120117188 l 1,71,-1
 1140.02832031 177.120117188 l 2,72,73
 1217.13476562 177.534179688 1217.13476562 177.534179688 1235.14746094 182.040039062 c 0,74,75
 1308.2265625 203.963867188 1308.2265625 203.963867188 1326.4375 292.991210938 c 0,76,77
 1330.82617188 314.442382812 1330.82617188 314.442382812 1330.26757812 336.200195312 c 0,78,79
 1329.18359375 361.141601562 1329.18359375 361.141601562 1298.17089844 443.052734375 c 0,80,81
 1296.65332031 447.116210938 1296.65332031 447.116210938 1295.828125 449.360351562 c 0,82,83
 1243.13183594 607.346679688 1243.13183594 607.346679688 1215.46777344 685.51953125 c 0,84,85
 1210.54785156 699.459960938 1210.54785156 699.459960938 1200.70800781 728.16015625 c 0,86,87
 1190.67871094 757.366210938 1190.67871094 757.366210938 1185.94824219 770.799804688 c 0,88,89
 1185.40136719 773.533203125 1185.40136719 773.533203125 1182.36425781 781.125976562 c 0,90,91
 1175.56152344 798.133789062 1175.56152344 798.133789062 1177.74804688 803.599609375 c 0,92,93
 1179.2890625 808.223632812 1179.2890625 808.223632812 1216.7109375 824.728515625 c 0,94,95
 1219.43164062 826.078125 1219.43164062 826.078125 1220.38769531 826.559570312 c 0,96,97
 1298.45703125 858.037109375 1298.45703125 858.037109375 1341.74804688 882.3203125 c 1,0,1
643.108398438 -155.799804688 m 1,98,99
 682.93359375 -147.455078125 682.93359375 -147.455078125 802.1875 -147.599609375 c 0,100,101
 851.084960938 -148.458984375 851.084960938 -148.458984375 856.307617188 -154.16015625 c 0,102,103
 859.041015625 -158.765625 859.041015625 -158.765625 857.948242188 -205 c 2,104,-1
 857.948242188 -349.3203125 l 1,105,106
 844.288085938 -349.3203125 844.288085938 -349.3203125 818.018554688 -345.822265625 c 0,107,108
 799.419921875 -343.443359375 799.419921875 -343.443359375 790.708007812 -342.759765625 c 0,109,110
 708.46484375 -337.708007812 708.46484375 -337.708007812 643.108398438 -350.959960938 c 1,111,-1
 643.108398438 -155.799804688 l 1,98,99
EndSplineSet
EndChar

StartChar: uniFE91
Encoding: 65169 65169 353
Width: 651
VWidth: 1639
GlyphClass: 2
Flags: HW
AnchorPoint: "GposMark2BaseAnchorClassErabAbove_01_02" 240.381 1030.68 basechar 0
AnchorPoint: "GposMark2BaseAnchorClassErabBelow_01_02" 240.381 -499.32 basechar 0
LayerCount: 2
Fore
SplineSet
145.120117188 805.240234375 m 1,0,-1
 261.560546875 857.719726562 l 1,1,-1
 314.040039062 880.6796875 l 1,2,3
 316.000976562 873.573242188 316.000976562 873.573242188 361.109375 755.868164062 c 0,4,5
 364.298828125 747.442382812 364.298828125 747.442382812 366.520507812 741.280273438 c 0,6,7
 419.155273438 589.853515625 419.155273438 589.853515625 443.599609375 514.959960938 c 0,8,9
 448.326171875 500.309570312 448.326171875 500.309570312 458.90234375 470.638671875 c 0,10,11
 485.193359375 395.966796875 485.193359375 395.966796875 491.16015625 359.16015625 c 0,12,13
 512.762695312 215.143554688 512.762695312 215.143554688 422.30859375 98.1689453125 c 0,14,15
 414.444335938 88.2314453125 414.444335938 88.2314453125 407.520507812 80.3603515625 c 0,16,17
 364.114257812 32.9228515625 364.114257812 32.9228515625 310.759765625 11.48046875 c 1,18,19
 273.233398438 -1.802734375 273.233398438 -1.802734375 174.639648438 -1.6396484375 c 0,20,21
 154.126953125 -1.6396484375 154.126953125 -1.6396484375 112.006835938 -2.8662109375 c 0,22,23
 14.248046875 -5.4736328125 14.248046875 -5.4736328125 -32 0 c 1,24,-1
 -32 178.759765625 l 1,25,26
 -4.939453125 178.759765625 -4.939453125 178.759765625 48.3603515625 177.940429688 c 0,27,28
 102.228515625 177.135742188 102.228515625 177.135742188 128.719726562 177.120117188 c 0,29,30
 195.717773438 177.765625 195.717773438 177.765625 214 185.3203125 c 0,31,32
 285.323242188 217.227539062 285.323242188 217.227539062 298.870117188 299.940429688 c 0,33,34
 302.57421875 325.6328125 302.57421875 325.6328125 299.280273438 349.3203125 c 0,35,36
 295.860351562 374.114257812 295.860351562 374.114257812 259.524414062 471.37109375 c 0,37,38
 255.791992188 481.526367188 255.791992188 481.526367188 253.360351562 488.719726562 c 0,39,40
 237.08984375 538.305664062 237.08984375 538.305664062 202.29296875 637.6484375 c 0,41,42
 163.138671875 749.559570312 163.138671875 749.559570312 145.120117188 805.240234375 c 1,0,-1
145.120117188 -349.3203125 m 1,43,-1
 145.120117188 -208.280273438 l 2,44,45
 145.120117188 -205.299804688 145.120117188 -205.299804688 144.412109375 -196.108398438 c 0,46,47
 142.608398438 -164.247070312 142.608398438 -164.247070312 146.759765625 -157.440429688 c 0,48,49
 151.778320312 -150.4140625 151.778320312 -150.4140625 193.752929688 -147.956054688 c 0,50,51
 196.563476562 -147.701171875 196.563476562 -147.701171875 197.599609375 -147.599609375 c 0,52,53
 262.815429688 -141.965820312 262.815429688 -141.965820312 361.599609375 -150.879882812 c 1,54,-1
 361.599609375 -349.3203125 l 1,55,56
 287.80859375 -336.350585938 287.80859375 -336.350585938 145.120117188 -349.3203125 c 1,43,-1
EndSplineSet
EndChar

StartChar: uniFE92
Encoding: 65170 65170 354
Width: 580
VWidth: 1639
GlyphClass: 2
Flags: HW
AnchorPoint: "GposMark2BaseAnchorClassErabAbove_01_02" 289.44 1030.68 basechar 0
AnchorPoint: "GposMark2BaseAnchorClassErabBelow_01_02" 289.44 -500.96 basechar 0
LayerCount: 2
Fore
SplineSet
81.16015625 805.240234375 m 1,0,-1
 189.400390625 854.440429688 l 1,1,-1
 248.440429688 880.6796875 l 1,2,3
 272.725585938 825.979492188 272.725585938 825.979492188 318.959960938 687.16015625 c 2,4,5
 417.360351562 401.799804688 l 1,6,-1
 461.639648438 270.599609375 l 2,7,8
 479.53125 213.348632812 479.53125 213.348632812 497.719726562 195.16015625 c 0,9,10
 519.631835938 174.537109375 519.631835938 174.537109375 592.763671875 178.196289062 c 0,11,12
 604.537109375 178.711914062 604.537109375 178.711914062 610.879882812 178.759765625 c 1,13,-1
 610.879882812 0 l 1,14,15
 412.77734375 -15.119140625 412.77734375 -15.119140625 355.040039062 104.959960938 c 1,16,17
 288.299804688 35.0419921875 288.299804688 35.0419921875 245.974609375 15.0068359375 c 0,18,19
 243.106445312 13.681640625 243.106445312 13.681640625 241.879882812 13.1201171875 c 0,20,21
 194.860351562 -2.7001953125 194.860351562 -2.7001953125 95.919921875 -1.6396484375 c 0,22,23
 -19.314453125 -1.455078125 -19.314453125 -1.455078125 -32 0 c 1,24,-1
 -32 178.759765625 l 1,25,-1
 50 178.759765625 l 1,26,27
 121.405273438 175.829101562 121.405273438 175.829101562 148.400390625 185.3203125 c 0,28,29
 212.666992188 210.688476562 212.666992188 210.688476562 231.7421875 288.21875 c 0,30,31
 239.4609375 322.454101562 239.4609375 322.454101562 233.6796875 352.599609375 c 0,32,33
 230.123046875 371.80859375 230.123046875 371.80859375 192.7421875 477.301757812 c 0,34,35
 191.861328125 479.788085938 191.861328125 479.788085938 191.040039062 482.16015625 c 0,36,37
 179.560546875 512.5 179.560546875 512.5 159.060546875 574.8203125 c 0,38,39
 138.314453125 637.6484375 138.314453125 637.6484375 127.080078125 667.48046875 c 0,40,41
 122.219726562 682.0625 122.219726562 682.0625 111.366210938 712.118164062 c 0,42,43
 88.8505859375 774.959960938 88.8505859375 774.959960938 81.16015625 805.240234375 c 1,0,-1
194.3203125 -155.799804688 m 1,44,45
 234.146484375 -147.455078125 234.146484375 -147.455078125 353.400390625 -147.599609375 c 0,46,47
 381.68359375 -147.7890625 381.68359375 -147.7890625 394.400390625 -149.240234375 c 1,48,-1
 409.16015625 -154.16015625 l 1,49,50
 411.892578125 -158.765625 411.892578125 -158.765625 410.799804688 -205 c 2,51,-1
 410.799804688 -349.3203125 l 1,52,53
 391.091796875 -348.881835938 391.091796875 -348.881835938 352.541992188 -346.845703125 c 0,54,55
 247.797851562 -341.6953125 247.797851562 -341.6953125 194.3203125 -350.959960938 c 1,56,-1
 194.3203125 -155.799804688 l 1,44,45
EndSplineSet
EndChar

StartChar: afii57417
Encoding: 1577 1577 355
AltUni2: 00fe93.ffffffff.0
Width: 730
VWidth: 1639
GlyphClass: 2
Flags: HW
AnchorPoint: "GposMark2BaseAnchorClassErabAbove_01_02" 313.555 1361.96 basechar 0
AnchorPoint: "GposMark2BaseAnchorClassErabBelow_01_02" 313.555 -154.394 basechar 0
LayerCount: 2
Fore
SplineSet
-49.224609375 992.200195312 m 1,0,1
 -49.224609375 1016.79980469 -49.224609375 1016.79980469 -51.6845703125 1066 c 0,2,3
 -54.091796875 1115.74707031 -54.091796875 1115.74707031 -54.14453125 1139.79980469 c 0,4,5
 -54.14453125 1143.81542969 -54.14453125 1143.81542969 -55.7431640625 1155.05175781 c 0,6,7
 -58.89453125 1183.38378906 -58.89453125 1183.38378906 -54.14453125 1190.63964844 c 0,8,9
 -50.736328125 1193.84960938 -50.736328125 1193.84960938 -24.6240234375 1198.83984375 c 1,10,11
 6.515625 1202.20898438 6.515625 1202.20898438 63.935546875 1205.40039062 c 0,12,13
 162.3359375 1211.95996094 162.3359375 1211.95996094 360.79296875 1205.453125 c 2,14,-1
 362.416015625 1205.40039062 l 2,15,16
 400.618164062 1205.11230469 400.618164062 1205.11230469 446.055664062 1197.20019531 c 0,17,18
 475.134765625 1190.625 475.134765625 1190.625 477.215820312 1189 c 0,19,20
 480.999023438 1183.4765625 480.999023438 1183.4765625 477.215820312 1149.63964844 c 0,21,22
 476.395507812 1129.95996094 476.395507812 1129.95996094 472.295898438 1089.78027344 c 0,23,24
 468.23828125 1049.08203125 468.23828125 1049.08203125 467.375976562 1029.91992188 c 0,25,26
 466.6796875 989.458007812 466.6796875 989.458007812 462.456054688 985.639648438 c 1,27,28
 454.7734375 982.8125 454.7734375 982.8125 441.135742188 987.280273438 c 1,29,30
 432.935546875 988.099609375 432.935546875 988.099609375 415.715820312 990.559570312 c 0,31,32
 398.014648438 993.025390625 398.014648438 993.025390625 390.295898438 993.83984375 c 0,33,34
 302.77734375 1000.50878906 302.77734375 1000.50878906 264.015625 1002.04003906 c 0,35,36
 252.536132812 1002.86035156 252.536132812 1002.86035156 228.755859375 1002.04003906 c 0,37,38
 204.477539062 1001.36425781 204.477539062 1001.36425781 193.49609375 1002.04003906 c 0,39,40
 149.237304688 1007.45898438 149.237304688 1007.45898438 6.37890625 995.389648438 c 0,41,42
 -26.3173828125 992.73046875 -26.3173828125 992.73046875 -49.224609375 992.200195312 c 1,0,1
150.85546875 864.280273438 m 1,43,44
 219.620117188 847.193359375 219.620117188 847.193359375 321.416015625 765.879882812 c 0,45,46
 375.905273438 720.861328125 375.905273438 720.861328125 421.456054688 670.759765625 c 0,47,48
 715.672851562 351.946289062 715.672851562 351.946289062 587.095703125 116.440429688 c 0,49,50
 558.563476562 64.2900390625 558.563476562 64.2900390625 518.215820312 34.4404296875 c 0,51,52
 466.041015625 -3.6328125 466.041015625 -3.6328125 352.374023438 -2.0947265625 c 0,53,54
 317.833984375 -1.6484375 317.833984375 -1.6484375 313.215820312 -1.6396484375 c 0,55,56
 295.5625 -1.6396484375 295.5625 -1.6396484375 259.903320312 -2.521484375 c 0,57,58
 175.322265625 -4.3935546875 175.322265625 -4.3935546875 134.456054688 0 c 1,59,60
 90.9365234375 6.693359375 90.9365234375 6.693359375 65.576171875 18.0400390625 c 0,61,62
 -88.5625 88.7626953125 -88.5625 88.7626953125 -30.48046875 358.578125 c 0,63,64
 -26.8544921875 375.125 -26.8544921875 375.125 -22.984375 390.3203125 c 0,65,66
 -15.98828125 424.193359375 -15.98828125 424.193359375 -3.3046875 462.48046875 c 0,67,68
 21.2119140625 547.127929688 21.2119140625 547.127929688 45.8955078125 596.959960938 c 0,69,70
 64.7626953125 634.693359375 64.7626953125 634.693359375 64.265625 634.115234375 c 1,71,72
 67.4150390625 636.879882812 67.4150390625 636.879882812 68.85546875 637.959960938 c 0,73,74
 76.8544921875 639.619140625 76.8544921875 639.619140625 111.49609375 621.559570312 c 1,75,76
 206.624023438 580.33984375 206.624023438 580.33984375 224.655273438 574 c 1,77,78
 216.456054688 549.946289062 216.456054688 549.946289062 198.59765625 502.569335938 c 0,79,80
 162.875976562 407.1796875 162.875976562 407.1796875 150.85546875 357.51953125 c 0,81,82
 131.80078125 274.78515625 131.80078125 274.78515625 144.295898438 227.959960938 c 0,83,84
 153.750976562 196.692382812 153.750976562 196.692382812 178.735351562 182.040039062 c 1,85,86
 194.678710938 176.139648438 194.678710938 176.139648438 252.536132812 177.120117188 c 0,87,88
 263.030273438 177.120117188 263.030273438 177.120117188 285.40625 176.072265625 c 0,89,90
 379.374023438 171.671875 379.374023438 171.671875 411.916992188 201.133789062 c 0,91,92
 420.520507812 209.655273438 420.520507812 209.655273438 426.375976562 218.120117188 c 0,93,94
 469.609375 281.307617188 469.609375 281.307617188 408.712890625 391.497070312 c 0,95,96
 404.504882812 399.05859375 404.504882812 399.05859375 400.135742188 406.719726562 c 0,97,98
 312.014648438 558.88671875 312.014648438 558.88671875 157.416015625 662.559570312 c 0,99,100
 93.6083984375 705.791015625 93.6083984375 705.791015625 57.3759765625 721.599609375 c 1,101,-1
 88.5361328125 770.799804688 l 1,102,-1
 150.85546875 864.280273438 l 1,43,44
EndSplineSet
AlternateSubs2: "gsub_alternate_dfl_aalt_arab_FAR_Lookup_01_Subtable_01" uniFE94 afii57417
Substitution2: "gsub_single_rtl_fina_arab_FAR_Lookup_01_Subtable_01" uniFE94
EndChar

StartChar: uniFE94
Encoding: 65172 65172 356
Width: 809
VWidth: 1639
GlyphClass: 2
Flags: HW
AnchorPoint: "GposMark2BaseAnchorClassErabAbove_01_02" 409.901 1449.01 basechar 0
AnchorPoint: "GposMark2BaseAnchorClassErabBelow_01_02" 409.901 -151.64 basechar 0
LayerCount: 2
Fore
SplineSet
101.243164062 1284.12011719 m 1,0,1
 121.743164062 1285.75976562 121.743164062 1285.75976562 161.923828125 1290.6796875 c 0,2,3
 202.678710938 1295.6015625 202.678710938 1295.6015625 222.603515625 1297.24023438 c 0,4,5
 249.081054688 1299.01464844 249.081054688 1299.01464844 430.883789062 1298.87988281 c 0,6,7
 579.014648438 1298.38085938 579.014648438 1298.38085938 639.163085938 1279.20019531 c 1,8,9
 622.899414062 1144.23339844 622.899414062 1144.23339844 622.763671875 1074.20019531 c 1,10,11
 601.443359375 1075.83984375 601.443359375 1075.83984375 559.623046875 1081.58007812 c 0,12,13
 517.229492188 1087.30078125 517.229492188 1087.30078125 496.483398438 1088.95996094 c 0,14,15
 271.979492188 1103.0390625 271.979492188 1103.0390625 109.443359375 1082.40039062 c 1,16,-1
 106.163085938 1162.75976562 l 1,17,-1
 101.243164062 1284.12011719 l 1,0,1
184.883789062 8.2001953125 m 1,18,19
 52.607421875 159.579101562 52.607421875 159.579101562 4.4833984375 352.599609375 c 0,20,21
 -21.0810546875 454.87890625 -21.0810546875 454.87890625 -6.9970703125 529.719726562 c 1,22,23
 10.705078125 607.157226562 10.705078125 607.157226562 83.203125 688.799804688 c 0,24,25
 107.853515625 716.40625 107.853515625 716.40625 158.643554688 757.6796875 c 0,26,27
 332.291992188 897.087890625 332.291992188 897.087890625 491.176757812 886.6328125 c 0,28,29
 547.790039062 882.908203125 547.790039062 882.908203125 596.5234375 857.719726562 c 1,30,31
 656.877929688 822.693359375 656.877929688 822.693359375 671.963867188 779 c 0,32,33
 680.872070312 753.962890625 680.872070312 753.962890625 673.603515625 687.16015625 c 0,34,35
 671.143554688 659.280273438 671.143554688 659.280273438 665.403320312 602.700195312 c 0,36,37
 659.630859375 545.59375 659.630859375 545.59375 657.203125 518.240234375 c 0,38,39
 654.743164062 494.459960938 654.743164062 494.459960938 655.563476562 446.080078125 c 0,40,41
 656.201171875 397.177734375 656.201171875 397.177734375 653.923828125 373.919921875 c 0,42,43
 652.2890625 359.260742188 652.2890625 359.260742188 652.283203125 332.919921875 c 0,44,45
 649.11328125 240.981445312 649.11328125 240.981445312 668.008789062 210.657226562 c 0,46,47
 678.590820312 195.66796875 678.590820312 195.66796875 691.643554688 186.959960938 c 1,48,49
 709.61328125 178.774414062 709.61328125 178.774414062 747.403320312 178.759765625 c 2,50,-1
 840.883789062 178.759765625 l 1,51,-1
 840.883789062 0 l 1,52,53
 793.317382812 -1.6396484375 793.317382812 -1.6396484375 704.763671875 -1.6396484375 c 0,54,55
 628.522460938 -0.9599609375 628.522460938 -0.9599609375 599.803710938 11.48046875 c 0,56,57
 533.229492188 43.294921875 533.229492188 43.294921875 501.403320312 131.200195312 c 0,58,59
 458.655273438 245.19140625 458.655273438 245.19140625 476.803710938 419.83984375 c 0,60,61
 481.083984375 461.580078125 481.083984375 461.580078125 492.469726562 543.875976562 c 0,62,63
 498.5546875 587.859375 498.5546875 587.859375 501.403320312 610.080078125 c 0,64,65
 508.0859375 660.202148438 508.0859375 660.202148438 502.421875 672.78515625 c 0,66,67
 498.048828125 680.55859375 498.048828125 680.55859375 493.203125 685.51953125 c 0,68,69
 458.858398438 716.119140625 458.858398438 716.119140625 376.763671875 697 c 1,70,71
 274.16796875 669.51953125 274.16796875 669.51953125 208.182617188 579.141601562 c 0,72,73
 178.485351562 537.291015625 178.485351562 537.291015625 168.483398438 495.280273438 c 0,74,75
 143.365234375 384.759765625 143.365234375 384.759765625 252.830078125 197.06640625 c 0,76,77
 258.12890625 188.006835938 258.12890625 188.006835938 263.603515625 178.759765625 c 0,78,79
 268.68359375 170.857421875 268.68359375 170.857421875 280.056640625 154.986328125 c 0,80,81
 302.024414062 123.759765625 302.024414062 123.759765625 309.5234375 108.240234375 c 1,82,83
 260.955078125 76.0927734375 260.955078125 76.0927734375 186.5234375 8.2001953125 c 1,84,-1
 184.883789062 8.2001953125 l 1,18,19
EndSplineSet
EndChar

StartChar: afii57418
Encoding: 1578 1578 357
AltUni2: 00fe95.ffffffff.0
Width: 1680
VWidth: 1639
GlyphClass: 2
Flags: HW
AnchorPoint: "GposMark2BaseAnchorClassErabAbove_01_02" 762.032 1166.11 basechar 0
AnchorPoint: "GposMark2BaseAnchorClassErabBelow_01_02" 762.032 -155.366 basechar 0
LayerCount: 2
Fore
SplineSet
1018.97949219 779 m 1,0,1
 995.366210938 779.908203125 995.366210938 779.908203125 949.090820312 786.76171875 c 0,2,3
 911.154296875 792.266601562 911.154296875 792.266601562 892.69921875 793.759765625 c 0,4,5
 833.3671875 797.087890625 833.3671875 797.087890625 638.499023438 797.040039062 c 0,6,7
 589.395507812 796.872070312 589.395507812 796.872070312 543.379882812 792.120117188 c 1,8,9
 511.791992188 786.600585938 511.791992188 786.600585938 507.299804688 788.83984375 c 0,10,11
 504.01953125 790.48046875 504.01953125 790.48046875 503.19921875 797.860351562 c 128,-1,12
 502.379882812 805.240234375 502.379882812 805.240234375 503.19921875 815.900390625 c 2,13,-1
 504.01953125 826.559570312 l 1,14,15
 499.16796875 886.387695312 499.16796875 886.387695312 499.099609375 946.280273438 c 0,16,17
 499.099609375 948.62109375 499.099609375 948.62109375 498.104492188 956.028320312 c 0,18,19
 495.662109375 985.149414062 495.662109375 985.149414062 504.01953125 988.919921875 c 0,20,21
 531.78125 997.84375 531.78125 997.84375 632.280273438 1001.09960938 c 0,22,23
 643.678710938 1001.52441406 643.678710938 1001.52441406 651.619140625 1002.04003906 c 0,24,25
 871.790039062 1016.10546875 871.790039062 1016.10546875 1033.73925781 984 c 1,26,-1
 1018.97949219 779 l 1,0,1
1342.05957031 882.3203125 m 1,27,28
 1348.58007812 871.055664062 1348.58007812 871.055664062 1369.93945312 810.16015625 c 1,29,30
 1396.47460938 743.551757812 1396.47460938 743.551757812 1424.05957031 660.919921875 c 0,31,32
 1459.96484375 558.602539062 1459.96484375 558.602539062 1486.37988281 477.240234375 c 0,33,34
 1520.95605469 372.13671875 1520.95605469 372.13671875 1524.09960938 326.360351562 c 0,35,36
 1527.95605469 248.321289062 1527.95605469 248.321289062 1492.93945312 164 c 0,37,38
 1475.859375 126.305664062 1475.859375 126.305664062 1447.01953125 91.83984375 c 0,39,40
 1405.80859375 43.158203125 1405.80859375 43.158203125 1363.37988281 21.3203125 c 0,41,42
 1308.67382812 -5.3662109375 1308.67382812 -5.3662109375 1183.19140625 -2.2509765625 c 0,43,44
 1158.55664062 -1.6396484375 1158.55664062 -1.6396484375 1145.25976562 -1.6396484375 c 2,45,-1
 738.5390625 -1.6396484375 l 1,46,-1
 420.379882812 -1.6396484375 l 2,47,48
 275.711914062 -1.6396484375 275.711914062 -1.6396484375 213.739257812 23.267578125 c 0,49,50
 179.456054688 37.6298828125 179.456054688 37.6298828125 151.419921875 59.0400390625 c 0,51,52
 22.953125 159.73046875 22.953125 159.73046875 2.775390625 344.278320312 c 0,53,54
 -3.892578125 409.126953125 -3.892578125 409.126953125 5.458984375 470.6796875 c 0,55,56
 18.55859375 548.326171875 18.55859375 548.326171875 74.33984375 672.400390625 c 0,57,58
 105.477539062 745.500976562 105.477539062 745.500976562 157.979492188 816.719726562 c 0,59,60
 160.442382812 819.674804688 160.442382812 819.674804688 166.920898438 830.021484375 c 0,61,62
 185.29296875 857.502929688 185.29296875 857.502929688 194.059570312 861 c 1,63,64
 201.295898438 859.872070312 201.295898438 859.872070312 223.579101562 839.6796875 c 0,65,66
 236.69921875 829.01953125 236.69921875 829.01953125 263.759765625 806.879882812 c 128,-1,67
 290.819335938 784.740234375 290.819335938 784.740234375 303.939453125 774.080078125 c 0,68,69
 331.204101562 751.831054688 331.204101562 751.831054688 331.819335938 746.200195312 c 0,70,71
 331.215820312 742.580078125 331.215820312 742.580078125 311.9453125 719.259765625 c 0,72,73
 309.708007812 716.235351562 309.708007812 716.235351562 308.859375 715.040039062 c 0,74,75
 284.515625 683.57421875 284.515625 683.57421875 259.659179688 639.599609375 c 0,76,77
 136.599609375 406.434570312 136.599609375 406.434570312 211.713867188 267.920898438 c 0,78,79
 224.859375 244.751953125 224.859375 244.751953125 241.619140625 226.3203125 c 0,80,81
 292.509765625 172.750976562 292.509765625 172.750976562 419.092773438 175.532226562 c 0,82,83
 427.336914062 175.713867188 427.336914062 175.713867188 443.643554688 176.236328125 c 0,84,85
 471.704101562 177.086914062 471.704101562 177.086914062 484.33984375 177.120117188 c 2,86,-1
 1009.13964844 177.120117188 l 1,87,-1
 1153.45898438 177.120117188 l 2,88,89
 1225.30078125 177.795898438 1225.30078125 177.795898438 1246.93945312 186.959960938 c 0,90,91
 1317.43554688 216.333007812 1317.43554688 216.333007812 1329.25488281 305.846679688 c 0,92,93
 1331.29394531 323.52734375 1331.29394531 323.52734375 1330.57910156 339.48046875 c 0,94,95
 1328.88769531 358.93359375 1328.88769531 358.93359375 1299.86132812 441.563476562 c 0,96,97
 1297.57128906 448.219726562 1297.57128906 448.219726562 1296.13964844 452.639648438 c 0,98,99
 1283.01953125 491.1796875 1283.01953125 491.1796875 1255.95898438 569.080078125 c 0,100,101
 1228.72558594 647.51171875 1228.72558594 647.51171875 1215.77929688 685.51953125 c 0,102,103
 1210.859375 699.459960938 1210.859375 699.459960938 1201.01953125 728.16015625 c 0,104,105
 1190.99023438 757.366210938 1190.99023438 757.366210938 1186.25976562 770.799804688 c 0,106,107
 1185.71289062 773.533203125 1185.71289062 773.533203125 1182.67578125 781.125976562 c 0,108,109
 1175.87304688 798.133789062 1175.87304688 798.133789062 1178.05957031 803.599609375 c 0,110,111
 1179.60058594 808.223632812 1179.60058594 808.223632812 1217.02246094 824.728515625 c 0,112,113
 1219.74316406 826.078125 1219.74316406 826.078125 1220.69921875 826.559570312 c 0,114,115
 1298.76855469 858.037109375 1298.76855469 858.037109375 1342.05957031 882.3203125 c 1,27,28
EndSplineSet
AlternateSubs2: "gsub_alternate_dfl_aalt_arab_FAR_Lookup_01_Subtable_01" uniFE96 uniFE97 afii57418 uniFE98
Substitution2: "gsub_single_rtl_fina_arab_FAR_Lookup_01_Subtable_01" uniFE96
Substitution2: "gsub_single_rtl_init_arab_FAR_Lookup_01_Subtable_01" uniFE97
Substitution2: "gsub_single_rtl_medi_arab_FAR_Lookup_01_Subtable_01" uniFE98
EndChar

StartChar: uniFE96
Encoding: 65174 65174 358
Width: 1675
VWidth: 1639
GlyphClass: 2
Flags: HW
AnchorPoint: "GposMark2BaseAnchorClassErabAbove_01_02" 851.114 1166.11 basechar 0
AnchorPoint: "GposMark2BaseAnchorClassErabBelow_01_02" 851.114 -161.107 basechar 0
LayerCount: 2
Fore
SplineSet
1018.66796875 779 m 1,0,1
 995.0546875 779.908203125 995.0546875 779.908203125 948.779296875 786.76171875 c 0,2,3
 910.842773438 792.266601562 910.842773438 792.266601562 892.387695312 793.759765625 c 0,4,5
 833.055664062 797.087890625 833.055664062 797.087890625 638.1875 797.040039062 c 0,6,7
 589.083984375 796.872070312 589.083984375 796.872070312 543.068359375 792.120117188 c 1,8,9
 511.48046875 786.600585938 511.48046875 786.600585938 506.98828125 788.83984375 c 0,10,11
 503.708007812 790.48046875 503.708007812 790.48046875 502.887695312 797.860351562 c 128,-1,12
 502.068359375 805.240234375 502.068359375 805.240234375 502.887695312 815.900390625 c 2,13,-1
 503.708007812 826.559570312 l 1,14,15
 498.856445312 886.387695312 498.856445312 886.387695312 498.788085938 946.280273438 c 0,16,17
 498.788085938 948.62109375 498.788085938 948.62109375 497.79296875 956.028320312 c 0,18,19
 495.350585938 985.149414062 495.350585938 985.149414062 503.708007812 988.919921875 c 0,20,21
 531.469726562 997.84375 531.469726562 997.84375 631.96875 1001.09960938 c 0,22,23
 643.3671875 1001.52441406 643.3671875 1001.52441406 651.307617188 1002.04003906 c 0,24,25
 871.478515625 1016.10546875 871.478515625 1016.10546875 1033.42773438 984 c 1,26,-1
 1018.66796875 779 l 1,0,1
1341.74804688 882.3203125 m 1,27,28
 1350.50488281 868.301757812 1350.50488281 868.301757812 1361.42773438 831.48046875 c 0,29,30
 1367.98828125 814.259765625 1367.98828125 814.259765625 1381.10839844 779 c 0,31,32
 1394.43261719 743.2265625 1394.43261719 743.2265625 1400.78808594 726.51953125 c 0,33,34
 1440.6953125 613.357421875 1440.6953125 613.357421875 1515.58789062 388.6796875 c 2,35,-1
 1561.5078125 252.559570312 l 2,36,37
 1580.29882812 197.6328125 1580.29882812 197.6328125 1610.70800781 182.040039062 c 1,38,39
 1636.61621094 175.243164062 1636.61621094 175.243164062 1705.828125 178.759765625 c 1,40,-1
 1705.828125 0 l 1,41,42
 1544.27636719 -11.107421875 1544.27636719 -11.107421875 1476.22753906 68.8798828125 c 0,43,44
 1453.6328125 95.2412109375 1453.6328125 95.2412109375 1449.98828125 104.959960938 c 1,45,46
 1383.36523438 35.1650390625 1383.36523438 35.1650390625 1342.48144531 16.5341796875 c 0,47,48
 1340.48339844 15.6240234375 1340.48339844 15.6240234375 1338.46777344 14.759765625 c 0,49,50
 1299.35058594 -1.7197265625 1299.35058594 -1.7197265625 1212.1875 -1.6396484375 c 2,51,-1
 1046.54785156 -1.6396484375 l 1,52,-1
 495.5078125 -1.6396484375 l 2,53,54
 333.290039062 -1.6396484375 333.290039062 -1.6396484375 319.314453125 -0.396484375 c 0,55,56
 225.73046875 8.8017578125 225.73046875 8.8017578125 164.227539062 49.2001953125 c 0,57,58
 37.517578125 135.36328125 37.517578125 135.36328125 6.935546875 316.2109375 c 0,59,60
 -3.599609375 380.958984375 -3.599609375 380.958984375 1.8681640625 442.799804688 c 0,61,62
 11.7255859375 534.069335938 11.7255859375 534.069335938 72.3876953125 670.759765625 c 1,63,64
 109.247070312 748.973632812 109.247070312 748.973632812 154.387695312 813.440429688 c 0,65,66
 158.04296875 818.139648438 158.04296875 818.139648438 165.40625 828.611328125 c 0,67,68
 181.525390625 851.53515625 181.525390625 851.53515625 190.467773438 859.360351562 c 1,69,70
 193.748046875 859.360351562 193.748046875 859.360351562 195.387695312 860.1796875 c 128,-1,71
 197.028320312 861 197.028320312 861 200.307617188 859.360351562 c 128,-1,72
 203.587890625 857.719726562 203.587890625 857.719726562 206.047851562 856.080078125 c 128,-1,73
 208.5078125 854.440429688 208.5078125 854.440429688 211.788085938 851.16015625 c 128,-1,74
 215.068359375 847.879882812 215.068359375 847.879882812 216.708007812 846.240234375 c 128,-1,75
 218.34765625 844.599609375 218.34765625 844.599609375 221.627929688 841.3203125 c 2,76,-1
 224.908203125 838.040039062 l 2,77,78
 234.201171875 830.38671875 234.201171875 830.38671875 252.788085938 815.444335938 c 0,79,80
 290.5078125 784.99609375 290.5078125 784.99609375 308.547851562 769.16015625 c 1,81,82
 330.77734375 752.48828125 330.77734375 752.48828125 331.680664062 748.484375 c 0,83,84
 331.602539062 745.677734375 331.602539062 745.677734375 331.5078125 744.559570312 c 0,85,86
 329.551757812 740.895507812 329.551757812 740.895507812 308.547851562 716.6796875 c 1,87,88
 284.567382812 684.2265625 284.567382812 684.2265625 269.1875 656 c 0,89,90
 142.944335938 431.4453125 142.944335938 431.4453125 203.587890625 283.719726562 c 0,91,92
 212.818359375 263.984375 212.818359375 263.984375 229.828125 241.080078125 c 0,93,94
 276.083007812 179.903320312 276.083007812 179.903320312 383.920898438 177.341796875 c 0,95,96
 395.7734375 177.099609375 395.7734375 177.099609375 429.908203125 177.120117188 c 2,97,-1
 976.028320312 177.120117188 l 1,98,-1
 1140.02832031 177.120117188 l 2,99,100
 1217.13476562 177.534179688 1217.13476562 177.534179688 1235.14746094 182.040039062 c 0,101,102
 1308.2265625 203.963867188 1308.2265625 203.963867188 1326.4375 292.991210938 c 0,103,104
 1330.82617188 314.442382812 1330.82617188 314.442382812 1330.26757812 336.200195312 c 0,105,106
 1329.18359375 361.141601562 1329.18359375 361.141601562 1298.17089844 443.052734375 c 0,107,108
 1296.65332031 447.116210938 1296.65332031 447.116210938 1295.828125 449.360351562 c 0,109,110
 1243.13183594 607.346679688 1243.13183594 607.346679688 1215.46777344 685.51953125 c 0,111,112
 1210.54785156 699.459960938 1210.54785156 699.459960938 1200.70800781 728.16015625 c 0,113,114
 1190.67871094 757.366210938 1190.67871094 757.366210938 1185.94824219 770.799804688 c 0,115,116
 1185.40136719 773.533203125 1185.40136719 773.533203125 1182.36425781 781.125976562 c 0,117,118
 1175.56152344 798.133789062 1175.56152344 798.133789062 1177.74804688 803.599609375 c 0,119,120
 1179.2890625 808.223632812 1179.2890625 808.223632812 1216.7109375 824.728515625 c 0,121,122
 1219.43164062 826.078125 1219.43164062 826.078125 1220.38769531 826.559570312 c 0,123,124
 1298.45703125 858.037109375 1298.45703125 858.037109375 1341.74804688 882.3203125 c 1,27,28
EndSplineSet
EndChar

StartChar: uniFE97
Encoding: 65175 65175 359
Width: 676
VWidth: 1639
GlyphClass: 2
Flags: HW
AnchorPoint: "GposMark2BaseAnchorClassErabAbove_01_02" 240.24 1356.59 basechar 0
AnchorPoint: "GposMark2BaseAnchorClassErabBelow_01_02" 240.24 -156.54 basechar 0
LayerCount: 2
Fore
SplineSet
15.560546875 1189 m 1,0,1
 28.0244140625 1190.31152344 28.0244140625 1190.31152344 52.9521484375 1193.98535156 c 0,2,3
 90.890625 1199.42578125 90.890625 1199.42578125 109.040039062 1200.48046875 c 0,4,5
 211.038085938 1206.59179688 211.038085938 1206.59179688 351.759765625 1203.75976562 c 0,6,7
 495.081054688 1199.8671875 495.081054688 1199.8671875 553.48046875 1184.08007812 c 1,8,9
 544.762695312 1139.26953125 544.762695312 1139.26953125 537.080078125 979.080078125 c 1,10,11
 334.791015625 1005.41699219 334.791015625 1005.41699219 159.879882812 998.759765625 c 0,12,13
 136.919921875 997.940429688 136.919921875 997.940429688 91.8203125 993.01953125 c 0,14,15
 46.1474609375 988.15625 46.1474609375 988.15625 23.759765625 987.280273438 c 1,16,17
 23.5615234375 1123.85449219 23.5615234375 1123.85449219 15.560546875 1189 c 1,0,1
173 805.240234375 m 1,18,-1
 289.440429688 857.719726562 l 1,19,-1
 341.919921875 880.6796875 l 1,20,21
 343.977539062 872.962890625 343.977539062 872.962890625 384.1640625 767.352539062 c 0,22,23
 390.427734375 750.598632812 390.427734375 750.598632812 394.400390625 738 c 0,24,25
 408.33984375 697 408.33984375 697 437.040039062 615 c 0,26,27
 465.915039062 532.453125 465.915039062 532.453125 479.6796875 492 c 0,28,29
 516.93359375 379.065429688 516.93359375 379.065429688 520.6796875 342.759765625 c 0,30,31
 533.532226562 193.674804688 533.532226562 193.674804688 438.466796875 84.02734375 c 0,32,33
 435.392578125 80.544921875 435.392578125 80.544921875 433.759765625 78.7197265625 c 0,34,35
 386.599609375 27.8037109375 386.599609375 27.8037109375 327.16015625 8.2001953125 c 1,36,37
 270.181640625 -3.6064453125 270.181640625 -3.6064453125 153.3203125 -1.6396484375 c 0,38,39
 130.434570312 -1.6396484375 130.434570312 -1.6396484375 83.5390625 -3.22265625 c 0,40,41
 -22.5703125 -6.5400390625 -22.5703125 -6.5400390625 -73 0 c 1,42,-1
 -73 178.759765625 l 1,43,44
 -37.740234375 178.759765625 -37.740234375 178.759765625 33.599609375 177.940429688 c 0,45,46
 105.469726562 177.1328125 105.469726562 177.1328125 140.200195312 177.120117188 c 0,47,48
 218.364257812 177.120117188 218.364257812 177.120117188 241.120117188 185.986328125 c 0,49,50
 249.985351562 189.74609375 249.985351562 189.74609375 256.639648438 193.51953125 c 0,51,52
 322.272460938 231.30859375 322.272460938 231.30859375 328.716796875 315.2421875 c 0,53,54
 329.865234375 335.165039062 329.865234375 335.165039062 327.16015625 352.599609375 c 0,55,56
 324.029296875 367.208007812 324.029296875 367.208007812 285.73046875 474.118164062 c 0,57,58
 283.055664062 481.690429688 283.055664062 481.690429688 281.240234375 487.080078125 c 0,59,60
 264.020507812 540.379882812 264.020507812 540.379882812 227.120117188 646.16015625 c 0,61,62
 190.067382812 752.498046875 190.067382812 752.498046875 173 805.240234375 c 1,18,-1
EndSplineSet
EndChar

StartChar: uniFE98
Encoding: 65176 65176 360
Width: 627
VWidth: 1639
GlyphClass: 2
Flags: HW
AnchorPoint: "GposMark2BaseAnchorClassErabAbove_01_02" 292.72 1355.49 basechar 0
AnchorPoint: "GposMark2BaseAnchorClassErabBelow_01_02" 292.72 -165.207 basechar 0
LayerCount: 2
Fore
SplineSet
30.3203125 987.280273438 m 1,0,1
 30.3203125 1011.87988281 30.3203125 1011.87988281 27.8603515625 1061.90039062 c 0,2,3
 25.4521484375 1112.44335938 25.4521484375 1112.44335938 25.400390625 1136.51953125 c 0,4,5
 25.400390625 1140.53515625 25.400390625 1140.53515625 23.8017578125 1151.77148438 c 0,6,7
 20.6494140625 1180.10449219 20.6494140625 1180.10449219 25.400390625 1187.36035156 c 0,8,9
 28.8076171875 1190.56933594 28.8076171875 1190.56933594 54.919921875 1195.55957031 c 0,10,11
 69.6796875 1197.20019531 69.6796875 1197.20019531 100.020507812 1198.83984375 c 0,12,13
 130.868164062 1200.59570312 130.868164062 1200.59570312 145.120117188 1202.12011719 c 0,14,15
 175.979492188 1205.49316406 175.979492188 1205.49316406 274.6796875 1205.40039062 c 0,16,17
 416.266601562 1205.24902344 416.266601562 1205.24902344 486.240234375 1198.83984375 c 0,18,19
 498.540039062 1197.20019531 498.540039062 1197.20019531 523.139648438 1192.28027344 c 0,20,21
 548.287109375 1187.35546875 548.287109375 1187.35546875 560.040039062 1185.71972656 c 1,22,23
 553.162109375 1133.30371094 553.162109375 1133.30371094 546.919921875 1039.75976562 c 0,24,25
 546.919921875 1033.20019531 546.919921875 1033.20019531 546.099609375 1020.08007812 c 0,26,27
 545.33984375 1006.41308594 545.33984375 1006.41308594 545.280273438 1000.40039062 c 0,28,29
 544.4375 985.411132812 544.4375 985.411132812 543.639648438 984 c 0,30,31
 538.3125 978.715820312 538.3125 978.715820312 512.48046875 985.639648438 c 1,32,33
 461.625976562 993.102539062 461.625976562 993.102539062 415.719726562 995.48046875 c 0,34,35
 172.510742188 1004.95605469 172.510742188 1004.95605469 86.60546875 995.48046875 c 0,36,37
 56.533203125 992.045898438 56.533203125 992.045898438 30.3203125 987.280273438 c 1,0,1
118.879882812 805.240234375 m 1,38,-1
 227.120117188 854.440429688 l 1,39,-1
 286.16015625 880.6796875 l 1,40,41
 352.6484375 710.711914062 352.6484375 710.711914062 456.719726562 398.51953125 c 1,42,-1
 499.360351562 267.3203125 l 1,43,44
 523.676757812 207.154296875 523.676757812 207.154296875 537.080078125 193.51953125 c 0,45,46
 559.752929688 173.366210938 559.752929688 173.366210938 639.53125 178.064453125 c 0,47,48
 651.8046875 178.703125 651.8046875 178.703125 658.440429688 178.759765625 c 1,49,-1
 658.440429688 0 l 1,50,51
 452.559570312 -15.20703125 452.559570312 -15.20703125 392.759765625 104.959960938 c 1,52,53
 326.020507812 35.0419921875 326.020507812 35.0419921875 283.6953125 15.0068359375 c 0,54,55
 280.826171875 13.681640625 280.826171875 13.681640625 279.599609375 13.1201171875 c 0,56,57
 229.990234375 -2.65234375 229.990234375 -2.65234375 125.440429688 -1.6396484375 c 0,58,59
 105.326171875 -1.6396484375 105.326171875 -1.6396484375 64.4111328125 -2.8759765625 c 0,60,61
 -29.1240234375 -5.451171875 -29.1240234375 -5.451171875 -73 0 c 1,62,-1
 -73 178.759765625 l 1,63,64
 -45.1201171875 178.759765625 -45.1201171875 178.759765625 9.8203125 177.940429688 c 0,65,66
 65.328125 177.135742188 65.328125 177.135742188 92.6396484375 177.120117188 c 0,67,68
 163.170898438 177.653320312 163.170898438 177.653320312 181.200195312 183.6796875 c 0,69,70
 250.913085938 209.184570312 250.913085938 209.184570312 269.750976562 290.005859375 c 0,71,72
 277.563476562 323.522460938 277.563476562 323.522460938 271.400390625 355.879882812 c 0,73,74
 270.31640625 360.396484375 270.31640625 360.396484375 232.01953125 472.4453125 c 0,75,76
 230.922851562 475.685546875 230.922851562 475.685546875 230.400390625 477.240234375 c 0,77,78
 218.919921875 507.580078125 218.919921875 507.580078125 198.419921875 569.900390625 c 0,79,80
 177.674804688 632.728515625 177.674804688 632.728515625 166.440429688 662.559570312 c 0,81,82
 125.904296875 776.58203125 125.904296875 776.58203125 118.879882812 805.240234375 c 1,38,-1
EndSplineSet
EndChar

StartChar: afii57419
Encoding: 1579 1579 361
AltUni2: 00fe99.ffffffff.0
Width: 1680
VWidth: 1639
GlyphClass: 2
Flags: HW
AnchorPoint: "GposMark2BaseAnchorClassErabAbove_01_02" 762.032 1409.84 basechar 0
AnchorPoint: "GposMark2BaseAnchorClassErabBelow_01_02" 762.032 -155.366 basechar 0
LayerCount: 2
Fore
SplineSet
638.499023438 1248.04003906 m 1,0,1
 690.421875 1259.84082031 690.421875 1259.84082031 828.739257812 1253.85644531 c 0,2,3
 843.352539062 1253.22460938 843.352539062 1253.22460938 854.979492188 1252.95996094 c 1,4,-1
 854.979492188 1054.51953125 l 1,5,6
 769.30078125 1064.40625 769.30078125 1064.40625 723.779296875 1062.71972656 c 0,7,8
 711.908203125 1062.02148438 711.908203125 1062.02148438 687.526367188 1058.83496094 c 0,9,10
 654.5078125 1054.51953125 654.5078125 1054.51953125 638.499023438 1054.51953125 c 1,11,-1
 638.499023438 1248.04003906 l 1,0,1
1009.13964844 774.080078125 m 1,12,13
 992.411132812 775.064453125 992.411132812 775.064453125 958.955078125 780.57421875 c 0,14,15
 936.104492188 784.264648438 936.104492188 784.264648438 925.499023438 785.559570312 c 0,16,17
 897.086914062 788.122070312 897.086914062 788.122070312 766.419921875 792.120117188 c 0,18,19
 666.005859375 796.040039062 666.005859375 796.040039062 646.69921875 793.759765625 c 0,20,21
 626.10546875 790.952148438 626.10546875 790.952148438 583.924804688 789.612304688 c 0,22,23
 551.786132812 788.499023438 551.786132812 788.499023438 536.819335938 787.200195312 c 0,24,25
 502.973632812 781.169921875 502.973632812 781.169921875 497.458984375 783.919921875 c 1,26,27
 492.807617188 788.8125 492.807617188 788.8125 494.1796875 821.639648438 c 1,28,29
 489.259765625 880.6796875 489.259765625 880.6796875 489.259765625 939.719726562 c 0,30,31
 489.259765625 942.193359375 489.259765625 942.193359375 488.147460938 950.16796875 c 0,32,33
 485.353515625 979.264648438 485.353515625 979.264648438 492.5390625 984 c 1,34,35
 501.356445312 986.590820312 501.356445312 986.590820312 540.099609375 990.559570312 c 0,36,37
 572.96484375 993.765625 572.96484375 993.765625 640.139648438 997.120117188 c 0,38,39
 892.124023438 1006.54003906 892.124023438 1006.54003906 1023.89941406 979.080078125 c 1,40,-1
 1009.13964844 774.080078125 l 1,12,13
1342.05957031 882.3203125 m 1,41,42
 1348.58007812 871.055664062 1348.58007812 871.055664062 1369.93945312 810.16015625 c 1,43,44
 1396.47460938 743.551757812 1396.47460938 743.551757812 1424.05957031 660.919921875 c 0,45,46
 1459.96484375 558.602539062 1459.96484375 558.602539062 1486.37988281 477.240234375 c 0,47,48
 1520.95605469 372.13671875 1520.95605469 372.13671875 1524.09960938 326.360351562 c 0,49,50
 1527.95605469 248.321289062 1527.95605469 248.321289062 1492.93945312 164 c 0,51,52
 1475.859375 126.305664062 1475.859375 126.305664062 1447.01953125 91.83984375 c 0,53,54
 1405.80859375 43.158203125 1405.80859375 43.158203125 1363.37988281 21.3203125 c 0,55,56
 1308.67382812 -5.3662109375 1308.67382812 -5.3662109375 1183.19140625 -2.2509765625 c 0,57,58
 1158.55664062 -1.6396484375 1158.55664062 -1.6396484375 1145.25976562 -1.6396484375 c 2,59,-1
 738.5390625 -1.6396484375 l 1,60,-1
 420.379882812 -1.6396484375 l 2,61,62
 275.711914062 -1.6396484375 275.711914062 -1.6396484375 213.739257812 23.267578125 c 0,63,64
 179.456054688 37.6298828125 179.456054688 37.6298828125 151.419921875 59.0400390625 c 0,65,66
 22.953125 159.73046875 22.953125 159.73046875 2.775390625 344.278320312 c 0,67,68
 -3.892578125 409.126953125 -3.892578125 409.126953125 5.458984375 470.6796875 c 0,69,70
 18.55859375 548.326171875 18.55859375 548.326171875 74.33984375 672.400390625 c 0,71,72
 105.477539062 745.500976562 105.477539062 745.500976562 157.979492188 816.719726562 c 0,73,74
 160.442382812 819.674804688 160.442382812 819.674804688 166.920898438 830.021484375 c 0,75,76
 185.29296875 857.502929688 185.29296875 857.502929688 194.059570312 861 c 1,77,78
 201.295898438 859.872070312 201.295898438 859.872070312 223.579101562 839.6796875 c 0,79,80
 236.69921875 829.01953125 236.69921875 829.01953125 263.759765625 806.879882812 c 128,-1,81
 290.819335938 784.740234375 290.819335938 784.740234375 303.939453125 774.080078125 c 0,82,83
 331.204101562 751.831054688 331.204101562 751.831054688 331.819335938 746.200195312 c 0,84,85
 331.215820312 742.580078125 331.215820312 742.580078125 311.9453125 719.259765625 c 0,86,87
 309.708007812 716.235351562 309.708007812 716.235351562 308.859375 715.040039062 c 0,88,89
 284.515625 683.57421875 284.515625 683.57421875 259.659179688 639.599609375 c 0,90,91
 136.599609375 406.434570312 136.599609375 406.434570312 211.713867188 267.920898438 c 0,92,93
 224.859375 244.751953125 224.859375 244.751953125 241.619140625 226.3203125 c 0,94,95
 292.509765625 172.750976562 292.509765625 172.750976562 419.092773438 175.532226562 c 0,96,97
 427.336914062 175.713867188 427.336914062 175.713867188 443.643554688 176.236328125 c 0,98,99
 471.704101562 177.086914062 471.704101562 177.086914062 484.33984375 177.120117188 c 2,100,-1
 1009.13964844 177.120117188 l 1,101,-1
 1153.45898438 177.120117188 l 2,102,103
 1225.30078125 177.795898438 1225.30078125 177.795898438 1246.93945312 186.959960938 c 0,104,105
 1317.43554688 216.333007812 1317.43554688 216.333007812 1329.25488281 305.846679688 c 0,106,107
 1331.29394531 323.52734375 1331.29394531 323.52734375 1330.57910156 339.48046875 c 0,108,109
 1328.88769531 358.93359375 1328.88769531 358.93359375 1299.86132812 441.563476562 c 0,110,111
 1297.57128906 448.219726562 1297.57128906 448.219726562 1296.13964844 452.639648438 c 0,112,113
 1283.01953125 491.1796875 1283.01953125 491.1796875 1255.95898438 569.080078125 c 0,114,115
 1228.72558594 647.51171875 1228.72558594 647.51171875 1215.77929688 685.51953125 c 0,116,117
 1210.859375 699.459960938 1210.859375 699.459960938 1201.01953125 728.16015625 c 0,118,119
 1190.99023438 757.366210938 1190.99023438 757.366210938 1186.25976562 770.799804688 c 0,120,121
 1185.71289062 773.533203125 1185.71289062 773.533203125 1182.67578125 781.125976562 c 0,122,123
 1175.87304688 798.133789062 1175.87304688 798.133789062 1178.05957031 803.599609375 c 0,124,125
 1179.60058594 808.223632812 1179.60058594 808.223632812 1217.02246094 824.728515625 c 0,126,127
 1219.74316406 826.078125 1219.74316406 826.078125 1220.69921875 826.559570312 c 0,128,129
 1298.76855469 858.037109375 1298.76855469 858.037109375 1342.05957031 882.3203125 c 1,41,42
EndSplineSet
AlternateSubs2: "gsub_alternate_dfl_aalt_arab_FAR_Lookup_01_Subtable_01" uniFE9A uniFE9B afii57419 uniFE9C
Substitution2: "gsub_single_rtl_fina_arab_FAR_Lookup_01_Subtable_01" uniFE9A
Substitution2: "gsub_single_rtl_init_arab_FAR_Lookup_01_Subtable_01" uniFE9B
Substitution2: "gsub_single_rtl_medi_arab_FAR_Lookup_01_Subtable_01" uniFE9C
EndChar

StartChar: uniFE9A
Encoding: 65178 65178 362
Width: 1675
VWidth: 1639
GlyphClass: 2
Flags: HW
AnchorPoint: "GposMark2BaseAnchorClassErabAbove_01_02" 851.114 1409.84 basechar 0
AnchorPoint: "GposMark2BaseAnchorClassErabBelow_01_02" 851.114 -161.107 basechar 0
LayerCount: 2
Fore
SplineSet
638.1875 1248.04003906 m 1,0,1
 690.110351562 1259.84082031 690.110351562 1259.84082031 828.427734375 1253.85644531 c 0,2,3
 843.041015625 1253.22460938 843.041015625 1253.22460938 854.66796875 1252.95996094 c 1,4,-1
 854.66796875 1054.51953125 l 1,5,6
 768.989257812 1064.40625 768.989257812 1064.40625 723.467773438 1062.71972656 c 0,7,8
 711.596679688 1062.02148438 711.596679688 1062.02148438 687.21484375 1058.83496094 c 0,9,10
 654.196289062 1054.51953125 654.196289062 1054.51953125 638.1875 1054.51953125 c 1,11,-1
 638.1875 1248.04003906 l 1,0,1
1008.828125 774.080078125 m 1,12,13
 992.099609375 775.064453125 992.099609375 775.064453125 958.643554688 780.57421875 c 0,14,15
 935.79296875 784.264648438 935.79296875 784.264648438 925.1875 785.559570312 c 0,16,17
 896.775390625 788.122070312 896.775390625 788.122070312 766.108398438 792.120117188 c 0,18,19
 665.694335938 796.040039062 665.694335938 796.040039062 646.387695312 793.759765625 c 0,20,21
 625.793945312 790.952148438 625.793945312 790.952148438 583.61328125 789.612304688 c 0,22,23
 551.474609375 788.499023438 551.474609375 788.499023438 536.5078125 787.200195312 c 0,24,25
 502.662109375 781.169921875 502.662109375 781.169921875 497.147460938 783.919921875 c 1,26,27
 492.49609375 788.8125 492.49609375 788.8125 493.868164062 821.639648438 c 1,28,29
 488.948242188 880.6796875 488.948242188 880.6796875 488.948242188 939.719726562 c 0,30,31
 488.948242188 942.193359375 488.948242188 942.193359375 487.8359375 950.16796875 c 0,32,33
 485.041992188 979.264648438 485.041992188 979.264648438 492.227539062 984 c 1,34,35
 501.044921875 986.590820312 501.044921875 986.590820312 539.788085938 990.559570312 c 0,36,37
 572.653320312 993.765625 572.653320312 993.765625 639.828125 997.120117188 c 0,38,39
 891.8125 1006.54003906 891.8125 1006.54003906 1023.58789062 979.080078125 c 1,40,-1
 1008.828125 774.080078125 l 1,12,13
1341.74804688 882.3203125 m 1,41,42
 1350.50488281 868.301757812 1350.50488281 868.301757812 1361.42773438 831.48046875 c 0,43,44
 1367.98828125 814.259765625 1367.98828125 814.259765625 1381.10839844 779 c 0,45,46
 1394.43261719 743.2265625 1394.43261719 743.2265625 1400.78808594 726.51953125 c 0,47,48
 1440.6953125 613.357421875 1440.6953125 613.357421875 1515.58789062 388.6796875 c 2,49,-1
 1561.5078125 252.559570312 l 2,50,51
 1580.29882812 197.6328125 1580.29882812 197.6328125 1610.70800781 182.040039062 c 1,52,53
 1636.61621094 175.243164062 1636.61621094 175.243164062 1705.828125 178.759765625 c 1,54,-1
 1705.828125 0 l 1,55,56
 1544.27636719 -11.107421875 1544.27636719 -11.107421875 1476.22753906 68.8798828125 c 0,57,58
 1453.6328125 95.2412109375 1453.6328125 95.2412109375 1449.98828125 104.959960938 c 1,59,60
 1383.36523438 35.1650390625 1383.36523438 35.1650390625 1342.48144531 16.5341796875 c 0,61,62
 1340.48339844 15.6240234375 1340.48339844 15.6240234375 1338.46777344 14.759765625 c 0,63,64
 1299.35058594 -1.7197265625 1299.35058594 -1.7197265625 1212.1875 -1.6396484375 c 2,65,-1
 1046.54785156 -1.6396484375 l 1,66,-1
 495.5078125 -1.6396484375 l 2,67,68
 333.290039062 -1.6396484375 333.290039062 -1.6396484375 319.314453125 -0.396484375 c 0,69,70
 225.73046875 8.8017578125 225.73046875 8.8017578125 164.227539062 49.2001953125 c 0,71,72
 37.517578125 135.36328125 37.517578125 135.36328125 6.935546875 316.2109375 c 0,73,74
 -3.599609375 380.958984375 -3.599609375 380.958984375 1.8681640625 442.799804688 c 0,75,76
 11.7255859375 534.069335938 11.7255859375 534.069335938 72.3876953125 670.759765625 c 1,77,78
 109.247070312 748.973632812 109.247070312 748.973632812 154.387695312 813.440429688 c 0,79,80
 158.04296875 818.139648438 158.04296875 818.139648438 165.40625 828.611328125 c 0,81,82
 181.525390625 851.53515625 181.525390625 851.53515625 190.467773438 859.360351562 c 1,83,84
 193.748046875 859.360351562 193.748046875 859.360351562 195.387695312 860.1796875 c 128,-1,85
 197.028320312 861 197.028320312 861 200.307617188 859.360351562 c 128,-1,86
 203.587890625 857.719726562 203.587890625 857.719726562 206.047851562 856.080078125 c 128,-1,87
 208.5078125 854.440429688 208.5078125 854.440429688 211.788085938 851.16015625 c 128,-1,88
 215.068359375 847.879882812 215.068359375 847.879882812 216.708007812 846.240234375 c 128,-1,89
 218.34765625 844.599609375 218.34765625 844.599609375 221.627929688 841.3203125 c 2,90,-1
 224.908203125 838.040039062 l 2,91,92
 234.201171875 830.38671875 234.201171875 830.38671875 252.788085938 815.444335938 c 0,93,94
 290.5078125 784.99609375 290.5078125 784.99609375 308.547851562 769.16015625 c 1,95,96
 330.77734375 752.48828125 330.77734375 752.48828125 331.680664062 748.484375 c 0,97,98
 331.602539062 745.677734375 331.602539062 745.677734375 331.5078125 744.559570312 c 0,99,100
 329.551757812 740.895507812 329.551757812 740.895507812 308.547851562 716.6796875 c 1,101,102
 284.567382812 684.2265625 284.567382812 684.2265625 269.1875 656 c 0,103,104
 142.944335938 431.4453125 142.944335938 431.4453125 203.587890625 283.719726562 c 0,105,106
 212.818359375 263.984375 212.818359375 263.984375 229.828125 241.080078125 c 0,107,108
 276.083007812 179.903320312 276.083007812 179.903320312 383.920898438 177.341796875 c 0,109,110
 395.7734375 177.099609375 395.7734375 177.099609375 429.908203125 177.120117188 c 2,111,-1
 976.028320312 177.120117188 l 1,112,-1
 1140.02832031 177.120117188 l 2,113,114
 1217.13476562 177.534179688 1217.13476562 177.534179688 1235.14746094 182.040039062 c 0,115,116
 1308.2265625 203.963867188 1308.2265625 203.963867188 1326.4375 292.991210938 c 0,117,118
 1330.82617188 314.442382812 1330.82617188 314.442382812 1330.26757812 336.200195312 c 0,119,120
 1329.18359375 361.141601562 1329.18359375 361.141601562 1298.17089844 443.052734375 c 0,121,122
 1296.65332031 447.116210938 1296.65332031 447.116210938 1295.828125 449.360351562 c 0,123,124
 1243.13183594 607.346679688 1243.13183594 607.346679688 1215.46777344 685.51953125 c 0,125,126
 1210.54785156 699.459960938 1210.54785156 699.459960938 1200.70800781 728.16015625 c 0,127,128
 1190.67871094 757.366210938 1190.67871094 757.366210938 1185.94824219 770.799804688 c 0,129,130
 1185.40136719 773.533203125 1185.40136719 773.533203125 1182.36425781 781.125976562 c 0,131,132
 1175.56152344 798.133789062 1175.56152344 798.133789062 1177.74804688 803.599609375 c 0,133,134
 1179.2890625 808.223632812 1179.2890625 808.223632812 1216.7109375 824.728515625 c 0,135,136
 1219.43164062 826.078125 1219.43164062 826.078125 1220.38769531 826.559570312 c 0,137,138
 1298.45703125 858.037109375 1298.45703125 858.037109375 1341.74804688 882.3203125 c 1,41,42
EndSplineSet
EndChar

StartChar: uniFE9B
Encoding: 65179 65179 363
Width: 656
VWidth: 1639
GlyphClass: 2
Flags: HW
AnchorPoint: "GposMark2BaseAnchorClassErabAbove_01_02" 237.266 1620.16 basechar 0
AnchorPoint: "GposMark2BaseAnchorClassErabBelow_01_02" 237.266 -156.54 basechar 0
LayerCount: 2
Fore
SplineSet
153.759765625 1256.24023438 m 1,0,-1
 153.759765625 1397.28027344 l 2,1,2
 153.759765625 1400.26855469 153.759765625 1400.26855469 153.048828125 1409.24707031 c 0,3,4
 151.249023438 1440.3046875 151.249023438 1440.3046875 155.400390625 1448.12011719 c 0,5,6
 160.50390625 1455.265625 160.50390625 1455.265625 200.654296875 1457.59570312 c 0,7,8
 203.5234375 1457.85449219 203.5234375 1457.85449219 204.599609375 1457.95996094 c 0,9,10
 286.063476562 1470.15527344 286.063476562 1470.15527344 370.240234375 1454.6796875 c 1,11,-1
 370.240234375 1257.87988281 l 1,12,13
 355.596679688 1257.87988281 355.596679688 1257.87988281 327.360351562 1261.38085938 c 0,14,15
 307.451171875 1263.7578125 307.451171875 1263.7578125 298.080078125 1264.44042969 c 0,16,17
 228.803710938 1266.47265625 228.803710938 1266.47265625 153.759765625 1256.24023438 c 1,0,-1
2.8798828125 1185.71972656 m 1,18,19
 116.61328125 1207.04492188 116.61328125 1207.04492188 368.673828125 1199.77246094 c 0,20,21
 388.760742188 1199.19238281 388.760742188 1199.19238281 403.040039062 1198.83984375 c 0,22,23
 440.587890625 1198.6015625 440.587890625 1198.6015625 504.719726562 1189 c 1,24,25
 535.169921875 1181.90917969 535.169921875 1181.90917969 537.520507812 1179.16015625 c 1,26,27
 538.778320312 1173.86523438 538.778320312 1173.86523438 535.879882812 1164.40039062 c 0,28,29
 532.759765625 1141.05175781 532.759765625 1141.05175781 532.599609375 1128.3203125 c 0,30,31
 531.897460938 1106.53125 531.897460938 1106.53125 528.684570312 1062.95410156 c 0,32,33
 524.400390625 1004.8515625 524.400390625 1004.8515625 524.400390625 975.799804688 c 1,34,35
 466.255859375 986.901367188 466.255859375 986.901367188 319.400390625 993.83984375 c 0,36,37
 149.233398438 1001.65722656 149.233398438 1001.65722656 11.080078125 984 c 1,38,-1
 7.7998046875 1062.71972656 l 1,39,-1
 2.8798828125 1185.71972656 l 1,18,19
180 805.240234375 m 1,40,-1
 296.440429688 857.719726562 l 1,41,-1
 348.919921875 880.6796875 l 1,42,43
 350.977539062 872.962890625 350.977539062 872.962890625 391.1640625 767.352539062 c 0,44,45
 397.427734375 750.598632812 397.427734375 750.598632812 401.400390625 738 c 0,46,47
 415.33984375 697 415.33984375 697 444.040039062 615 c 0,48,49
 472.915039062 532.453125 472.915039062 532.453125 486.6796875 492 c 0,50,51
 523.93359375 379.065429688 523.93359375 379.065429688 527.6796875 342.759765625 c 0,52,53
 540.532226562 193.674804688 540.532226562 193.674804688 445.466796875 84.02734375 c 0,54,55
 442.392578125 80.544921875 442.392578125 80.544921875 440.759765625 78.7197265625 c 0,56,57
 393.599609375 27.8037109375 393.599609375 27.8037109375 334.16015625 8.2001953125 c 1,58,59
 277.181640625 -3.6064453125 277.181640625 -3.6064453125 160.3203125 -1.6396484375 c 0,60,61
 137.434570312 -1.6396484375 137.434570312 -1.6396484375 90.5390625 -3.22265625 c 0,62,63
 -15.5703125 -6.5400390625 -15.5703125 -6.5400390625 -66 0 c 1,64,-1
 -66 178.759765625 l 1,65,66
 -30.740234375 178.759765625 -30.740234375 178.759765625 40.599609375 177.940429688 c 0,67,68
 112.469726562 177.1328125 112.469726562 177.1328125 147.200195312 177.120117188 c 0,69,70
 225.364257812 177.120117188 225.364257812 177.120117188 248.120117188 185.986328125 c 0,71,72
 256.985351562 189.74609375 256.985351562 189.74609375 263.639648438 193.51953125 c 0,73,74
 329.272460938 231.30859375 329.272460938 231.30859375 335.716796875 315.2421875 c 0,75,76
 336.865234375 335.165039062 336.865234375 335.165039062 334.16015625 352.599609375 c 0,77,78
 331.029296875 367.208007812 331.029296875 367.208007812 292.73046875 474.118164062 c 0,79,80
 290.055664062 481.690429688 290.055664062 481.690429688 288.240234375 487.080078125 c 0,81,82
 271.020507812 540.379882812 271.020507812 540.379882812 234.120117188 646.16015625 c 0,83,84
 197.067382812 752.498046875 197.067382812 752.498046875 180 805.240234375 c 1,40,-1
EndSplineSet
EndChar

StartChar: uniFE9C
Encoding: 65180 65180 364
Width: 634
VWidth: 1639
GlyphClass: 2
Flags: HW
AnchorPoint: "GposMark2BaseAnchorClassErabAbove_01_02" 299.72 1624.5 basechar 0
AnchorPoint: "GposMark2BaseAnchorClassErabBelow_01_02" 299.72 -165.207 basechar 0
LayerCount: 2
Fore
SplineSet
175.080078125 1264.44042969 m 1,0,-1
 175.080078125 1405.48046875 l 2,1,2
 175.080078125 1408.46875 175.080078125 1408.46875 174.369140625 1417.44726562 c 0,3,4
 172.568359375 1448.50390625 172.568359375 1448.50390625 176.719726562 1456.3203125 c 0,5,6
 181.73828125 1463.34570312 181.73828125 1463.34570312 223.712890625 1465.8046875 c 0,7,8
 226.012695312 1465.93945312 226.012695312 1465.93945312 227.560546875 1466.16015625 c 0,9,10
 297.420898438 1474.5 297.420898438 1474.5 391.560546875 1462.87988281 c 1,11,-1
 391.560546875 1264.44042969 l 1,12,13
 335.603515625 1277.453125 335.603515625 1277.453125 194.427734375 1265.91894531 c 0,14,15
 182.977539062 1265.00195312 182.977539062 1265.00195312 175.080078125 1264.44042969 c 1,0,-1
22.560546875 1193.91992188 m 1,16,17
 35.0244140625 1195.23242188 35.0244140625 1195.23242188 59.9521484375 1198.90527344 c 0,18,19
 97.890625 1204.34570312 97.890625 1204.34570312 116.040039062 1205.40039062 c 0,20,21
 218.038085938 1211.51171875 218.038085938 1211.51171875 358.759765625 1208.6796875 c 0,22,23
 502.081054688 1204.78710938 502.081054688 1204.78710938 560.48046875 1189 c 1,24,25
 551.762695312 1144.18945312 551.762695312 1144.18945312 544.080078125 984 c 1,26,27
 342.151367188 1010.28808594 342.151367188 1010.28808594 168.520507812 1003.6796875 c 0,28,29
 145.560546875 1002.86035156 145.560546875 1002.86035156 99.6396484375 997.940429688 c 0,30,31
 53.173828125 993.076171875 53.173828125 993.076171875 30.759765625 992.200195312 c 1,32,33
 30.5615234375 1128.77441406 30.5615234375 1128.77441406 22.560546875 1193.91992188 c 1,16,17
125.879882812 805.240234375 m 1,34,-1
 234.120117188 854.440429688 l 1,35,-1
 293.16015625 880.6796875 l 1,36,37
 359.6484375 710.711914062 359.6484375 710.711914062 463.719726562 398.51953125 c 1,38,-1
 506.360351562 267.3203125 l 1,39,40
 530.676757812 207.154296875 530.676757812 207.154296875 544.080078125 193.51953125 c 0,41,42
 566.752929688 173.366210938 566.752929688 173.366210938 646.53125 178.064453125 c 0,43,44
 658.8046875 178.703125 658.8046875 178.703125 665.440429688 178.759765625 c 1,45,-1
 665.440429688 0 l 1,46,47
 459.559570312 -15.20703125 459.559570312 -15.20703125 399.759765625 104.959960938 c 1,48,49
 333.020507812 35.0419921875 333.020507812 35.0419921875 290.6953125 15.0068359375 c 0,50,51
 287.826171875 13.681640625 287.826171875 13.681640625 286.599609375 13.1201171875 c 0,52,53
 236.990234375 -2.65234375 236.990234375 -2.65234375 132.440429688 -1.6396484375 c 0,54,55
 112.326171875 -1.6396484375 112.326171875 -1.6396484375 71.4111328125 -2.8759765625 c 0,56,57
 -22.1240234375 -5.451171875 -22.1240234375 -5.451171875 -66 0 c 1,58,-1
 -66 178.759765625 l 1,59,60
 -38.1201171875 178.759765625 -38.1201171875 178.759765625 16.8203125 177.940429688 c 0,61,62
 72.328125 177.135742188 72.328125 177.135742188 99.6396484375 177.120117188 c 0,63,64
 170.170898438 177.653320312 170.170898438 177.653320312 188.200195312 183.6796875 c 0,65,66
 257.913085938 209.184570312 257.913085938 209.184570312 276.750976562 290.005859375 c 0,67,68
 284.563476562 323.522460938 284.563476562 323.522460938 278.400390625 355.879882812 c 0,69,70
 277.31640625 360.396484375 277.31640625 360.396484375 239.01953125 472.4453125 c 0,71,72
 237.922851562 475.685546875 237.922851562 475.685546875 237.400390625 477.240234375 c 0,73,74
 225.919921875 507.580078125 225.919921875 507.580078125 205.419921875 569.900390625 c 0,75,76
 184.674804688 632.728515625 184.674804688 632.728515625 173.440429688 662.559570312 c 0,77,78
 132.904296875 776.58203125 132.904296875 776.58203125 125.879882812 805.240234375 c 1,34,-1
EndSplineSet
EndChar

StartChar: afii57420
Encoding: 1580 1580 365
AltUni2: 00fe9d.ffffffff.0
Width: 888
VWidth: 1639
GlyphClass: 2
Flags: HW
AnchorPoint: "GposMark2BaseAnchorClassErabAbove_01_02" 445.836 1025.55 basechar 0
AnchorPoint: "GposMark2BaseAnchorClassErabBelow_01_02" 445.836 -710.505 basechar 0
LayerCount: 2
Fore
SplineSet
79.0732421875 278.799804688 m 1,0,1
 87.5302734375 310.396484375 87.5302734375 310.396484375 139.752929688 426.400390625 c 1,2,3
 197.877929688 566.501953125 197.877929688 566.501953125 246.352539062 688.799804688 c 0,4,5
 282.53515625 778.05078125 282.53515625 778.05078125 301.564453125 801.329101562 c 0,6,7
 324.794921875 828.106445312 324.794921875 828.106445312 354.592773438 841.3203125 c 0,8,9
 435.146484375 875.5546875 435.146484375 875.5546875 522.348632812 842.671875 c 0,10,11
 553.541992188 830.189453125 553.541992188 830.189453125 574.352539062 811.799804688 c 0,12,13
 604.868164062 783.725585938 604.868164062 783.725585938 651.526367188 689.731445312 c 0,14,15
 658.33984375 676.119140625 658.33984375 676.119140625 662.913085938 667.48046875 c 2,16,-1
 800.672851562 411.639648438 l 2,17,18
 862.127929688 298.184570312 862.127929688 298.184570312 864.572265625 292.552734375 c 0,19,20
 893.713867188 223.07421875 893.713867188 223.07421875 885.953125 164 c 0,21,22
 873.346679688 77.8583984375 873.346679688 77.8583984375 803.552734375 28.1181640625 c 0,23,24
 782.419921875 13.72265625 782.419921875 13.72265625 761.3125 6.5595703125 c 1,25,26
 725.010742188 -2.5771484375 725.010742188 -2.5771484375 626.833007812 -1.6396484375 c 2,27,-1
 390.672851562 -1.6396484375 l 2,28,29
 269.08984375 -1.6396484375 269.08984375 -1.6396484375 227.685546875 -53.244140625 c 0,30,31
 219.310546875 -64.34765625 219.310546875 -64.34765625 213.552734375 -75.4404296875 c 1,32,33
 203.901367188 -102.2265625 203.901367188 -102.2265625 202.073242188 -114.799804688 c 0,34,35
 196.87890625 -140.49609375 196.87890625 -140.49609375 198.79296875 -160.719726562 c 0,36,37
 206.250976562 -240.272460938 206.250976562 -240.272460938 275.188476562 -275.03515625 c 0,38,39
 282.004882812 -278.288085938 282.004882812 -278.288085938 287.352539062 -280.440429688 c 0,40,41
 298.797851562 -283.96875 298.797851562 -283.96875 382.47265625 -296.83984375 c 0,42,43
 615.947265625 -335.727539062 615.947265625 -335.727539062 705.552734375 -349.3203125 c 0,44,45
 781.510742188 -360.247070312 781.510742188 -360.247070312 810.512695312 -365.719726562 c 0,46,47
 849.186523438 -371.092773438 849.186523438 -371.092773438 854.79296875 -373.919921875 c 0,48,49
 856.432617188 -375.559570312 856.432617188 -375.559570312 857.252929688 -378.83984375 c 128,-1,50
 858.073242188 -382.120117188 858.073242188 -382.120117188 858.073242188 -387.860351562 c 128,-1,51
 858.073242188 -393.599609375 858.073242188 -393.599609375 857.252929688 -397.700195312 c 128,-1,52
 856.432617188 -401.799804688 856.432617188 -401.799804688 854.79296875 -408.360351562 c 2,53,-1
 853.153320312 -414.919921875 l 1,54,-1
 838.392578125 -518.240234375 l 2,55,56
 837.896484375 -521.219726562 837.896484375 -521.219726562 837.486328125 -529.966796875 c 0,57,58
 835.703125 -552.440429688 835.703125 -552.440429688 831.833007812 -557.599609375 c 0,59,60
 828.272460938 -560.504882812 828.272460938 -560.504882812 815.432617188 -559.240234375 c 0,61,62
 807.233398438 -557.599609375 807.233398438 -557.599609375 790.833007812 -555.139648438 c 128,-1,63
 774.432617188 -552.6796875 774.432617188 -552.6796875 766.233398438 -551.040039062 c 0,64,65
 732.61328125 -545.299804688 732.61328125 -545.299804688 664.552734375 -534.639648438 c 128,-1,66
 596.493164062 -523.98046875 596.493164062 -523.98046875 562.873046875 -518.240234375 c 0,67,68
 521.052734375 -511.6796875 521.052734375 -511.6796875 438.233398438 -498.559570312 c 0,69,70
 354.852539062 -485.353515625 354.852539062 -485.353515625 313.592773438 -478.879882812 c 0,71,72
 199.897460938 -461.653320312 199.897460938 -461.653320312 162.171875 -443.411132812 c 0,73,74
 157.486328125 -441.073242188 157.486328125 -441.073242188 154.512695312 -439.51953125 c 0,75,76
 57.8681640625 -386.8046875 57.8681640625 -386.8046875 17.9658203125 -262.557617188 c 0,77,78
 14.521484375 -251.834960938 14.521484375 -251.834960938 11.8330078125 -241.080078125 c 0,79,80
 -2.041015625 -188.317382812 -2.041015625 -188.317382812 0.3525390625 -127.919921875 c 1,81,82
 6.017578125 -70.0166015625 6.017578125 -70.0166015625 21.6728515625 -24.599609375 c 0,83,84
 36.2900390625 12.8623046875 36.2900390625 12.8623046875 62.6728515625 47.5595703125 c 0,85,86
 151.606445312 158.31640625 151.606445312 158.31640625 313.592773438 175.48046875 c 0,87,88
 333.46484375 177.299804688 333.46484375 177.299804688 464.47265625 177.120117188 c 2,89,-1
 638.3125 177.120117188 l 2,90,91
 682.284179688 177.120117188 682.284179688 177.120117188 689.578125 180.965820312 c 0,92,93
 696.96484375 186.330078125 696.96484375 186.330078125 700.6328125 191.879882812 c 0,94,95
 714.4765625 216.798828125 714.4765625 216.798828125 669.328125 287.540039062 c 0,96,97
 666.0703125 292.721679688 666.0703125 292.721679688 664.552734375 295.200195312 c 0,98,99
 639.1328125 340.299804688 639.1328125 340.299804688 589.932617188 431.3203125 c 0,100,101
 540.407226562 522.874023438 540.407226562 522.874023438 515.3125 567.440429688 c 0,102,103
 480.249023438 632.512695312 480.249023438 632.512695312 471.033203125 644.51953125 c 0,104,105
 456.421875 662.783203125 456.421875 662.783203125 441.512695312 660.919921875 c 1,106,107
 425.326171875 655.05859375 425.326171875 655.05859375 415.272460938 633.040039062 c 0,108,109
 410.352539062 619.919921875 410.352539062 619.919921875 400.512695312 592.860351562 c 0,110,111
 390.471679688 565.295898438 390.471679688 565.295898438 385.752929688 552.6796875 c 0,112,113
 368.452148438 509.748046875 368.452148438 509.748046875 337.34765625 421.858398438 c 0,114,115
 288.450195312 284.241210938 288.450195312 284.241210938 257.833007812 219.759765625 c 1,116,-1
 79.0732421875 278.799804688 l 1,0,1
466.11328125 -77.080078125 m 1,117,118
 505.938476562 -68.7353515625 505.938476562 -68.7353515625 625.193359375 -68.8798828125 c 0,119,120
 653.4765625 -69.0693359375 653.4765625 -69.0693359375 666.193359375 -70.51953125 c 1,121,-1
 680.953125 -75.4404296875 l 1,122,123
 683.685546875 -80.0458984375 683.685546875 -80.0458984375 682.592773438 -126.280273438 c 2,124,-1
 682.592773438 -270.599609375 l 1,125,126
 668.817382812 -270.599609375 668.817382812 -270.599609375 641.264648438 -267.057617188 c 0,127,128
 622.350585938 -264.713867188 622.350585938 -264.713867188 613.712890625 -264.040039062 c 0,129,130
 540.791015625 -259.555664062 540.791015625 -259.555664062 466.11328125 -272.240234375 c 1,131,-1
 466.11328125 -77.080078125 l 1,117,118
EndSplineSet
AlternateSubs2: "gsub_alternate_dfl_aalt_arab_FAR_Lookup_01_Subtable_01" uniFE9E uniFE9F afii57420 uniFEA0
Substitution2: "gsub_single_rtl_fina_arab_FAR_Lookup_01_Subtable_01" uniFE9E
Substitution2: "gsub_single_rtl_init_arab_FAR_Lookup_01_Subtable_01" uniFE9F
Substitution2: "gsub_single_rtl_medi_arab_FAR_Lookup_01_Subtable_01" uniFEA0
PairPos2: "gpos_pair_dfl_kern_arab_FAR_Lookup_01_Subtable_01" tcheharabic dx=0 dy=0 dh=0 dv=0 dx=0 dy=0 dh=0 dv=0
EndChar

StartChar: uniFE9E
Encoding: 65182 65182 366
Width: 879
VWidth: 1639
GlyphClass: 2
Flags: HW
AnchorPoint: "GposMark2BaseAnchorClassErabAbove_01_02" 518.221 1024.82 basechar 0
AnchorPoint: "GposMark2BaseAnchorClassErabBelow_01_02" 518.221 -710.532 basechar 0
LayerCount: 2
Fore
SplineSet
79.068359375 278.799804688 m 1,0,1
 82.974609375 292.651367188 82.974609375 292.651367188 116.788085938 372.280273438 c 0,2,3
 175.979492188 515.915039062 175.979492188 515.915039062 185.66796875 537.919921875 c 0,4,5
 199.608398438 571.540039062 199.608398438 571.540039062 226.66796875 638.780273438 c 0,6,7
 253.967773438 706.56640625 253.967773438 706.56640625 267.66796875 739.639648438 c 1,8,9
 295.978515625 799.799804688 295.978515625 799.799804688 310.784179688 814.268554688 c 0,10,11
 313.82421875 817.087890625 313.82421875 817.087890625 315.228515625 818.360351562 c 0,12,13
 383.901367188 874.82421875 383.901367188 874.82421875 487.764648438 852.17578125 c 0,14,15
 551.825195312 837.130859375 551.825195312 837.130859375 589.108398438 797.040039062 c 0,16,17
 613.44921875 769.379882812 613.44921875 769.379882812 662.102539062 669.116210938 c 0,18,19
 667.372070312 658.356445312 667.372070312 658.356445312 671.108398438 651.080078125 c 0,20,21
 749.828125 508.400390625 749.828125 508.400390625 823.627929688 365.719726562 c 0,22,23
 832.6484375 349.3203125 832.6484375 349.3203125 849.868164062 317.33984375 c 128,-1,24
 867.087890625 285.360351562 867.087890625 285.360351562 876.108398438 268.959960938 c 0,25,26
 914.966796875 198.131835938 914.966796875 198.131835938 954.828125 182.040039062 c 1,27,28
 974.791015625 176.6796875 974.791015625 176.6796875 1038.46777344 178.759765625 c 1,29,-1
 1038.46777344 0 l 1,30,31
 965.817382812 -3.8369140625 965.817382812 -3.8369140625 948.267578125 0 c 0,32,33
 890.694335938 11.994140625 890.694335938 11.994140625 850.3828125 73.693359375 c 0,34,35
 848.783203125 76.20703125 848.783203125 76.20703125 848.228515625 77.080078125 c 1,36,37
 809.928710938 -1.31640625 809.928710938 -1.31640625 667.828125 -1.6396484375 c 2,38,-1
 380.828125 -1.6396484375 l 2,39,40
 266.568359375 -3.1953125 266.568359375 -3.1953125 226.66796875 -55.759765625 c 0,41,42
 174.7734375 -121.92578125 174.7734375 -121.92578125 210.353515625 -202.633789062 c 1,43,44
 243.590820312 -273.244140625 243.590820312 -273.244140625 315.228515625 -287 c 0,45,46
 360.0546875 -294.106445312 360.0546875 -294.106445312 449.708007812 -307.955078125 c 0,47,48
 629.561523438 -335.764648438 629.561523438 -335.764648438 718.66796875 -350.959960938 c 0,49,50
 735.887695312 -353.419921875 735.887695312 -353.419921875 769.5078125 -359.16015625 c 0,51,52
 803.708984375 -364.954101562 803.708984375 -364.954101562 820.34765625 -367.360351562 c 0,53,54
 822.611328125 -367.8125 822.611328125 -367.8125 829.822265625 -368.244140625 c 0,55,56
 852.036132812 -370.568359375 852.036132812 -370.568359375 856.427734375 -375.559570312 c 1,57,58
 858.068359375 -383.759765625 858.068359375 -383.759765625 858.887695312 -387.040039062 c 128,-1,59
 859.708007812 -390.3203125 859.708007812 -390.3203125 856.427734375 -404.259765625 c 2,60,-1
 853.1484375 -418.200195312 l 1,61,-1
 838.387695312 -514.959960938 l 2,62,63
 837.897460938 -518.395507812 837.897460938 -518.395507812 837.489257812 -527.030273438 c 0,64,65
 835.780273438 -549.59375 835.780273438 -549.59375 831.828125 -557.599609375 c 0,66,67
 829.2109375 -560.532226562 829.2109375 -560.532226562 815.427734375 -559.240234375 c 0,68,69
 783.815429688 -553.072265625 783.815429688 -553.072265625 764.587890625 -551.040039062 c 2,70,-1
 553.028320312 -516.599609375 l 2,71,72
 483.764648438 -506.671875 483.764648438 -506.671875 313.587890625 -478.879882812 c 0,73,74
 199.892578125 -461.653320312 199.892578125 -461.653320312 162.166992188 -443.411132812 c 0,75,76
 157.481445312 -441.073242188 157.481445312 -441.073242188 154.5078125 -439.51953125 c 0,77,78
 54.8544921875 -385.1640625 54.8544921875 -385.1640625 14.6630859375 -254.08203125 c 0,79,80
 12.9677734375 -248.40625 12.9677734375 -248.40625 11.828125 -244.360351562 c 0,81,82
 -2.0263671875 -189.375976562 -2.0263671875 -189.375976562 0.34765625 -129.559570312 c 0,83,84
 3.5546875 -75.1015625 3.5546875 -75.1015625 20.0283203125 -29.51953125 c 0,85,86
 33.47265625 7.0478515625 33.47265625 7.0478515625 61.0283203125 45.919921875 c 1,87,88
 149.211914062 158.072265625 149.211914062 158.072265625 313.587890625 175.48046875 c 0,89,90
 334.014648438 177.299804688 334.014648438 177.299804688 469.387695312 177.120117188 c 2,91,-1
 639.948242188 177.120117188 l 2,92,93
 682.505859375 177.120117188 682.505859375 177.120117188 689.450195312 180.775390625 c 0,94,95
 696.884765625 186.18359375 696.884765625 186.18359375 700.627929688 191.879882812 c 0,96,97
 714.471679688 216.798828125 714.471679688 216.798828125 669.323242188 287.540039062 c 0,98,99
 666.065429688 292.721679688 666.065429688 292.721679688 664.547851562 295.200195312 c 0,100,101
 639.127929688 340.299804688 639.127929688 340.299804688 589.927734375 431.3203125 c 0,102,103
 540.40234375 522.874023438 540.40234375 522.874023438 515.307617188 567.440429688 c 0,104,105
 480.244140625 632.512695312 480.244140625 632.512695312 471.028320312 644.51953125 c 0,106,107
 456.416992188 662.783203125 456.416992188 662.783203125 441.5078125 660.919921875 c 1,108,109
 425.321289062 655.05859375 425.321289062 655.05859375 415.267578125 633.040039062 c 0,110,111
 410.34765625 619.919921875 410.34765625 619.919921875 400.5078125 592.860351562 c 0,112,113
 390.466796875 565.295898438 390.466796875 565.295898438 385.748046875 552.6796875 c 0,114,115
 368.447265625 509.748046875 368.447265625 509.748046875 337.342773438 421.858398438 c 0,116,117
 288.4453125 284.241210938 288.4453125 284.241210938 257.828125 219.759765625 c 1,118,-1
 79.068359375 278.799804688 l 1,0,1
466.108398438 -77.080078125 m 1,119,120
 505.93359375 -68.7353515625 505.93359375 -68.7353515625 625.188476562 -68.8798828125 c 0,121,122
 653.471679688 -69.0693359375 653.471679688 -69.0693359375 666.188476562 -70.51953125 c 1,123,-1
 680.948242188 -75.4404296875 l 1,124,125
 683.680664062 -80.0458984375 683.680664062 -80.0458984375 682.587890625 -126.280273438 c 2,126,-1
 682.587890625 -270.599609375 l 1,127,128
 668.8125 -270.599609375 668.8125 -270.599609375 641.259765625 -267.057617188 c 0,129,130
 622.345703125 -264.713867188 622.345703125 -264.713867188 613.708007812 -264.040039062 c 0,131,132
 540.786132812 -259.555664062 540.786132812 -259.555664062 466.108398438 -272.240234375 c 1,133,-1
 466.108398438 -77.080078125 l 1,119,120
EndSplineSet
PairPos2: "gpos_pair_dfl_kern_arab_FAR_Lookup_01_Subtable_01" tcheharabic dx=0 dy=0 dh=0 dv=0 dx=0 dy=0 dh=0 dv=0
EndChar

StartChar: uniFE9F
Encoding: 65183 65183 367
Width: 1033
VWidth: 1639
GlyphClass: 2
Flags: HW
AnchorPoint: "GposMark2BaseAnchorClassErabAbove_01_02" 432.856 1010.61 basechar 0
AnchorPoint: "GposMark2BaseAnchorClassErabBelow_01_02" 432.856 -496.04 basechar 0
LayerCount: 2
Fore
SplineSet
66.400390625 278.799804688 m 1,0,1
 70.0849609375 295.751953125 70.0849609375 295.751953125 107.325195312 382.334960938 c 0,2,3
 109.41796875 387.270507812 109.41796875 387.270507812 110.6796875 390.3203125 c 0,4,5
 186.87890625 574.716796875 186.87890625 574.716796875 205.799804688 618.280273438 c 1,6,7
 229.283203125 678.110351562 229.283203125 678.110351562 251.719726562 729.799804688 c 0,8,9
 274.897460938 786.16796875 274.897460938 786.16796875 287.799804688 801.959960938 c 0,10,11
 326.81640625 849.602539062 326.81640625 849.602539062 410.799804688 856.080078125 c 1,12,13
 518.125976562 860.60546875 518.125976562 860.60546875 574.799804688 798.6796875 c 0,14,15
 588.140625 783.528320312 588.140625 783.528320312 619.080078125 724.879882812 c 2,16,-1
 676.48046875 618.280273438 l 2,17,18
 784.416015625 418.951171875 784.416015625 418.951171875 802.759765625 383.759765625 c 0,19,20
 809.020507812 372.203125 809.020507812 372.203125 823.0390625 348.6640625 c 0,21,22
 857.329101562 290.288085938 857.329101562 290.288085938 866.719726562 260.759765625 c 0,23,24
 897.711914062 163.356445312 897.711914062 163.356445312 833.704101562 71.4658203125 c 0,25,26
 825.383789062 59.9208984375 825.383789062 59.9208984375 817.520507812 50.83984375 c 0,27,28
 767.444335938 -4.6494140625 767.444335938 -4.6494140625 646.682617188 -2.9208984375 c 0,29,30
 637.787109375 -2.7939453125 637.787109375 -2.7939453125 620.095703125 -2.3154296875 c 0,31,32
 594.608398438 -1.66796875 594.608398438 -1.66796875 583 -1.6396484375 c 2,33,-1
 177.919921875 -1.6396484375 l 2,34,35
 156.844726562 -1.6396484375 156.844726562 -1.6396484375 113.959960938 -2.8720703125 c 0,36,37
 15.3017578125 -5.4697265625 15.3017578125 -5.4697265625 -32 0 c 1,38,-1
 -32 178.759765625 l 1,39,40
 56.560546875 178.759765625 56.560546875 178.759765625 234.5 177.940429688 c 0,41,42
 412.98046875 177.125 412.98046875 177.125 501 177.120117188 c 2,43,-1
 632.200195312 177.120117188 l 2,44,45
 670.8359375 177.120117188 670.8359375 177.120117188 677.580078125 181.092773438 c 0,46,47
 681.22265625 183.764648438 681.22265625 183.764648438 683.040039062 185.3203125 c 0,48,49
 691.240234375 193.51953125 691.240234375 193.51953125 692.879882812 203.360351562 c 128,-1,50
 694.520507812 213.200195312 694.520507812 213.200195312 688.780273438 227.139648438 c 128,-1,51
 683.040039062 241.080078125 683.040039062 241.080078125 679.759765625 248.459960938 c 128,-1,52
 676.48046875 255.83984375 676.48046875 255.83984375 665.8203125 272.240234375 c 2,53,-1
 655.16015625 288.639648438 l 1,54,55
 628.919921875 334.559570312 628.919921875 334.559570312 578.900390625 428.040039062 c 0,56,57
 528.54296875 522.041015625 528.54296875 522.041015625 502.639648438 567.440429688 c 0,58,59
 467.391601562 633.029296875 467.391601562 633.029296875 461.639648438 641.240234375 c 0,60,61
 447.264648438 659.658203125 447.264648438 659.658203125 432.120117188 660.919921875 c 0,62,63
 419 660.919921875 419 660.919921875 404.997070312 639.09765625 c 2,64,-1
 404.240234375 637.959960938 l 1,65,66
 396.944335938 621.283203125 396.944335938 621.283203125 385.063476562 586.784179688 c 0,67,68
 378.08203125 566.6484375 378.08203125 566.6484375 374.719726562 557.599609375 c 0,69,70
 357.372070312 513.908203125 357.372070312 513.908203125 325.168945312 424.94921875 c 0,71,72
 274.768554688 286.094726562 274.768554688 286.094726562 245.16015625 219.759765625 c 1,73,-1
 66.400390625 278.799804688 l 1,0,1
302.560546875 -346.040039062 m 1,74,-1
 302.560546875 -205 l 2,75,76
 302.560546875 -202.020507812 302.560546875 -202.020507812 301.852539062 -192.828125 c 0,77,78
 300.048828125 -160.966796875 300.048828125 -160.966796875 304.200195312 -154.16015625 c 0,79,80
 305.83984375 -152.51953125 305.83984375 -152.51953125 309.120117188 -150.059570312 c 128,-1,81
 312.400390625 -147.599609375 312.400390625 -147.599609375 316.5 -146.780273438 c 128,-1,82
 320.599609375 -145.959960938 320.599609375 -145.959960938 324.700195312 -145.139648438 c 128,-1,83
 328.799804688 -144.3203125 328.799804688 -144.3203125 334.540039062 -144.3203125 c 128,-1,84
 340.280273438 -144.3203125 340.280273438 -144.3203125 343.560546875 -144.3203125 c 128,-1,85
 346.83984375 -144.3203125 346.83984375 -144.3203125 352.580078125 -144.3203125 c 2,86,-1
 358.3203125 -144.3203125 l 2,87,88
 387.580078125 -143.534179688 387.580078125 -143.534179688 519.040039062 -147.599609375 c 1,89,-1
 519.040039062 -346.040039062 l 1,90,91
 430.0703125 -336.154296875 430.0703125 -336.154296875 384.560546875 -337.83984375 c 0,92,93
 370.620117188 -338.66015625 370.620117188 -338.66015625 343.560546875 -341.940429688 c 0,94,95
 315.911132812 -345.19140625 315.911132812 -345.19140625 302.560546875 -346.040039062 c 1,74,-1
EndSplineSet
EndChar

